<?xml version="1.0" encoding="utf-8"?>
<!-- Generator: Adobe Illustrator 24.0.3, SVG Export Plug-In . SVG Version: 6.00 Build 0)  -->
<svg version="1.1" id="Layer_1" xmlns="http://www.w3.org/2000/svg" xmlns:xlink="http://www.w3.org/1999/xlink" x="0px" y="0px"
	 viewBox="0 0 240 80" style="enable-background:new 0 0 240 80;" xml:space="preserve">
<style type="text/css">
	.st0{display:none;}
	.st1{fill:#7C7C7C;}
</style>
<g id="guides" class="st0">
</g>
<g id="guides_1_" class="st0">
</g>
<path class="st1" d="M119.5,7.1L119.5,7.1c-9.9,0-18,8.1-18,18c0,4.2,1.5,8.1,3.9,11.3c3.2,3.7,7.1,5.2,8.7,5.2l0,0
	c1.7,0,2-0.8,2-1.7c0-0.5-0.2-0.8-0.2-1.2c-0.2-0.7-0.7-1.7-1.2-2.7c-0.8-1.3-1.5-2.9-1.5-4.9c0-3.5,3.4-6,6.2-6l0,0
	c2.9,0,6.2,2.5,6.2,6c0,2-0.7,3.5-1.5,4.9c-0.7,0.8-1,1.8-1.2,2.7c0,0.3-0.2,0.7-0.2,1.2c0,0.8,0.3,1.7,2,1.7l0,0
	c1.7,0,5.5-1.3,8.7-5.2c2.5-3,3.9-6.9,3.9-11.3C137.5,15.2,129.4,7.1,119.5,7.1"/>
<path class="st1" d="M144.2,41.2c-2.7,0-5,0.7-6.6,1.3c-2.5,1-5.7,3.4-8.1,6.4c-1.7,2.4-2.9,5.5-2.9,9.1c0,1.2,0.2,2.5,0.5,3.9
	c0.3,1.3,0.7,2.2,1.2,3.2c0.7,1.3,2.5,3.2,4,3.5c0.2,0,0.3,0,0.5,0c1,0,1.8-0.7,2.2-1c3.2-3.7,15.3-18,16.6-19.8
	c0.5-0.7,0.7-1.3,0.7-1.8c0-1-0.7-2-1.3-2.7c-0.7-0.7-2-1.5-4.7-1.8C145.7,41.2,144.9,41.2,144.2,41.2"/>
<path class="st1" d="M94.8,41.2c-0.8,0-1.5,0-2.4,0.2c-2.7,0.3-3.9,1.3-4.7,1.8c-0.8,0.7-1.3,1.5-1.3,2.7c0,0.7,0.2,1.2,0.7,1.8
	c1.3,1.8,13.4,16.1,16.6,19.8c0.3,0.5,1.2,1,2.2,1c0.2,0,0.3,0,0.5,0c1.5-0.3,3.4-2.2,4-3.5c0.5-1,0.8-1.8,1.2-3.2
	c0.3-1.3,0.5-2.7,0.5-3.9c0-3.5-1.2-6.7-2.9-9.1c-2.2-3-5.4-5.4-8.1-6.4C99.9,41.7,97.5,41.2,94.8,41.2"/>
</svg>
