<?xml version="1.0" encoding="utf-8"?>
<!-- Generator: Adobe Illustrator 24.0.1, SVG Export Plug-In . SVG Version: 6.00 Build 0)  -->
<svg version="1.1" id="Layer_1" xmlns="http://www.w3.org/2000/svg" xmlns:xlink="http://www.w3.org/1999/xlink" x="0px" y="0px"
	 viewBox="0 0 240 80" style="enable-background:new 0 0 240 80;" xml:space="preserve">
<style type="text/css">
	.st0{display:none;}
	.st1{fill:#3F4042;}
</style>
<g id="guides" class="st0">
</g>
<g id="guides_1_" class="st0">
</g>
<g>
	<path class="st1" d="M123.7,45.6c-0.8,0-1.5,0.3-2,0.8c-0.5,0.6-0.8,1.3-0.8,2.2c0,0.9,0.3,1.6,0.8,2.2c0.5,0.6,1.2,0.8,2,0.8
		c0.8,0,1.4-0.3,2-0.9c0.5-0.6,0.8-1.3,0.8-2.2s-0.3-1.6-0.8-2.2C125.2,45.9,124.5,45.6,123.7,45.6z"/>
	<path class="st1" d="M111.5,45.6c-0.8,0-1.5,0.3-2,0.8c-0.5,0.6-0.8,1.3-0.8,2.2c0,0.9,0.3,1.6,0.8,2.2c0.5,0.6,1.2,0.9,2,0.9
		c0.8,0,1.5-0.3,2-0.8c0.5-0.6,0.8-1.3,0.8-2.2c0-0.9-0.3-1.6-0.8-2.2C113,45.9,112.4,45.6,111.5,45.6z"/>
	<path class="st1" d="M135,45.6c-0.8,0-1.5,0.3-2,0.8s-0.8,1.3-0.8,2.2c0,0.9,0.3,1.6,0.8,2.2c0.5,0.6,1.2,0.9,2,0.9
		c0.8,0,1.5-0.3,2-0.8s0.8-1.3,0.8-2.2c0-0.9-0.3-1.6-0.8-2.2C136.5,45.9,135.9,45.6,135,45.6z"/>
	<path class="st1" d="M111.1,54c-1.3,0-2.5-0.5-3.4-1.5c-1-1-1.5-2.3-1.5-3.8c0-1.6,0.5-2.9,1.4-3.9c0.9-1,2.1-1.5,3.4-1.5
		c0.6,0,1.2,0.1,1.7,0.4c0.5,0.2,1,0.6,1.5,1v-1.1h2.6v10.2h-2.6v-1.1c-0.5,0.5-1,0.8-1.5,1C112.2,53.9,111.7,54,111.1,54z
		 M121,44.6c0.5-0.5,1-0.8,1.5-1c0.5-0.2,1.1-0.4,1.7-0.4c1.3,0,2.5,0.5,3.4,1.5c0.9,1,1.4,2.3,1.4,3.9c0,1.5-0.5,2.8-1.5,3.8
		c-1,1-2.1,1.5-3.4,1.5c-0.6,0-1.1-0.1-1.6-0.3c-0.5-0.2-1-0.6-1.5-1v4.8h-2.5v-14h2.5L121,44.6L121,44.6L121,44.6z M137.7,44.6
		v-5.1h2.6v14.2h-2.6v-1.1c-0.5,0.5-1,0.8-1.5,1c-0.5,0.2-1.1,0.3-1.6,0.3c-1.3,0-2.5-0.5-3.4-1.5c-1-1-1.5-2.3-1.5-3.8
		c0-1.6,0.5-2.9,1.4-3.9c0.9-1,2.1-1.5,3.4-1.5c0.6,0,1.2,0.1,1.7,0.4C136.8,43.8,137.3,44.2,137.7,44.6z M120.1,9.8
		c-15.5,0-28,12.6-28,28c0,15,11.9,27.3,26.8,28v0h29.3v-28C148.1,22.4,135.5,9.8,120.1,9.8z"/>
</g>
</svg>
