<?xml version="1.0" encoding="utf-8"?>
<!-- Generator: Adobe Illustrator 25.3.1, SVG Export Plug-In . SVG Version: 6.00 Build 0)  -->
<svg version="1.1" id="Layer_1" xmlns="http://www.w3.org/2000/svg" xmlns:xlink="http://www.w3.org/1999/xlink" x="0px" y="0px"
	 viewBox="0 0 240 80" enable-background="new 0 0 240 80" xml:space="preserve">
<g id="guides" display="none">
</g>
<path fill="#253148" d="M67.3,73.8l0.7,0.1l-0.3-0.8l0.1-0.1h-0.1l0,0h-0.1L65,66.3v-0.1l-16.9-6.8l-2.2-1.6l-2.7-6v-0.1h-0.1
	l-1.2-7.6l0,0V44v-0.1h-0.1l-2-40.5h-1l-1,30h-0.1l0.1,0.2l-0.3,10.1l-1.9,8.2l-3.7,7.2l0,0l0,0l-14.6,5.4v3.4l0,0l0,0v0.5l9.6,7.2
	h0.2l0.1,0.1l0.1-0.1l21.1-4.2L67,73.8l0.1,0.1L67.3,73.8L67.3,73.8L67.3,73.8z M18.3,65.2l9-3.3l-9,5.3V65.2z M38.7,36.9l2,7
	l-4.1,8.6l-0.9,1.3l0.7-1.4l2-8.4L38.7,36.9z M47.5,60.2l13.1,9.1L42.4,60l3-1.3l1.9,1.3v0.1L47.5,60.2z M32.7,60l7.4,0.4L28.3,73
	L32.7,60z M33.3,59l3.8-5.3l3.2,5.7L33.3,59z M31.4,60.7l-4.6,13.6l-8.1-6.1L31.4,60.7z M41.1,60.8l6.4,9.7l-19,3.8L41.1,60.8z
	 M42.7,61.3l21.6,11.1l-15.6-2L42.7,61.3z M51.8,61.9l12.4,5l1.9,5L51.8,61.9z M41.9,59.1l1-5.5l1.9,4.3L41.9,59.1z M41,58.5
	l-3.2-5.8l3.4-7.1l1,6.2L41,58.5z M38.8,33.5l0.6-17.3l1.2,23.3L38.8,33.5z"/>
<g>
	<path fill="#253148" d="M79.6,10.2l-2,6.2h3.8L79.6,10.2z M75.4,23.1h-5.1L77.6,4h3.8l7.4,19.1h-5.1l-0.9-2.7h-6.3L75.4,23.1z"/>
	<path fill="#253148" d="M93.5,8.7v2c0.8-1.5,2-2.1,3.6-2.1v3.8H97c-2.7,0-3.3,0.9-3.3,3.6v7.2h-4.4V8.7H93.5z"/>
	<polygon fill="#253148" points="98.3,11.8 98.3,8.7 100.3,8.7 100.3,4 104.5,4 104.5,8.7 106.4,8.7 106.4,11.8 104.5,11.8 
		104.5,23.1 100.3,23.1 100.3,11.8 	"/>
	<path fill="#253148" d="M111.1,18.7L111.1,18.7c0,0.9,0.6,1.5,1.5,1.5c0.9,0,1.5-0.5,1.5-1.2c0-1.2-1.2-1.2-3-1.7
		c-2.6-0.8-3.8-2.1-3.8-4.4c0-2.9,2.1-4.8,5.6-4.8c3,0,5,1.7,5.1,4.4h-3.9c-0.2-0.9-0.5-1.4-1.2-1.4c-0.9,0-1.4,0.5-1.4,1.2
		c0,1.1,0.9,1.2,2.4,1.7c3,0.8,4.4,2,4.4,4.4c0,2.9-2.3,5-5.7,5c-3.2,0-5.3-1.8-5.6-4.7C107,18.7,111.1,18.7,111.1,18.7z"/>
	<path fill="#253148" d="M79.4,46.7c-2.9,0-5.3-1.1-7.1-3c-1.8-2-2.7-4.2-2.7-7.1c0-2.7,1.1-5.1,2.9-6.9c2-1.8,4.2-2.9,6.9-2.9
		c4.5,0,8.3,2.9,9.5,7.7h-5.1c-1.1-1.8-2.6-2.9-4.4-2.9c-2.9,0-5.1,2.3-5.1,5c0,3,2.4,5.4,5,5.4c1.8,0,3.5-0.9,4.4-2.7h5.1
		C87.7,43.8,84.1,46.7,79.4,46.7"/>
	<path fill="#253148" d="M101.2,37.5c-0.5-1.5-1.7-2.3-3.5-2.3s-3,0.9-3.3,2.3H101.2z M104.8,42c-1.4,3-3.8,4.5-7.1,4.5
		c-2.3,0-3.9-0.8-5.4-2.3c-1.4-1.5-2.1-3.3-2.1-5.4c0-2,0.8-3.9,2.3-5.3c1.5-1.5,3.3-2.3,5.3-2.3c4.7,0,7.7,3.3,7.7,8.7v0.5H94.6
		c0.5,1.5,1.5,2.4,3.3,2.4c0.9,0,1.5-0.3,2.3-0.8h4.7V42z"/>
	<path fill="#253148" d="M106.7,46.2V31.8h4.1v2c0.9-1.5,2.3-2.3,4.2-2.3c3,0,5,2,5,5.1v9.5h-4.2v-7.8c0-2-0.5-2.9-2.1-2.9
		c-1.7,0-2.6,1.1-2.6,2.9v7.8h-4.4V46.2z"/>
	<polygon fill="#253148" points="121.3,34.9 121.3,31.8 123.1,31.8 123.1,27.1 127.3,27.1 127.3,31.8 129.3,31.8 129.3,34.9 
		127.3,34.9 127.3,46.2 123.1,46.2 123.1,34.9 	"/>
	<path fill="#253148" d="M135,31.8v2c0.8-1.5,2-2.1,3.6-2.1v3.9h-0.2c-2.7,0-3.3,0.9-3.3,3.6v7.2h-4.4V31.8H135z"/>
	<path fill="#253148" d="M150.1,37.5c-0.5-1.5-1.7-2.3-3.5-2.3c-1.8,0-3,0.9-3.3,2.3H150.1z M153.7,42c-1.4,3-3.8,4.5-7.1,4.5
		c-2.3,0-3.9-0.8-5.4-2.3c-1.4-1.5-2.1-3.3-2.1-5.4c0-2,0.8-3.9,2.3-5.3c1.5-1.5,3.3-2.3,5.3-2.3c4.7,0,7.7,3.3,7.7,8.7v0.5h-10.8
		c0.5,1.5,1.5,2.4,3.3,2.4c0.9,0,1.5-0.3,2.3-0.8h4.7V42z"/>
	<polygon fill="#253148" points="70.6,69.3 70.6,50.3 76.9,50.3 80.6,62 84.2,50.3 90.5,50.3 90.5,69.3 86.2,69.3 86.2,56.7 
		82.3,69.3 79,69.3 74.9,56.7 74.9,69.3 	"/>
	<path fill="#253148" d="M103.6,60.6c-0.5-1.5-1.7-2.3-3.5-2.3c-1.8,0-3,0.9-3.3,2.3H103.6z M107.2,65.1c-1.4,3-3.8,4.5-7.1,4.5
		c-2.3,0-3.9-0.8-5.4-2.3c-1.4-1.5-2.1-3.3-2.1-5.4c0-2,0.8-3.9,2.3-5.3c1.5-1.5,3.3-2.3,5.3-2.3c4.7,0,7.7,3.3,7.7,8.7v0.5H97
		c0.3,1.5,1.5,2.4,3.3,2.4c0.9,0,1.5-0.3,2.3-0.8h4.7V65.1z"/>
	<rect x="109.6" y="50.3" fill="#253148" width="4.2" height="19.1"/>
	<path fill="#253148" d="M123.7,65.6c2.1,0,3.8-1.5,3.8-3.6c0-2-1.7-3.6-3.6-3.6c-2,0-3.5,1.5-3.5,3.6S121.9,65.6,123.7,65.6
		 M120.4,69.3h-4.1V50.3h4.2v6.3c0.9-1.2,2.3-1.8,4.1-1.8c1.8,0,3.5,0.6,4.8,2c1.5,1.5,2.3,3.3,2.3,5.4c0,2.3-0.9,4.2-2.6,5.7
		c-1.2,1.2-2.7,1.7-4.5,1.7c-1.7,0-3-0.5-4.2-1.7V69.3z"/>
	<path fill="#253148" d="M140.5,65.7c2,0,3.5-1.7,3.5-3.6c0-2-1.5-3.6-3.5-3.6c-2,0-3.5,1.7-3.5,3.6
		C137.1,64.1,138.6,65.7,140.5,65.7 M135.1,56.9c1.5-1.5,3.3-2.3,5.3-2.3c2.1,0,3.9,0.8,5.4,2.1c1.5,1.5,2.4,3.5,2.4,5.4
		c0,2.1-0.8,3.9-2.1,5.4c-1.5,1.5-3.3,2.3-5.4,2.3c-2.3,0-3.9-0.8-5.4-2.3c-1.4-1.5-2.1-3.3-2.1-5.3
		C132.9,60.2,133.6,58.2,135.1,56.9"/>
	<path fill="#253148" d="M163,54.9v14.4h-3.9v-2c-0.9,1.5-2.3,2.3-4.2,2.3c-3,0-5-2-5-5.1v-9.5h4.2v7.8c0,2,0.5,2.9,2.1,2.9
		c1.7,0,2.6-1.1,2.6-2.9v-7.8h4.2V54.9z"/>
	<path fill="#253148" d="M169.6,54.9v2c0.8-1.5,2-2.1,3.6-2.1v3.9h-0.2c-2.7,0-3.3,0.9-3.3,3.6v7.1h-4.4V54.9H169.6z"/>
	<path fill="#253148" d="M174.9,69.3V54.9h4.1v2c0.9-1.5,2.3-2.3,4.2-2.3c3,0,5,2,5,5.1v9.6h-4.2v-7.8c0-2-0.5-2.9-2.1-2.9
		c-1.7,0-2.6,1.1-2.6,2.9v7.8H174.9z"/>
	<path fill="#253148" d="M200.7,60.6c-0.5-1.5-1.7-2.3-3.5-2.3s-3,0.9-3.3,2.3H200.7z M204.3,65.1c-1.4,3-3.8,4.5-7.1,4.5
		c-2.3,0-3.9-0.8-5.4-2.3c-1.4-1.5-2.1-3.3-2.1-5.4c0-2,0.8-3.9,2.3-5.3c1.5-1.5,3.3-2.3,5.3-2.3c4.7,0,7.7,3.3,7.7,8.7v0.5h-10.8
		c0.3,1.5,1.5,2.4,3.3,2.4c0.9,0,1.5-0.3,2.3-0.8h4.7V65.1z"/>
</g>
</svg>
