<?xml version="1.0" encoding="utf-8"?>
<!-- Generator: Adobe Illustrator 25.4.1, SVG Export Plug-In . SVG Version: 6.00 Build 0)  -->
<svg version="1.1" id="Layer_1" xmlns="http://www.w3.org/2000/svg" xmlns:xlink="http://www.w3.org/1999/xlink" x="0px" y="0px"
	 viewBox="0 0 240 80" style="enable-background:new 0 0 240 80;" xml:space="preserve">
<style type="text/css">
	.st0{display:none;}
	.st1{fill:#002D40;}
</style>
<g id="guides" class="st0">
</g>
<g>
	<path class="st1" d="M2,46.1C2,57,8.8,66.3,18.3,69.9V22.4C8.8,26,2,35.3,2,46.1"/>
	<path class="st1" d="M27.2,20.8c-0.7,0-1.4,0-2.1,0.1v1.8h0.1c9.6,0.1,17.3,7.4,17.2,16.5c-0.1,9-7.8,16.2-17.3,16.2v16.1
		c0.7,0.1,1.4,0.1,2.1,0.1c13.9,0,25.1-11.4,25.1-25.4S41,20.8,27.2,20.8"/>
	<path class="st1" d="M74,48.9l-2.9-9.1l-2.9,9.1H74z M75,52h-7.9l-1.4,4.3h-3.5L69,36h4.2l6.7,20.3h-3.5L75,52z"/>
	<path class="st1" d="M86.2,56.6c-2.9,0-4.7-2.2-4.7-5.6v-9.8h3.4v9.5c0,1.7,0.7,2.9,2.6,2.9c1.9,0,2.9-1.4,2.9-3.1v-9.2h3.4v15
		h-3.4v-1.7h-0.1C89.3,55.8,88.1,56.6,86.2,56.6"/>
	<path class="st1" d="M96.4,52h3.3c0.2,1.2,1.1,2.1,3,2.1c1.7,0,2.6-0.7,2.6-2c0-1-0.3-1.6-1.9-1.8l-2.5-0.3
		c-3.1-0.4-4.3-1.9-4.3-4.2c0-2.8,2.3-4.9,5.9-4.9c3.8,0,5.6,2.3,5.7,4.5h-3.2c-0.2-1.1-1-1.9-2.6-1.9c-1.6,0-2.6,0.7-2.6,2
		c0,0.9,0.5,1.4,2.1,1.7l2.5,0.3c2.9,0.4,4.1,1.8,4.1,4.3c0,3-2.4,4.9-5.9,4.9C98.7,56.6,96.7,54.6,96.4,52"/>
	<path class="st1" d="M118.8,56.3h-1.7c-3.3,0-5-1.5-5-4.4V44h-2.8v-2.7h2.9V36h3.3v5.3h3.3V44h-3.3v7.6c0,1.4,0.7,1.9,2,1.9h1.3
		V56.3z"/>
	<path class="st1" d="M125.1,56.3h-3.4v-15h3.4v2.2h0.1c0.7-1.6,1.9-2.2,3.2-2.2h1.3v3.3h-1.2c-2.3,0-3.4,1.1-3.4,3.8V56.3z"/>
	<path class="st1" d="M137.6,49.5l-1.2,0.2c-1.6,0.2-2.5,0.9-2.5,2.3c0,1.4,0.8,2.1,2.3,2.1c1.8,0,3.3-1.2,3.3-3.1v-2.1
		C139.1,49.2,138.4,49.3,137.6,49.5 M135.2,56.6c-2.8,0-4.7-1.7-4.7-4.5c0-2.9,2.2-4.1,4.6-4.4l2.8-0.4c1.2-0.2,1.5-0.6,1.5-1.5
		c0-1.2-0.7-2.1-2.5-2.1c-1.9,0-2.6,0.9-2.8,2.2h-3.4c0.1-2.5,2-4.9,6.1-4.9c3.9,0,5.9,2.1,5.9,5.3v7.6c0,0.9,0.1,1.8,0.3,2.6h-3.4
		c-0.1-0.6-0.2-1.2-0.2-1.8h-0.1C138.6,55.8,137.3,56.6,135.2,56.6"/>
	<path class="st1" d="M146.3,52.3V36h3.4v16c0,0.9,0.4,1.4,1.4,1.4h1v2.9h-1.6C147.6,56.3,146.3,54.8,146.3,52.3"/>
	<path class="st1" d="M154.6,41.3h3.4v15h-3.4V41.3z M156.3,35c1.2,0,2,0.9,2,2.1c0,1.2-0.9,2.1-2,2.1c-1.2,0-2-0.9-2-2.1
		C154.3,35.9,155.1,35,156.3,35"/>
	<path class="st1" d="M167.9,49.5l-1.2,0.2c-1.6,0.2-2.5,0.9-2.5,2.3c0,1.4,0.8,2.1,2.3,2.1c1.8,0,3.3-1.2,3.3-3.1v-2.1
		C169.3,49.2,168.6,49.3,167.9,49.5 M165.4,56.6c-2.8,0-4.7-1.7-4.7-4.5c0-2.9,2.2-4.1,4.6-4.4l2.8-0.4c1.2-0.2,1.5-0.6,1.5-1.5
		c0-1.2-0.7-2.1-2.5-2.1c-1.9,0-2.6,0.9-2.8,2.2h-3.4c0.1-2.5,2-4.9,6.1-4.9c3.8,0,5.9,2.1,5.9,5.3v7.6c0,0.9,0.1,1.8,0.3,2.6H170
		c-0.1-0.6-0.2-1.2-0.2-1.8h-0.1C168.9,55.8,167.6,56.6,165.4,56.6"/>
	<path class="st1" d="M186.7,39v7.5h4c2.6,0,4.1-1,4.1-3.8c0-2.7-1.5-3.8-4.1-3.8H186.7z M183.1,36h8.2c4.4,0,7.1,2.6,7.1,6.8
		c0,4.2-2.7,6.8-7.1,6.8h-4.6v6.8h-3.6V36z"/>
	<path class="st1" d="M206.2,43.7c-2.1,0-3.4,1.6-3.4,4.4v1.3c0,2.8,1.3,4.4,3.4,4.4c2.2,0,3.4-1.6,3.4-4.4v-1.3
		C209.6,45.3,208.4,43.7,206.2,43.7 M206.2,40.9c4.2,0,6.8,3.1,6.8,7.8c0,4.8-2.6,7.9-6.8,7.9c-4.2,0-6.8-3.1-6.8-7.9
		C199.4,44,202,40.9,206.2,40.9"/>
	<path class="st1" d="M214.9,52h3.3c0.2,1.2,1.1,2.1,3,2.1c1.7,0,2.6-0.7,2.6-2c0-1-0.3-1.6-1.9-1.8l-2.5-0.3
		c-3.1-0.4-4.3-1.9-4.3-4.2c0-2.8,2.3-4.9,5.9-4.9c3.8,0,5.5,2.3,5.7,4.5h-3.2c-0.2-1.1-1-1.9-2.6-1.9c-1.6,0-2.6,0.7-2.6,2
		c0,0.9,0.5,1.4,2.1,1.7l2.5,0.3c2.9,0.4,4.1,1.8,4.1,4.3c0,3-2.4,4.9-5.9,4.9C217.2,56.6,215.1,54.6,214.9,52"/>
	<path class="st1" d="M237.3,56.3h-1.7c-3.3,0-5-1.5-5-4.4V44h-2.8v-2.7h2.9V36h3.3v5.3h3.3V44H234v7.6c0,1.4,0.7,1.9,2,1.9h1.3
		V56.3z"/>
</g>
</svg>
