<?xml version="1.0" encoding="utf-8"?>
<!-- Generator: Adobe Illustrator 24.0.1, SVG Export Plug-In . SVG Version: 6.00 Build 0)  -->
<svg version="1.1" id="Layer_1" xmlns="http://www.w3.org/2000/svg" xmlns:xlink="http://www.w3.org/1999/xlink" x="0px" y="0px"
	 viewBox="0 0 240 80" style="enable-background:new 0 0 240 80;" xml:space="preserve">
<style type="text/css">
	.st0{display:none;}
	.st1{fill-rule:evenodd;clip-rule:evenodd;}
	.st2{fill-rule:evenodd;clip-rule:evenodd;fill:#919395;}
	.st3{fill-rule:evenodd;clip-rule:evenodd;fill:#A6A8AB;}
</style>
<g id="guides" class="st0">
</g>
<path class="st1" d="M154.9,43C154.9,43,154.9,43,154.9,43c0.7-1.3,2-2.3,3.8-2.3c2.5,0,3.2,1.5,3.2,3.4c0,7.5,0,7.5,0,7.5
	c-2.3,0-2.3,0-2.3,0c0-6.9,0-6.9,0-6.9c0-1.3-0.4-2.1-1.6-2.1c-1.6,0-2.8,1.7-2.8,3.8c0,5.2,0,5.2,0,5.2c-2.3,0-2.3,0-2.3,0
	c0-8.9,0-8.9,0-8.9c-0.5-0.1-1.2-0.2-1.9-0.2c0-1.4,0-1.4,0-1.4c1.2-0.1,2.8-0.2,4.1-0.2C155.1,41.5,155,42.4,154.9,43z M144.7,42.6
	c-1.4,0-2.8,1.1-2.8,3.5c0,2.4,0.9,3.7,2.7,3.7c1.5,0,2.8-1.2,2.8-3.6C147.4,43.9,146.5,42.6,144.7,42.6z M144.4,51.8
	c-3,0-4.9-1.7-4.9-5.4c0-3.2,2.1-5.7,5.3-5.7c2.9,0,4.9,1.6,4.9,5.4C149.7,49.3,147.6,51.8,144.4,51.8z M134.3,42.7
	c-0.6-0.1-1.1-0.2-1.7-0.2c-1.8,0-3.1,1.1-3.1,4c0,2.1,0.7,3.4,2.1,3.4c1.7,0,2.7-2,2.7-3.9V42.7z M134.4,51.6c0-0.6,0-1.4,0.2-2
	c0,0,0,0,0,0c-0.6,1.3-1.8,2.2-3.5,2.2c-2.6,0-3.9-1.9-3.9-5c0-3.7,2.1-6.1,5.6-6.1c0.5,0,1,0,1.6,0.1c0-3.2,0-3.2,0-3.2
	c-0.5-0.1-1.2-0.2-1.9-0.2c0-1.4,0-1.4,0-1.4c1.2-0.1,2.7-0.2,4.1-0.2c0,13.9,0,13.9,0,13.9c0.5,0.1,1.2,0.2,1.9,0.2
	c0,1.4,0,1.4,0,1.4C137.2,51.6,135.7,51.7,134.4,51.6z M117.6,43C117.6,43,117.6,43,117.6,43c0.7-1.3,1.9-2.3,3.7-2.3
	c2.4,0,3.2,1.5,3.2,3.4c0,7.5,0,7.5,0,7.5c-2.3,0-2.3,0-2.3,0c0-6.9,0-6.9,0-6.9c0-1.3-0.4-2.1-1.6-2.1c-1.6,0-2.8,1.7-2.8,3.8
	c0,5.2,0,5.2,0,5.2c-2.3,0-2.3,0-2.3,0c0-8.9,0-8.9,0-8.9c-0.5-0.1-1.2-0.2-1.9-0.2c0-1.4,0-1.4,0-1.4c1.2-0.1,2.8-0.2,4.1-0.2
	C117.8,41.5,117.7,42.4,117.6,43z M107.9,42.4c-1.3,0-2.2,0.9-2.4,2.4c4.5,0,4.5,0,4.5,0C110.1,43.3,109.2,42.4,107.9,42.4z
	 M112.3,46.4c-6.8,0-6.8,0-6.8,0c-0.1,2.5,1,3.6,3.2,3.6c1.1,0,2.2-0.3,3.1-0.7c0.2,1.8,0.2,1.8,0.2,1.8c-1.1,0.5-2.4,0.7-3.7,0.7
	c-3.3,0-5.2-1.7-5.2-5.5c0-3.2,1.8-5.6,4.9-5.6c3.1,0,4.4,2.1,4.4,4.6C112.3,45.6,112.3,46,112.3,46.4z M98.4,43.3
	C98.5,43.3,98.5,43.3,98.4,43.3c0.5-1.4,1.6-2.8,3.6-2.6c-0.1,2.3-0.1,2.3-0.1,2.3c-2.1-0.4-3.2,1.1-3.2,4.3c0,4.3,0,4.3,0,4.3
	c-2.3,0-2.3,0-2.3,0c0-8.9,0-8.9,0-8.9c-0.5-0.1-1.2-0.2-1.9-0.2c0-1.4,0-1.4,0-1.4c1.2-0.1,2.8-0.2,4.1-0.2
	C98.7,41.5,98.6,42.4,98.4,43.3z M89.7,46.8c-3.4,0-4.1,1-4.1,1.9c0,0.8,0.6,1.3,1.5,1.3c1.6,0,2.6-1.5,2.6-3V46.8z M89.8,51.6
	c0-0.7,0-1.4,0.1-2c0,0,0,0,0,0c-0.5,1.3-1.9,2.2-3.5,2.2c-1.8,0-3-1-3-2.7c0-2.4,2.5-3.9,6.3-3.9c0-0.7,0-0.7,0-0.7
	c0-1.3-0.6-2-2.2-2c-1,0-2.3,0.3-3.2,0.9c-0.2-2-0.2-2-0.2-2c1-0.4,2.4-0.7,3.8-0.7c3.3,0,4.2,1.4,4.2,3.6c0,5.5,0,5.5,0,5.5
	c0.5,0.1,1.2,0.2,1.9,0.2c0,1.4,0,1.4,0,1.4C92.6,51.6,91,51.7,89.8,51.6z M80.7,51.6c-2.3,0-2.3,0-2.3,0c0-13.9,0-13.9,0-13.9
	c-0.5-0.1-1.3-0.2-1.9-0.2c0-1.4,0-1.4,0-1.4c1.2-0.1,2.8-0.2,4.2-0.2V51.6z M71.8,51.8c-4.9,0-6.7-3.2-6.7-7c0-4.5,2.3-7.8,7.2-7.8
	c1.1,0,2.2,0.2,3.2,0.4c-0.2,2.2-0.2,2.2-0.2,2.2c-1-0.3-2.1-0.5-3.2-0.5c-3,0-4.4,2.3-4.4,5.4c0,3.4,1.4,5.3,4.6,5.3
	c1,0,2.3-0.3,3.1-0.7c0.3,2.1,0.3,2.1,0.3,2.1C74.6,51.5,73.2,51.8,71.8,51.8z M160.2,58c-0.6,0-1,0.4-1,1.1c2,0,2,0,2,0
	C161.1,58.4,160.8,58,160.2,58z M162.1,59.7c-3,0-3,0-3,0c0,1.1,0.5,1.6,1.4,1.6c0.5,0,1-0.1,1.4-0.3c0.1,0.8,0.1,0.8,0.1,0.8
	c-0.5,0.2-1,0.3-1.6,0.3c-1.5,0-2.3-0.8-2.3-2.4c0-1.4,0.8-2.5,2.1-2.5c1.4,0,1.9,0.9,1.9,2C162.1,59.4,162.1,59.6,162.1,59.7z
	 M156,58.1c-0.2-0.1-0.5-0.1-0.7-0.1c-0.8,0-1.4,0.5-1.4,1.8c0,1,0.3,1.5,0.9,1.5c0.8,0,1.2-0.9,1.2-1.7V58.1z M154.5,64.4
	c-0.5,0-1-0.1-1.4-0.2c0.1-1,0.1-1,0.1-1c0.4,0.2,0.9,0.3,1.4,0.3c0.9,0,1.5-0.3,1.5-1.3c0-0.3,0-0.3,0-0.3c0-0.3,0-0.5,0.1-0.8
	c0,0,0,0,0,0c-0.3,0.6-0.8,1-1.5,1c-1.1,0-1.8-0.8-1.8-2.2c0-1.6,0.9-2.7,2.5-2.7c0.6,0,1.2,0,1.7,0.1c0,4.9,0,4.9,0,4.9
	C157,63.3,156.5,64.4,154.5,64.4z M150.1,58c-0.6,0-1,0.4-1.1,1.1c2,0,2,0,2,0C151,58.4,150.7,58,150.1,58z M152,59.7c-3,0-3,0-3,0
	c0,1.1,0.5,1.6,1.4,1.6c0.5,0,1-0.1,1.4-0.3c0.1,0.8,0.1,0.8,0.1,0.8c-0.5,0.2-1,0.3-1.6,0.3c-1.5,0-2.3-0.8-2.3-2.4
	c0-1.4,0.8-2.5,2.1-2.5c1.3,0,1.9,0.9,1.9,2C152,59.4,152,59.6,152,59.7z M146.8,62c-1,0-1,0-1,0c0-6.1,0-6.1,0-6.1
	c-0.2,0-0.6-0.1-0.8-0.1c0-0.6,0-0.6,0-0.6c0.5-0.1,1.2-0.1,1.8-0.1V62z M144.2,62c-1,0-1,0-1,0c0-6.1,0-6.1,0-6.1
	c-0.2,0-0.5-0.1-0.8-0.1c0-0.6,0-0.6,0-0.6c0.5-0.1,1.2-0.1,1.8-0.1V62z M139.8,58.1c-0.6,0-1.2,0.5-1.2,1.6c0,1,0.4,1.6,1.2,1.6
	c0.7,0,1.2-0.5,1.2-1.6C141,58.7,140.6,58.1,139.8,58.1z M139.7,62.1c-1.3,0-2.2-0.7-2.2-2.4c0-1.4,0.9-2.5,2.3-2.5
	c1.3,0,2.2,0.7,2.2,2.4C142,61,141.1,62.1,139.7,62.1z M135.2,62.1c-2.1,0-2.9-1.4-2.9-3.1c0-2,1-3.4,3.2-3.4c0.5,0,1,0.1,1.4,0.2
	c-0.1,0.9-0.1,0.9-0.1,0.9c-0.5-0.1-0.9-0.2-1.4-0.2c-1.3,0-1.9,1-1.9,2.4c0,1.5,0.6,2.3,2,2.3c0.4,0,1-0.1,1.3-0.3
	c0.1,0.9,0.1,0.9,0.1,0.9C136.4,62,135.8,62.1,135.2,62.1z M126,32.8c-1,0-1.3-0.4-1.3-1.4c0-2.6,0-2.6,0-2.6c-0.9,0-0.9,0-0.9,0
	c0-0.8,0-0.8,0-0.8c0.9,0,0.9,0,0.9,0c0-1.5,0-1.5,0-1.5c1-0.3,1-0.3,1-0.3c0,1.8,0,1.8,0,1.8c1.3,0,1.3,0,1.3,0c0,0.8,0,0.8,0,0.8
	c-1.2,0-1.2,0-1.2,0c0,2.3,0,2.3,0,2.3c0,0.7,0.1,0.9,0.6,0.9c0.2,0,0.4,0,0.6-0.1c0,0.8,0,0.8,0,0.8
	C126.7,32.8,126.3,32.8,126,32.8z M121.8,30.6c-1.5,0-1.8,0.5-1.8,0.9c0,0.3,0.2,0.6,0.6,0.6C121.3,32,121.8,31.4,121.8,30.6
	L121.8,30.6z M121.8,32.8c0-0.3,0-0.6,0-0.9c0,0,0,0,0,0c-0.2,0.6-0.8,1-1.6,1c-0.8,0-1.3-0.5-1.3-1.2c0-1.1,1.1-1.7,2.8-1.7
	c0-0.3,0-0.3,0-0.3c0-0.6-0.2-0.9-1-0.9c-0.4,0-1,0.1-1.4,0.4c-0.1-0.9-0.1-0.9-0.1-0.9c0.5-0.2,1.1-0.3,1.7-0.3
	c1.4,0,1.8,0.6,1.8,1.6c0,2.4,0,2.4,0,2.4c0.2,0,0.6,0.1,0.8,0.1c0,0.6,0,0.6,0,0.6C123.1,32.7,122.4,32.8,121.8,32.8z M117,29.1
	C117.1,29.1,117.1,29.1,117,29.1c0.2-0.6,0.7-1.2,1.6-1.1c-0.1,1-0.1,1-0.1,1c-0.9-0.2-1.4,0.5-1.4,1.9c0,1.9,0,1.9,0,1.9
	c-1,0-1,0-1,0c0-3.9,0-3.9,0-3.9c-0.2,0-0.5-0.1-0.8-0.1c0-0.6,0-0.6,0-0.6c0.5-0.1,1.2-0.1,1.8-0.1C117.1,28.3,117.1,28.7,117,29.1
	z M113.2,30.6c-1.5,0-1.8,0.5-1.8,0.9c0,0.3,0.2,0.6,0.7,0.6C112.7,32,113.2,31.4,113.2,30.6L113.2,30.6z M113.2,32.8
	c0-0.3,0-0.6,0.1-0.9c0,0,0,0,0,0c-0.2,0.6-0.8,1-1.6,1c-0.8,0-1.3-0.5-1.3-1.2c0-1.1,1.1-1.7,2.8-1.7c0-0.3,0-0.3,0-0.3
	c0-0.6-0.2-0.9-1-0.9c-0.4,0-1,0.1-1.4,0.4c-0.1-0.9-0.1-0.9-0.1-0.9c0.5-0.2,1-0.3,1.7-0.3c1.4,0,1.8,0.6,1.8,1.6
	c0,2.4,0,2.4,0,2.4c0.2,0,0.6,0.1,0.8,0.1c0,0.6,0,0.6,0,0.6C114.5,32.7,113.8,32.8,113.2,32.8z M109.2,32.8c-1,0-1,0-1,0
	c0-6.1,0-6.1,0-6.1c-0.2,0-0.6-0.1-0.8-0.1c0-0.6,0-0.6,0-0.6c0.5-0.1,1.2-0.1,1.8-0.1V32.8z M106.6,32.8c-1,0-1,0-1,0
	c0-6.1,0-6.1,0-6.1c-0.2,0-0.5-0.1-0.8-0.1c0-0.6,0-0.6,0-0.6c0.5-0.1,1.2-0.1,1.9-0.1V32.8z M102.8,30.6c-1.5,0-1.8,0.5-1.8,0.9
	c0,0.3,0.2,0.6,0.6,0.6C102.3,32,102.8,31.4,102.8,30.6L102.8,30.6z M102.9,32.8c0-0.3,0-0.6,0-0.9c0,0,0,0,0,0
	c-0.2,0.6-0.8,1-1.6,1c-0.8,0-1.3-0.5-1.3-1.2c0-1.1,1.1-1.7,2.8-1.7c0-0.3,0-0.3,0-0.3c0-0.6-0.2-0.9-1-0.9c-0.4,0-1,0.1-1.4,0.4
	c-0.1-0.9-0.1-0.9-0.1-0.9c0.5-0.2,1-0.3,1.7-0.3c1.4,0,1.8,0.6,1.8,1.6c0,2.4,0,2.4,0,2.4c0.2,0,0.5,0.1,0.8,0.1c0,0.6,0,0.6,0,0.6
	C104.1,32.7,103.4,32.8,102.9,32.8z M96.5,29.8c-0.1,0-0.4,0-0.6,0c0,2,0,2,0,2c0.2,0,0.4,0.1,0.8,0.1c0.9,0,1.4-0.5,1.4-1.1
	C98.1,30.1,97.4,29.8,96.5,29.8z M96.8,27.1c-0.3,0-0.5,0-0.8,0c0,1.9,0,1.9,0,1.9c0.2,0,0.3,0,0.5,0c1,0,1.5-0.4,1.5-1
	C98,27.5,97.7,27.1,96.8,27.1z M96.7,32.8c-0.4,0-1,0-1.7,0c0-6.4,0-6.4,0-6.4c0.5,0,1.2,0,2,0c1.4,0,2.1,0.6,2.1,1.6
	c0,0.7-0.4,1.2-1.1,1.5c0,0,0,0,0,0c0.8,0.2,1.2,0.8,1.2,1.5C99.2,31.6,98.6,32.8,96.7,32.8z"/>
<rect x="134.3" y="30.6" class="st2" width="12.2" height="2.2"/>
<polygon class="st1" points="132.4,9.2 140.5,9.2 140.5,18.5 132.4,24.1 "/>
<polygon class="st2" points="148.4,9.2 140.5,9.2 140.5,18.5 148.4,24.1 "/>
<polygon class="st3" points="140.4,29.8 132.4,24.1 140.5,18.5 148.4,24.1 "/>
</svg>
