<?xml version="1.0" encoding="utf-8"?>
<!-- Generator: Adobe Illustrator 24.0.1, SVG Export Plug-In . SVG Version: 6.00 Build 0)  -->
<svg version="1.1" id="Layer_1" xmlns="http://www.w3.org/2000/svg" xmlns:xlink="http://www.w3.org/1999/xlink" x="0px" y="0px"
	 viewBox="0 0 240 80" style="enable-background:new 0 0 240 80;" xml:space="preserve">
<style type="text/css">
	.st0{display:none;}
	.st1{fill:#3F4042;}
</style>
<g id="guides" class="st0">
</g>
<g>
	<path class="st1" d="M149.8,29.1c1.3,1-2.3,5.7-4.8,6C144.6,32.6,148.3,27.9,149.8,29.1 M92.1,21.5c5-6.7,10.3-11.6,12.4-11.8
		c1.7-0.2,1,6.1-5,14.1c-4.5,6.1-10.4,10.7-15.4,12.5C86.7,30.2,89.8,24.6,92.1,21.5z M104.2,49.3c-0.4,1.5-1.1,2.7-1.8,3.7
		c-1,1.2-2.1,1.7-3.1,1.4c-0.6-0.2-1-0.7-1.4-1.4c-0.6-1.4-0.7-3.5,0-5.8c1-3.4,3.2-5.6,4.9-5.1C104.5,42.7,105.1,45.9,104.2,49.3z
		 M118.8,45.6c-1,3.4-3.2,5.6-4.9,5.1c-1.7-0.6-2.4-3.8-1.4-7.2c1-3.4,3.2-5.6,4.9-5.1C119.2,39,119.8,42.2,118.8,45.6z M104.9,52.9
		c1.8-2.8,3-6.4,4.1-6.6c-0.6,2.6-0.4,5,0.5,6.4l0.2,0.3c0.3,0.4,0.7,0.7,1.1,1c1.4,0.8,3.3,0.4,5.2-1l0.3-0.3
		c1.1-0.9,2.2-2.1,3.2-3.5c1.8-2.8,2.8-6.5,5.2-6.8l-5.3,13.3c-22.1,8-36.6,17.3-36.6,17.3s17.4-7.7,35.1-13.5l-1.6,4l4.4-1.2
		c0,0,0.7-1.7,1.7-4.2c2.4-0.7,4.8-1.4,7.1-2c19-5.1,36.9-5.4,36.9-5.4l2.5-4.7c0,0-17.4-0.7-43.1,7.6c-0.6,0.2-1.3,0.4-1.9,0.6
		c0.2-0.4,0.3-0.8,0.5-1.2c2-4.9,4.3-10.8,6-14.7c0,0,1.9-4,3.8-4.1c3-0.3-3.3,8.5-2.6,12.4c0.7,4.4,7.1,0,8.2-2.2
		c0.8,1,2.4,1.5,4.9,1.2c2.4-0.3,4.7-2.6,5.1-3.1l-0.7,1.7l4.1-1.1l6-15.1c0,0,0.4-0.3,0.7-0.1c0.7,0.6-0.2,2.6,2.2,2.3
		c2-0.2,4.2-3.6,4.2-3.6s0.3,0.5,0.4,1.3c0.4,2.8-1,6.6-2,8.2c-2.8,4.4-5.4,2.6-5.4,2.1c0-1.1,1-1.4,1.8-1.5
		c-1.7-1.2-4.2,0.2-4.1,2.1c0.1,3,5.6,4,10.3-1.1c0.3-0.3,0.3-0.4,0.6-0.8c2.5-3.3,2.8-7,2.5-9c-0.4-2.7-0.4-1.6-0.9-4.3
		c-0.6-3.5,0.6-5.2,0.6-5.2l-0.7-0.3c-0.6,0.8-1.5,3.7-2.7,5.5c-0.7,0.9-1.4,1.3-1.4,1.3c-0.8-0.6,0-2.6-1.6-2.4
		c-1.5,0.2-2.4,1.1-3.1,2.1c-1-0.2-3,0-3.9,0.4L151.8,37c0,0-3.3,5.6-6.9,6c-1.3,0.1-2.1-0.3-2.3-1.9c-0.3-1.6,0.7-2.4,0.7-2.4
		s4.6-1.6,7.5-5.3c2.7-3.6,2.5-7-1-6.6c-1,0.1-3.6,0.8-6.6,4.9c-1.5,2-4.8,3-4.3,10.7c-0.5,1.5-1.9,2.6-2.4,2.7
		c-2.9,0.3,3.5-9,2.8-13.1c-0.2-1.3-1.5-1.5-2.3-1.4c-1.7,0.2-3.1,1-4.2,1.8l3.5-8.7l-4.4,1.2l-4.4,11.1c0,0-1.6,4.7-4.7,5
		c0.2-2.7-0.5-4.9-2-5.7c-2.7-1.5-7,1.3-9.7,6.4c-0.9,1.5-1.7,2.8-2.9,3c0.2-2.7-0.5-4.8-2.1-5.7c-2.1-1.2-5.3,0.4-7.9,3.6
		c-3.7,4.9-3.3,8.4-6.3,8.7c1.5-5.2,1.6-10.2,0-11.4c-1.4-1.1-4.6-0.8-7.3,2.8c-3.5,4.7-2.1,9.5-2.1,9.5s1.6-5.9,4-6.2
		c0.7-0.1,1.8,0.1,2.3,3.1c0.2,1.1,0.1,2.6-0.3,4.2c-0.8,3.2-2.6,6.6-5.4,6.9c-2,0.2-2.7-1.6-3-3.8c-0.2-1-0.2-2-0.2-3.2
		c0.2-3.9,1.5-8.7,3.2-13.5c7.1-1.7,15.4-8.8,21.1-16.4c10.1-13.5,5.8-16.4,3.1-16.1c-7,0.8-14.9,8.9-20.4,16.3
		c-2.2,2.9-5.5,7.9-8.2,13.6c-4-1.5-6.8-7.8-2.7-13.4c2-2.7,3.7-3.5,3.7-3.5s-3.7-0.1-6,3c-5,6.7-3,14.9,3.8,16.5
		c-1.7,4.2-3,8.8-3.2,13.4c-0.1,1.8,0,3.5,0.3,5.2c0.7,4.6,3.4,7,6,6.7c2.8-0.3,5.2-2,7.1-4.4c1.3-1.8,3.4-6.1,5.4-7.5h0
		c0.4-0.3,0.8-0.4,1.1-0.5c0,0.2,0,0.3,0,0.5v0c0,2.3,0.7,4,2.1,4.8C98.5,59.1,102.1,57,104.9,52.9L104.9,52.9z"/>
</g>
</svg>
