<?xml version="1.0" encoding="utf-8"?>
<!-- Generator: Adobe Illustrator 24.0.1, SVG Export Plug-In . SVG Version: 6.00 Build 0)  -->
<svg version="1.1" id="Layer_1" xmlns="http://www.w3.org/2000/svg" xmlns:xlink="http://www.w3.org/1999/xlink" x="0px" y="0px"
	 viewBox="0 0 240 80" style="enable-background:new 0 0 240 80;" xml:space="preserve">
<style type="text/css">
	.st0{display:none;}
	.st1{fill:#3F4042;}
</style>
<g id="guides" class="st0">
</g>
<g id="guides_1_" class="st0">
</g>
<g>
	<path class="st1" d="M77.7,39.3c-4.2-0.4-5.6-1.2-5.6-2.7c0-1.4,1.7-2.3,4.9-2.3c2.8-0.1,5.6,0.8,7.8,2.4l3.5-3.5c0,0,0,0-0.1-0.1
		c-3.1-2.5-6.9-3.9-10.9-3.9c-6.1,0-10.5,3-10.5,7.6c0,5.3,4.1,7.1,10.4,7.6c4.7,0.4,6.4,1.2,6.4,3c0,1.7-1.7,2.9-5.7,2.9
		c-3.5,0-5.8-0.8-8.3-2.6l-3.5,3.6l0.1,0c3.4,2.8,7,3.9,11.6,3.9c6.4,0,11.1-2.9,11.1-8C88.9,42,84.2,39.9,77.7,39.3 M58.2,54.8H64
		V29.7h-5.8V54.8L58.2,54.8z M61.1,19.9c-1.8,0-3.3,1.4-3.3,3.3c0,1.8,1.4,3.3,3.3,3.3c1.8,0,3.3-1.4,3.3-3.2
		C64.3,21.4,62.9,19.9,61.1,19.9 M103.2,29.3c-7.2,0-13,5.8-13.1,13c0,7.2,5.8,13,13,13.1c7.2,0,13-5.8,13.1-13v0
		C116.2,35.1,110.3,29.2,103.2,29.3 M103.3,49.6c-4,0-7.3-3.3-7.3-7.3c0-4,3.3-7.3,7.3-7.3c4,0,7.3,3.3,7.3,7.3l0,0
		C110.7,46.3,107.4,49.6,103.3,49.6C103.4,49.6,103.3,49.6,103.3,49.6 M131.1,29.3L131.1,29.3c-2.6,0-5,0.9-7,2.6v0V19.2l-5.9,5.9
		v29.7h5.5l0.1-2.1c2.1,2,4.1,2.6,7.1,2.7h0.1c3.2-0.1,6.2-1.5,8.4-3.8c2.4-2.4,3.8-5.7,3.8-9.2C143.2,35.3,137.7,29.3,131.1,29.3
		 M130.2,49.6c-2.4,0-4.6-1.2-6-3.1l0-0.1v-8.2l0-0.1c2.3-3.3,6.9-4.1,10.2-1.8c3.3,2.3,4.1,6.9,1.8,10.2
		C134.9,48.4,132.6,49.6,130.2,49.6 M156.3,29.3c-2.8-0.1-5.6,0.7-7.8,2.4c-0.4,0.3-0.8,0.7-1.2,1.1l3.2,3.2
		c1.2-1.2,3.2-1.9,5.6-1.9c3.3,0,5.3,2.2,5.3,4.4v0.9h-5.5c-7.6,0-11.6,2.8-11.6,7.9c0,4.6,3.8,7.8,9.2,7.8c3.2,0,5.5-0.1,7.5-2.1
		l0.6-0.6v2.4h5.7V38.5C167.1,32.9,162.9,29.3,156.3,29.3 M161.4,45.1c0,3.3-2.6,5.4-6.7,5.4c-2.7,0-4.4-1.3-4.4-3.3
		c0-2.3,1.9-3.5,5.7-3.5h5.3L161.4,45.1L161.4,45.1z M176.2,33v-0.7v-2.6l-5.7,0v25.1h5.9V40.6l0,0c0.1-4.3,3.2-5.2,6.1-5.4v-6
		C178.6,29.5,176.5,31.7,176.2,33"/>
</g>
</svg>
