<?xml version="1.0" encoding="utf-8"?>
<!-- Generator: Adobe Illustrator 24.0.3, SVG Export Plug-In . SVG Version: 6.00 Build 0)  -->
<svg version="1.1" id="Layer_1" xmlns="http://www.w3.org/2000/svg" xmlns:xlink="http://www.w3.org/1999/xlink" x="0px" y="0px"
	 viewBox="0 0 240 80" style="enable-background:new 0 0 240 80;" xml:space="preserve">
<style type="text/css">
	.st0{display:none;}
	.st1{fill:#636363;}
	.st2{fill-rule:evenodd;clip-rule:evenodd;fill:#9B9B9B;}
</style>
<g id="guides" class="st0">
</g>
<g id="guides_1_" class="st0">
</g>
<g>
	<g>
		<path class="st1" d="M131.8,37.6h-5.7v12.2c0,2.2,1.3,2.7,3.3,2.7c0.8,0,1.6-0.1,2.4-0.1v6.7c-1.7,0.1-3.3,0.3-5,0.3
			c-7.8,0-9.8-2.3-9.8-9.9V37.6h-4.6v-6.2h4.6v-8.8h9.2v8.8h5.7V37.6z"/>
	</g>
	<path class="st1" d="M83,47.5c0,8.2-4.2,12.3-12.8,12.3c-9.7,0-12.8-5.6-12.8-13.7v-1.6h9v3.4c0,2.4,1.3,3.7,3.7,3.7
		c2.2,0,3.4-1.2,3.4-4.8V22.5H83V47.5z"/>
	<path class="st1" d="M93,47.3c0.2,3.8,2.4,6.3,6.2,6.3c2.2,0,4.3-1,5.2-3.1h8.5c-1.7,6.4-7.6,9.2-13.8,9.2c-9,0-15.2-5.5-15.2-14.8
		c0-8.5,6.8-14.6,15-14.6c10,0,14.9,7.5,14.5,16.9H93z M104.3,42.3c-0.2-3.1-2.4-5.7-5.4-5.7c-3.2,0-5.4,2.3-5.9,5.7H104.3z"/>
	<polygon class="st2" points="162.1,18.1 162.9,31.4 181.3,31.4 163.7,43 167.6,62.2 152.6,49.2 132.5,59.7 144.5,43.2 133.2,31.4 
		151.6,31.4 162.1,18.1 	"/>
</g>
</svg>
