<?xml version="1.0" encoding="utf-8"?>
<!-- Generator: Adobe Illustrator 25.4.1, SVG Export Plug-In . SVG Version: 6.00 Build 0)  -->
<svg version="1.1" id="Layer_1" xmlns="http://www.w3.org/2000/svg" xmlns:xlink="http://www.w3.org/1999/xlink" x="0px" y="0px"
	 viewBox="0 0 282.2 32.6" style="enable-background:new 0 0 282.2 32.6;" xml:space="preserve">
<style type="text/css">
	.st0{fill:#F3702B;}
	.st1{fill:#FFFFFF;}
	.st2{fill:#004A8F;}
	.st3{fill:#848484;}
</style>
<g>
	<g>
		<g id="Page-1_00000092454632422236788420000003626985275909951882_">
			<g id="TFA_Logo_CMYK_00000124868983575726443330000003875181139048898464_" transform="translate(-1.000000, 0.000000)">
				<g id="tfa-logo_00000051373753717100103630000001085330278969523128_">
					<path id="Shape_00000013888240902411870400000015612874164243093407_" class="st0" d="M30.7,15.8c0,7.9-6.4,14.2-14.2,14.2
						C8.6,30,2.3,23.6,2.3,15.8S8.6,1.6,16.4,1.6c3.8,0,7.4,1.5,10.1,4.2S30.7,12,30.7,15.8"/>
					<path id="Shape_00000024723112902341313880000002031711774852235690_" class="st1" d="M12.8,8.2c0,0.6,0.4,1.1,1,1.3
						s1.2,0,1.6-0.4c0.4-0.4,0.5-1.1,0.2-1.6s-0.8-0.9-1.4-0.8C13.3,6.7,12.7,7.4,12.8,8.2"/>
					<path id="Shape_00000055677988005359891400000007840154542041009564_" class="st1" d="M22.9,11.7c0,0.6-0.5,1.1-1.1,1.1
						s-1.1-0.5-1.1-1.1s0.5-1.1,1.1-1.1S22.9,11.2,22.9,11.7"/>
					<path id="Shape_00000094583193226532238080000008974737450119388327_" class="st1" d="M21.6,15.3c0.8,1.2,0.6,2.4,0.3,4.7
						c0.4,0.1,0.8,0.1,1.2,0.1c0.3,0,0.6,0,0.9,0s0.4,0,0.6,0c0.1,0,0.2,0,0.3,0c0.2-2-0.4-2.9-0.8-4.3c-0.2-0.5-0.7-1,0.1-2.2
						c0.7-1.1,1.8-1.9,1.3-2.4c-0.7-0.6-1.1,0.5-2,1.5c-0.5,0.7-1.3,1.1-2.1,1c-0.7,0-1.3-0.2-1.9-0.6C18.8,12.6,18,12.3,18,13
						C18.1,13.6,21,14.6,21.6,15.3"/>
					<path id="Shape_00000122694898745613247820000012361903375676121240_" class="st1" d="M15.6,16.4c-0.5-0.2-1-0.3-1.5-0.3
						c0.3,0.4,0.6,0.9,0.8,1.4c0.4,0.1,0.7,0.2,1.1,0.3C16.1,17.3,16,16.6,15.6,16.4"/>
					<path id="Shape_00000119115636222702215170000014187658839119605935_" class="st1" d="M17,9.2c-0.9,0.6-2.1,1.2-2.8,1.2
						c-1,0-1.6-0.1-3.4-1.6C9.8,8,8.6,6.5,8,7.4c-0.3,0.5,1.3,1.8,2.2,2.4c0.9,0.7,1.6,1.5,1.3,1.9c-0.6,0.8-1.3,1.5-2,2.1l0,0
						c1.4,0,2.8,0.5,3.9,1.5c0.5-1.4,0.8-2.5,1.1-2.9C15,11.8,19,10,19.1,9.2C19.1,8.1,18,8.7,17,9.2"/>
					<path id="Shape_00000121237472614354024770000014466247386632077455_" class="st1" d="M6.4,17.5C7,16.6,8.1,16,9.2,15.9
						s2.3,0.3,3.1,1.1l0.6,0.1H13l0.9,0.2c-0.9-1.7-2.8-2.8-4.8-2.6S5.4,16.2,4.8,18C5.4,17.8,5.9,17.6,6.4,17.5"/>
					<path id="Shape_00000051342745062222931730000014474354634281864887_" class="st1" d="M16.4,32.6C10,32.7,4.1,28.9,1.3,23.1
						c-0.4-0.8-0.4-1.7,0-2.5c1-2.1,4.9-3.2,6.5-3.5C8,17,8.3,16.9,8.5,16.9s0.6-0.1,0.8-0.1h0.2h0.7h0.1c0.6,0,1.2,0,1.8,0.1h0.2
						c0.2,0,0.5,0.1,0.7,0.1h0.1c2.1,0.3,4.1,1,6,1.9c1.2,0.7,2.6,1.1,4,1.1c0.3,0,0.6,0,0.9,0s0.5,0,0.7,0c0.7,0,1.5,0.3,1.9,0.9
						c0.2-0.4,0.3-0.7,0.5-1c0.6-1.3,1.2-2.6,2.7-2.6c0.9,0,1.8,0.5,2.3,1.3c0.5,0.8,0.6,1.8,0.2,2.8C29.9,28.1,23.6,32.6,16.4,32.6
						"/>
					<path id="Shape_00000147899121918202739040000009653027455950481061_" class="st2" d="M2.2,22.6c2.7,5.6,7.9,9,14.2,9
						c6.7,0,12.7-4.2,14.9-10.6c0.6-2.4-1.2-2.8-1.2-2.8c-1.8-0.3-1.8,2.1-3.6,4.6c-4.8,6.4-15-3.5-9.4-0.4c5.9,3.4,9.4,0.1,8.8-0.9
						c-0.9-1.6-2.3,0.7-7.2-1.8c-1.8-0.8-3.8-1.4-5.7-1.8h-0.1c-0.2,0-0.4-0.1-0.7-0.1h-0.1c-0.5-0.1-1-0.1-1.6-0.2h-0.2H9.6H9.4
						c-0.3,0-0.5,0-0.8,0.1C8.4,17.9,8.2,18,8,18C7,18.2,0.8,19.7,2.2,22.6"/>
				</g>
			</g>
		</g>
		<g>
			<path class="st1" d="M37.4,11.9V13h3.3v7.6c0,1.1,0.7,1.9,1.7,1.9h1.2V13h1.8c0.9,0,1.7-0.9,1.7-1.6v-1h-8
				C38.1,10.3,37.4,11.1,37.4,11.9z"/>
			<path class="st1" d="M53.4,10.1c-3.5,0-5.8,2.5-5.8,6.4c0,3.5,2.4,6.1,5.5,6.1c3.5,0,5.8-2.6,5.8-6.4
				C58.9,12.2,56.1,10.1,53.4,10.1z M53.2,12.8c2.3,0,2.8,2,2.8,3.7c0,2.2-0.9,3.5-2.6,3.5c-1.2,0-2.8-0.4-2.8-3.8
				C50.6,14.2,51.6,12.8,53.2,12.8z"/>
			<path class="st1" d="M68.9,10.3h-1.2V17c0,2.4-1,2.8-2,2.8c-1.5,0-2.2-0.8-2.2-2.8v-4.2c0-2.3-1.3-2.4-1.7-2.4h-1.2v6.8
				c0,3.4,1.9,5.5,4.9,5.5c3.3,0,5.1-2,5.1-5.7v-4.2C70.7,10.6,69.5,10.3,68.9,10.3z"/>
			<path class="st1" d="M82.1,21.5c-0.1-0.2-0.4-0.5-0.6-1l-0.9-2.1c-0.2-0.6-0.6-1-0.9-1.4c1.1-0.5,1.9-1.7,1.9-3.1
				c0-2.1-1.7-3.6-4.1-3.6h-1.3c-0.9,0-2.5,0.2-3,0.4L73,10.8v9.8c0,1.1,0.7,1.9,1.9,1.9H76v-4.6c0.2,0,0.5,0.1,0.7,0.1
				c0.6,0.1,0.9,0.2,1.3,1.2l0.8,2.1c0.3,0.8,1,1.2,2,1.2c0.7,0,1-0.1,1.3-0.5l0.2-0.2l-0.1-0.2C82.2,21.6,82.2,21.5,82.1,21.5z
				 M78.6,14.2c0,0.9-0.7,1.2-1.4,1.2c-0.5,0-0.9,0-1.3-0.1v-2.5c0.2,0,0.5-0.1,0.7-0.1h0.6C78.1,12.9,78.6,13.1,78.6,14.2z"/>
			<path class="st1" d="M85.2,10.3h-1.4v10.2c0,1.2,0.9,1.8,1.7,1.8h1.2V11.9C86.7,11,85.9,10.3,85.2,10.3z"/>
			<path class="st1" d="M94.1,15.2c-2.2-0.5-2.4-0.8-2.4-1.2c0-0.3,0-1.1,2.1-1.1c1.2,0,2.1,0.3,2.7,1l0.1,0.1h0.5v-1.4
				c0-0.6-0.3-2.4-3.8-2.4c-3,0-4.6,2.1-4.6,4c0,1.2,0.6,2.7,3.3,3.3c2.5,0.5,2.5,0.8,2.5,1.3c0,0.4,0,1.2-1.9,1.2
				c-1.1,0-2.1-0.4-3-1.1l-0.1-0.1H89V20c0,1.6,1.4,2.6,3.8,2.6c2.9,0,4.6-1.6,4.6-4.1C97.5,17.3,96.9,15.8,94.1,15.2z"/>
			<path class="st1" d="M110,10.3h-0.4l-0.1,0.1c-0.5,0.4-1.3,1.5-1.9,3.5l-1.3,4c-0.1-0.3-0.2-0.6-0.3-1l-1.6-4.5
				c-0.5-1.4-1.7-2.2-3.4-2.2h-0.8v0.3c-0.4,2.2-0.9,7.3-0.9,10c0,1.1,0.7,1.8,1.8,1.8h1.1V22c0-1.8,0.1-5,0.3-7
				c0.1,0.2,0.1,0.3,0.2,0.4l1.6,4.8c0.6,1.8,1.6,2,2.1,2h0.8l0.1-0.1c0.3-0.5,0.7-1.3,1-2.1l1.6-4.9V15c0.1,1.7,0.3,4.3,0.3,5.4
				c0,1.2,0.7,1.8,1.8,1.8h1.2v-0.3c0-2.4-0.3-7.4-0.6-9.1C112.4,11.3,111.4,10.3,110,10.3z"/>
			<path class="st1" d="M119.8,12.4v8.3c0,1,0.6,1.7,1.7,1.7h1.3v-4.9h2.6c0.7,0,1.4-0.5,1.4-1.5v-1h-4.1v-2.2h3.2
				c1.1,0,1.6-0.8,1.6-1.5v-1h-5.4C120.7,10.3,119.8,10.7,119.8,12.4z"/>
			<path class="st1" d="M134.1,10.1c-3.5,0-5.8,2.5-5.8,6.4c0,3.5,2.4,6.1,5.5,6.1c3.5,0,5.8-2.6,5.8-6.4
				C139.7,12.2,136.9,10.1,134.1,10.1z M133.9,12.8c2.3,0,2.8,2,2.8,3.7c0,2.2-0.9,3.5-2.6,3.5c-1.2,0-2.8-0.4-2.8-3.8
				C131.4,14.2,132.4,12.8,133.9,12.8z"/>
			<path class="st1" d="M150.8,21.5c-0.1-0.2-0.4-0.5-0.6-1l-0.9-2.1c-0.2-0.6-0.6-1-0.9-1.4c1.1-0.5,1.9-1.7,1.9-3.1
				c0-2.1-1.7-3.6-4.1-3.6h-1.3c-0.9,0-2.5,0.2-3,0.4l-0.2,0.1v9.8c0,1.1,0.7,1.9,1.9,1.9h1.1v-4.6c0.2,0,0.5,0.1,0.7,0.1
				c0.6,0.1,0.9,0.2,1.3,1.2l0.8,2.1c0.3,0.8,1,1.2,2,1.2c0.7,0,1-0.1,1.3-0.5l0.2-0.2L150.8,21.5C150.9,21.6,150.8,21.5,150.8,21.5
				z M147.3,14.2c0,0.9-0.7,1.2-1.4,1.2c-0.5,0-0.9,0-1.3-0.1v-2.5c0.2,0,0.5-0.1,0.7-0.1h0.6C146.8,12.9,147.3,13.1,147.3,14.2z"/>
			<path class="st1" d="M163.6,11.6c-0.4-0.8-1.2-1.2-2.1-1.2h-1.1l-0.1,0.1c-1.8,2-4,8.8-4,10.5c0,0.9,0.5,1.4,1.4,1.4h1.2v-0.3
				c0.2-0.9,0.3-1.8,0.5-2.6h4c0.1,0.4,0.2,0.9,0.3,1.5c0.1,0.7,0.7,1.4,1.9,1.4h1.3V22C166.4,18.4,164.6,13.4,163.6,11.6z
				 M162.8,17h-2.7c0.3-1.2,0.8-2.5,1.3-3.5C161.9,14.4,162.4,15.8,162.8,17z"/>
			<path class="st1" d="M173.5,19.8h-0.6c-1.5,0-1.8-0.4-1.8-2v-5.5c0-1.7-1.1-2-1.7-2h-1.3V18c0,2.9,1.6,4.6,4.5,4.6h0.9
				c1.9,0,2.7-0.6,2.7-2v-1.3l-0.5,0.2C175.3,19.6,174.4,19.8,173.5,19.8z"/>
			<path class="st1" d="M185.2,19.4c-0.5,0.2-1.3,0.4-2.3,0.4h-0.6c-1.5,0-1.8-0.4-1.8-2v-5.5c0-1.7-1.1-2-1.7-2h-1.3V18
				c0,2.9,1.6,4.6,4.5,4.6h0.9c1.9,0,2.7-0.6,2.7-2v-1.3L185.2,19.4z"/>
		</g>
	</g>
	<g>
		<path class="st1" d="M217.9,12.1h2.6v8.6h-1.7v-5.8c0-0.2,0-0.4,0-0.7s0-0.5,0-0.7l-1.6,7.2h-1.8l-1.6-7.2c0,0.2,0,0.4,0,0.7
			s0,0.5,0,0.7v5.8h-1.7v-8.6h2.6l1.6,6.8L217.9,12.1z"/>
		<path class="st1" d="M229.8,13.6h-4.6v1.8h4.2v1.5h-4.2v2.2h4.8v1.6h-6.5v-8.6h6.3V13.6z"/>
		<path class="st1" d="M238.3,12.1h2.6v8.6h-1.7v-5.8c0-0.2,0-0.4,0-0.7s0-0.5,0-0.7l-1.6,7.2h-1.8l-1.6-7.2c0,0.2,0,0.4,0,0.7
			s0,0.5,0,0.7v5.8h-1.7v-8.6h2.6l1.6,6.8L238.3,12.1z"/>
		<path class="st1" d="M250.3,13c0.3,0.4,0.4,0.8,0.4,1.3s-0.1,1-0.4,1.3c-0.1,0.2-0.4,0.3-0.7,0.5c0.4,0.2,0.8,0.4,1,0.8
			c0.2,0.3,0.3,0.8,0.3,1.3s-0.1,1-0.4,1.4c-0.2,0.3-0.4,0.5-0.6,0.7c-0.3,0.2-0.6,0.4-1,0.4c-0.4,0.1-0.8,0.1-1.2,0.1h-3.9v-8.6
			h4.2C249.1,12.1,249.9,12.4,250.3,13z M245.6,13.6v1.9h2.1c0.4,0,0.7-0.1,0.9-0.2c0.2-0.1,0.4-0.4,0.4-0.8c0-0.4-0.2-0.7-0.5-0.8
			s-0.6-0.1-1-0.1C247.5,13.6,245.6,13.6,245.6,13.6z M245.6,16.9v2.3h2.1c0.4,0,0.7-0.1,0.9-0.2c0.4-0.2,0.6-0.5,0.6-1.1
			c0-0.4-0.2-0.8-0.6-0.9c-0.2-0.1-0.5-0.1-0.9-0.1C247.7,16.9,245.6,16.9,245.6,16.9z"/>
		<path class="st1" d="M260,13.6h-4.6v1.8h4.2v1.5h-4.2v2.2h4.8v1.6h-6.5v-8.6h6.3V13.6z"/>
		<path class="st1" d="M268.3,12.3c0.3,0.1,0.6,0.3,0.8,0.6c0.2,0.2,0.3,0.5,0.4,0.7c0.1,0.3,0.2,0.6,0.2,0.9c0,0.4-0.1,0.8-0.3,1.2
			c-0.2,0.4-0.5,0.7-1,0.8c0.4,0.2,0.7,0.4,0.8,0.7s0.2,0.7,0.2,1.4v0.6c0,0.4,0,0.7,0,0.8c0,0.2,0.2,0.4,0.3,0.5v0.2h-2
			c-0.1-0.2-0.1-0.3-0.1-0.5s-0.1-0.5-0.1-0.7v-0.8c0-0.6-0.1-0.9-0.3-1.1s-0.5-0.3-1-0.3h-1.8v3.4h-1.8v-8.6h4.1
			C267.6,12.1,268,12.2,268.3,12.3z M264.6,13.6v2.3h1.9c0.4,0,0.7,0,0.9-0.1c0.3-0.2,0.5-0.5,0.5-1s-0.2-0.9-0.5-1.1
			c-0.2-0.1-0.5-0.2-0.8-0.2h-2V13.6z"/>
	</g>
	<rect x="198.1" y="0" class="st3" width="0.8" height="32.6"/>
</g>
</svg>
