<?xml version="1.0" encoding="utf-8"?>
<!-- Generator: Adobe Illustrator 25.4.1, SVG Export Plug-In . SVG Version: 6.00 Build 0)  -->
<svg version="1.1" id="Layer_1" xmlns="http://www.w3.org/2000/svg" xmlns:xlink="http://www.w3.org/1999/xlink" x="0px" y="0px"
	 viewBox="0 0 304.8 32.9" style="enable-background:new 0 0 304.8 32.9;" xml:space="preserve">
<style type="text/css">
	.st0{fill:#FFFFFF;}
	.st1{fill:#99CCEF;}
	.st2{fill:#00A03A;}
	.st3{fill:#006FB8;}
	.st4{fill:#F6A500;}
	.st5{fill:none;stroke:#FFFFFF;stroke-width:1.0594;}
	.st6{fill:#848484;}
</style>
<g>
	<g>
		<path class="st0" d="M33.4,18.9V11c0-1.4,0.5-2.4,1.4-3.1c1-0.7,2.5-1,4.6-1H47v2.4h-7.6h-1.2c-0.3,0-0.7,0.1-1.1,0.3
			c-0.4,0.2-0.6,0.5-0.8,1.1v0.4v2.7H47v2.4H36.4v2.2v1c0,0.1,0,0.3,0.1,0.5c0.3,0.4,0.6,0.7,1,0.8c0.4,0.1,1.1,0.2,2.2,0.2H47v2.4
			h-8.1c-1.8,0-3.2-0.4-4.1-1.1C33.8,21.5,33.4,20.4,33.4,18.9"/>
		<path class="st0" d="M50.3,23.3v-14c0-1.6,0.8-2.4,2.5-2.4h0.4c0.1,0,0.3,0,0.6,0.1c0.4,0.1,0.7,0.2,1,0.5
			c0.3,0.2,0.6,0.6,0.8,1.1l6.3,12V7h3v14.4c0,0.6-0.2,1.1-0.7,1.5c-0.4,0.4-1,0.6-1.7,0.7c-0.1,0-0.1,0-0.2,0h-0.2
			c-1.1,0-2-0.6-2.6-1.7l-6.2-11.7v13.1H50.3z"/>
		<path class="st0" d="M79.2,17.5l-3.4-7.4l-3.3,7.4H79.2z M66.5,23.3l6.9-14.8c0.5-1.1,1.3-1.7,2.3-1.7c0.3,0,0.7,0,1,0.1
			s0.6,0.3,0.8,0.5C77.7,7.6,78,8,78.2,8.5l6.9,14.8h-3.2l-1.6-3.4h-9l-1.6,3.4H66.5z"/>
		<polygon class="st0" points="85,9.4 85,7 97,7 97,9.4 92.5,9.4 92.5,23.3 89.5,23.3 89.5,9.4 		"/>
	</g>
	<g>
		<path class="st1" d="M10.2,5.8c2.8,2.8,5.2,5.9,7,9.3c0.3,0,0.6,0,0.9,0c0.8,0,1.5,0.2,2.2,0.5c0.2,0.1,0.5,0.2,0.7,0.3l0,0
			c-1-1.9,0-5,2.4-7.5c0.4-0.4,0.8-0.7,1.2-1c-0.7-0.8-1-1.9-1-3c0.1-1.4,0.7-2.6,1.7-3.3c-1.6-0.6-3.2-0.5-3.2-0.5l-9.7,0.2
			c-1.7,0.1-4.1,0.1-5.9,1.8C7.8,3.6,9,4.7,10.2,5.8"/>
		<path class="st2" d="M10.5,22c0.6-3.2,2.7-5.7,5.2-6.6c-1.8-3.1-4-6-6.6-8.5C8,5.8,6.7,4.7,5.5,3.7C5.2,4,5,4.5,4.8,5
			c-1.3,2.4-2.4,8-3.2,12.4C2.8,17.5,4,17.9,5,18.3C7.1,19.1,8.9,20.4,10.5,22"/>
		<path class="st0" d="M15.8,15.4c0.5-0.2,1-0.2,1.5-0.3c-1.9-3.4-4.3-6.5-7.1-9.3C9,4.7,7.8,3.6,6.4,2.5c-0.3,0.3-0.7,0.7-1,1.1
			c1.3,1,2.5,2.1,3.7,3.2C11.7,9.4,14,12.3,15.8,15.4"/>
		<path class="st3" d="M10.3,23.7c-1.8-2-3.9-3.6-6.5-4.5c-0.8-0.3-1.6-0.5-2.4-0.7c-0.5,2.8-0.7,4.9-0.7,4.9c-0.5,3.6,3,4,3,4H11
			C10.5,26.3,10.3,25,10.3,23.7"/>
		<path class="st0" d="M10.3,23.7c0-0.1,0-0.1,0-0.2c0-0.5,0.1-1,0.2-1.5c-1.6-1.6-3.4-2.9-5.5-3.7c-1-0.4-2.2-0.7-3.4-0.9
			c-0.1,0.4-0.1,0.7-0.2,1.1c0.8,0.2,1.7,0.4,2.4,0.7C6.4,20,8.5,21.7,10.3,23.7"/>
		<path class="st0" d="M11.4,22.9c0.2-4.4,3.4-7.9,7.1-7.7c0.6,0,1.1,0.2,1.7,0.4c-0.7-0.3-1.4-0.5-2.2-0.5c-0.3,0-0.6,0-0.9,0
			c-0.5,0-1,0.2-1.5,0.3C13,16.3,11,18.8,10.4,22c-0.1,0.5-0.2,1-0.2,1.5c0,0.1,0,0.1,0,0.2c0,1.3,0.2,2.6,0.6,3.7h1.4
			C11.7,26.1,11.4,24.6,11.4,22.9"/>
		<path class="st4" d="M16.4,24.3c0.2-3.7,2-6.8,4.5-8.5c-0.2-0.1-0.4-0.2-0.7-0.3c-0.5-0.2-1.1-0.3-1.7-0.4
			c-3.7-0.2-6.9,3.3-7.1,7.7c-0.1,1.6,0.2,3.2,0.9,4.5h4.3C16.4,26.4,16.3,25.4,16.4,24.3"/>
		<path class="st0" d="M23.5,8.7c0.3-0.5,0.7-0.9,1.1-1.3l-0.1-0.1c-0.4,0.3-0.8,0.6-1.2,1c-2.5,2.5-3.4,5.6-2.4,7.5
			c0.4-0.3,0.9-0.5,1.4-0.7C21.6,13.3,22,10.8,23.5,8.7"/>
		<path class="st4" d="M24.6,7.4c-0.4,0.4-0.8,0.8-1.1,1.3c-1.5,2.2-1.9,4.7-1.2,6.5c1-0.4,2-0.6,3-0.5c1,0,1.9,0.3,2.7,0.7
			c0.3-2.8,0.4-5.4,0.4-7.1c-0.5,0.2-1,0.4-1.6,0.3C26,8.5,25.2,8.1,24.6,7.4"/>
		<path class="st0" d="M22.3,15.2c-0.5,0.2-0.9,0.4-1.4,0.7l0,0c-2.5,1.6-4.3,4.8-4.5,8.5c-0.1,1.1,0,2.1,0.2,3.1h1.9
			c-0.3-1-0.4-2.2-0.3-3.3c0.3-5.1,3.9-9.1,8.2-8.9c0.6,0,1.1,0.1,1.6,0.3v-0.1c-0.8-0.4-1.8-0.7-2.7-0.7
			C24.3,14.6,23.3,14.8,22.3,15.2"/>
		<path class="st4" d="M18.2,24.1c-0.1,1.2,0.1,2.3,0.3,3.3h1.4c0,0,0.6,0.1,2.2,0c2.2-0.1,3.4-2,3.4-2c1.3-2.3,2.1-6.2,2.5-10
			c-0.5-0.2-1.1-0.3-1.6-0.3C22.1,15,18.5,18.9,18.2,24.1"/>
		<path class="st0" d="M23.6,4.3c-0.1,1.2,0.3,2.3,1,3l0.1,0.1c0.6,0.7,1.4,1.1,2.3,1.2c0.6,0,1.1-0.1,1.6-0.3c0-0.3,0-0.6,0-0.8
			c-0.4,0.2-0.8,0.3-1.3,0.2c-1.7-0.1-2.9-1.7-2.8-3.6c0.1-1.2,0.6-2.2,1.5-2.8c-0.2-0.1-0.4-0.2-0.6-0.3
			C24.3,1.7,23.6,2.9,23.6,4.3"/>
		<path class="st4" d="M24.4,4.1c-0.1,1.9,1.2,3.5,2.8,3.6c0.4,0,0.9-0.1,1.3-0.2c0-0.8,0-1.2,0-1.2c0.1-2.8-1.2-4.2-2.6-4.9
			C25.1,1.9,24.5,2.9,24.4,4.1"/>
		<path class="st5" d="M4.7,5c1.7-4.1,5.3-4.1,7.6-4.3L22,0.5c0,0,6.7-0.5,6.5,5.7c0,0,0.1,14.1-2.9,19.2c0,0-1.3,1.9-3.4,2
			c-1.7,0-2.3,0-2.3,0H3.6c0,0-3.5-0.4-3-4C0.6,23.4,2.4,9.2,4.7,5"/>
	</g>
	<g>
		<g>
			<path class="st0" d="M103.1,6.3h5.5v0.9h-4.5v2.3h4.1v0.9h-4.1V13h4.6v0.9h-5.6V6.3z"/>
			<path class="st0" d="M110.6,8.4V12c0,0.3,0,0.5,0.1,0.7c0.2,0.3,0.5,0.5,0.9,0.5c0.6,0,1.1-0.3,1.3-0.9c0.1-0.3,0.2-0.7,0.2-1.3
				V8.4h0.9v5.5h-0.9v-0.8c-0.1,0.2-0.3,0.4-0.4,0.5c-0.3,0.3-0.8,0.4-1.3,0.4c-0.8,0-1.3-0.3-1.6-0.8c-0.2-0.3-0.2-0.7-0.2-1.1V8.4
				H110.6z"/>
			<path class="st0" d="M115.5,8.4h0.9v1c0.1-0.2,0.2-0.4,0.5-0.7s0.6-0.4,1-0.4c0,0,0,0,0.1,0c0,0,0.1,0,0.2,0v1
				c-0.1,0-0.1,0-0.2,0c0,0-0.1,0-0.2,0c-0.5,0-0.8,0.1-1.1,0.4s-0.4,0.6-0.4,1v3.2h-0.9L115.5,8.4L115.5,8.4z"/>
			<path class="st0" d="M124.6,8.4h0.9v0.7c0.2-0.2,0.4-0.4,0.6-0.6c0.3-0.2,0.7-0.3,1.1-0.3c0.6,0,1.2,0.2,1.6,0.7
				c0.4,0.5,0.7,1.2,0.7,2c0,1.2-0.3,2.1-0.9,2.6c-0.4,0.3-0.9,0.5-1.4,0.5c-0.4,0-0.8-0.1-1-0.3c-0.2-0.1-0.3-0.3-0.6-0.5V16h-1
				C124.6,16,124.6,8.4,124.6,8.4z M128.1,12.7c0.3-0.4,0.4-0.9,0.4-1.6c0-0.4-0.1-0.8-0.2-1.1c-0.2-0.6-0.7-0.9-1.3-0.9
				c-0.6,0-1.1,0.3-1.3,1c-0.1,0.3-0.2,0.8-0.2,1.3c0,0.4,0.1,0.8,0.2,1.1c0.2,0.6,0.7,0.9,1.3,0.9
				C127.4,13.3,127.8,13.1,128.1,12.7z"/>
			<path class="st0" d="M123.2,8.9c0.5,0.5,0.7,1.2,0.7,2.1c0,0.9-0.2,1.6-0.6,2.2c-0.4,0.6-1.1,0.9-2,0.9c-0.8,0-1.3-0.3-1.8-0.8
				c-0.4-0.5-0.7-1.2-0.7-2.1c0-0.9,0.2-1.7,0.7-2.2s1.1-0.8,1.9-0.8C122.1,8.2,122.7,8.5,123.2,8.9z M122.6,12.6
				c0.2-0.5,0.3-1,0.3-1.5s-0.1-0.9-0.2-1.3C122.4,9.3,122,9,121.4,9s-1,0.2-1.2,0.6c-0.3,0.4-0.4,1-0.4,1.6s0.1,1.1,0.4,1.5
				s0.7,0.6,1.2,0.6C122,13.3,122.4,13,122.6,12.6z"/>
			<path class="st0" d="M134.3,8.5c0.4,0.2,0.6,0.4,0.8,0.7s0.3,0.6,0.4,1c0.1,0.3,0.1,0.7,0.1,1.2h-4c0,0.6,0.1,1,0.4,1.3
				c0.2,0.3,0.6,0.5,1.1,0.5s0.9-0.2,1.1-0.5c0.2-0.2,0.3-0.4,0.3-0.6h0.9c0,0.2-0.1,0.4-0.2,0.7c-0.1,0.2-0.3,0.5-0.5,0.6
				c-0.3,0.3-0.6,0.5-1,0.6c-0.2,0.1-0.5,0.1-0.7,0.1c-0.7,0-1.3-0.2-1.7-0.7c-0.5-0.5-0.7-1.2-0.7-2.1s0.2-1.6,0.7-2.2
				c0.5-0.6,1.1-0.8,1.9-0.8C133.6,8.3,133.9,8.3,134.3,8.5z M134.6,10.7c0-0.4-0.1-0.7-0.3-1C134,9.3,133.6,9,133,9
				c-0.4,0-0.8,0.2-1.1,0.5s-0.4,0.7-0.5,1.2H134.6z"/>
			<path class="st0" d="M139.7,10.5c0.2,0,0.4-0.1,0.4-0.3c0-0.1,0.1-0.2,0.1-0.4c0-0.3-0.1-0.5-0.3-0.7s-0.5-0.2-1-0.2
				s-0.8,0.1-1,0.4c-0.1,0.1-0.2,0.4-0.2,0.6h-0.9c0-0.7,0.2-1.2,0.7-1.4c0.4-0.3,0.9-0.4,1.5-0.4s1.2,0.1,1.6,0.4
				c0.4,0.2,0.6,0.6,0.6,1.2v3.2c0,0.1,0,0.2,0.1,0.2c0,0.1,0.1,0.1,0.2,0.1h0.1c0.1,0,0.1,0,0.2,0v0.7c-0.1,0-0.3,0.1-0.3,0.1
				c-0.1,0-0.2,0-0.3,0c-0.3,0-0.5-0.1-0.7-0.3c-0.1-0.1-0.1-0.3-0.2-0.5c-0.2,0.2-0.5,0.5-0.8,0.6c-0.4,0.2-0.7,0.3-1.2,0.3
				s-0.9-0.2-1.3-0.5c-0.3-0.3-0.5-0.7-0.5-1.2s0.2-0.9,0.5-1.2s0.7-0.5,1.3-0.5L139.7,10.5z M137.7,13c0.2,0.2,0.4,0.2,0.7,0.2
				s0.6-0.1,0.9-0.2c0.5-0.2,0.8-0.7,0.8-1.2v-0.7c-0.1,0.1-0.3,0.1-0.4,0.2c-0.2,0-0.4,0.1-0.5,0.1l-0.6,0.1
				c-0.3,0-0.6,0.1-0.8,0.2c-0.3,0.2-0.4,0.4-0.4,0.8C137.4,12.7,137.5,12.9,137.7,13z"/>
			<path class="st0" d="M142.6,8.4h0.9v0.8c0.3-0.3,0.5-0.6,0.8-0.7c0.3-0.1,0.6-0.2,1-0.2c0.8,0,1.3,0.3,1.6,0.8
				c0.2,0.3,0.2,0.7,0.2,1.3v3.5h-0.9v-3.5c0-0.3,0-0.6-0.1-0.8c-0.2-0.3-0.5-0.5-0.9-0.5c-0.2,0-0.4,0-0.5,0.1
				c-0.3,0.1-0.5,0.2-0.7,0.5c-0.2,0.2-0.3,0.4-0.3,0.6c0,0.2-0.1,0.5-0.1,0.8V14h-0.9V8.4H142.6z"/>
			<path class="st0" d="M151.5,6.3h1.2l3.8,6.1V6.3h1v7.5h-1.1l-3.8-6.1v6.1h-1L151.5,6.3L151.5,6.3z"/>
			<path class="st0" d="M162.4,8.5c0.4,0.2,0.6,0.4,0.8,0.7s0.3,0.6,0.4,1c0.1,0.3,0.1,0.7,0.1,1.2h-4c0,0.6,0.1,1,0.4,1.3
				c0.2,0.3,0.6,0.5,1.1,0.5s0.9-0.2,1.1-0.5c0.2-0.2,0.3-0.4,0.3-0.6h0.9c0,0.2-0.1,0.4-0.2,0.7c-0.1,0.2-0.3,0.5-0.5,0.6
				c-0.3,0.3-0.6,0.5-1,0.6c-0.2,0.1-0.5,0.1-0.7,0.1c-0.7,0-1.3-0.2-1.7-0.7c-0.5-0.5-0.7-1.2-0.7-2.1s0.2-1.6,0.7-2.2
				c0.5-0.6,1.1-0.8,1.9-0.8C161.6,8.3,162,8.3,162.4,8.5z M162.7,10.7c0-0.4-0.1-0.7-0.3-1c-0.3-0.4-0.7-0.7-1.3-0.7
				c-0.4,0-0.8,0.2-1.1,0.5s-0.4,0.7-0.5,1.2H162.7z"/>
			<path class="st0" d="M164.9,6.8h0.9v1.5h0.9v0.8h-0.9v3.6c0,0.2,0.1,0.3,0.2,0.4c0.1,0,0.2,0.1,0.4,0.1h0.1c0.1,0,0.1,0,0.2,0
				v0.7c-0.1,0-0.2,0.1-0.3,0.1s-0.2,0-0.4,0c-0.4,0-0.7-0.1-0.9-0.3s-0.2-0.5-0.2-0.9V9.1h-0.7V8.4h0.7V6.8z"/>
			<path class="st0" d="M168.3,8.4l1.1,4.3l1.1-4.3h1l1.1,4.3l1.1-4.3h0.9l-1.6,5.5h-1l-1-4.3l-1.1,4.3h-1l-1.6-5.5H168.3z"/>
			<path class="st0" d="M179.4,8.9c0.5,0.5,0.7,1.2,0.7,2.1c0,0.9-0.2,1.6-0.6,2.2s-1.1,0.9-2,0.9c-0.8,0-1.3-0.3-1.8-0.8
				c-0.4-0.5-0.7-1.2-0.7-2.1c0-0.9,0.2-1.7,0.7-2.2s1.1-0.8,1.9-0.8C178.3,8.2,178.9,8.5,179.4,8.9z M178.8,12.6
				c0.2-0.5,0.3-1,0.3-1.5s-0.1-0.9-0.2-1.3c-0.3-0.5-0.7-0.8-1.3-0.8s-1,0.2-1.2,0.6c-0.3,0.4-0.4,1-0.4,1.6s0.1,1.1,0.4,1.5
				s0.7,0.6,1.2,0.6C178.2,13.3,178.6,13,178.8,12.6z"/>
			<path class="st0" d="M181.3,8.4h0.9v1c0.1-0.2,0.2-0.4,0.5-0.7s0.6-0.4,1-0.4c0,0,0,0,0.1,0c0,0,0.1,0,0.2,0v1
				c-0.1,0-0.1,0-0.2,0c0,0-0.1,0-0.2,0c-0.5,0-0.8,0.1-1.1,0.4s-0.4,0.6-0.4,1v3.2h-0.9L181.3,8.4L181.3,8.4z"/>
			<path class="st0" d="M184.8,6.3h0.9v4.4l2.4-2.3h1.2l-2.1,2l2.2,3.5h-1.2l-1.7-2.8l-0.8,0.7v2.1h-0.9L184.8,6.3L184.8,6.3z"/>
			<path class="st0" d="M193.4,6.7c0.2-0.3,0.6-0.5,1.2-0.5c0.1,0,0.1,0,0.2,0c0.1,0,0.1,0,0.2,0V7c-0.1,0-0.2,0-0.2,0h-0.1
				c-0.3,0-0.5,0.1-0.5,0.2c-0.1,0.1-0.1,0.5-0.1,1.1h0.9V9h-0.9v4.7h-0.9V9.1h-0.8V8.4h0.8V7.5C193.3,7.2,193.3,6.9,193.4,6.7z"/>
			<path class="st0" d="M199.9,8.9c0.5,0.5,0.7,1.2,0.7,2.1c0,0.9-0.2,1.6-0.6,2.2c-0.4,0.6-1.1,0.9-2,0.9c-0.8,0-1.3-0.3-1.8-0.8
				c-0.4-0.5-0.7-1.2-0.7-2.1c0-0.9,0.2-1.7,0.7-2.2s1.1-0.8,1.9-0.8C198.8,8.2,199.4,8.5,199.9,8.9z M199.3,12.6
				c0.2-0.5,0.3-1,0.3-1.5s-0.1-0.9-0.2-1.3c-0.3-0.5-0.7-0.8-1.3-0.8s-1,0.2-1.2,0.6c-0.3,0.4-0.4,1-0.4,1.6s0.1,1.1,0.4,1.5
				s0.7,0.6,1.2,0.6C198.6,13.3,199.1,13,199.3,12.6z"/>
			<path class="st0" d="M201.8,8.4h0.9v1c0.1-0.2,0.2-0.4,0.5-0.7s0.6-0.4,1-0.4c0,0,0,0,0.1,0c0,0,0.1,0,0.2,0v1
				c-0.1,0-0.1,0-0.2,0c0,0-0.1,0-0.2,0c-0.5,0-0.8,0.1-1.1,0.4s-0.4,0.6-0.4,1v3.2h-0.9L201.8,8.4L201.8,8.4z"/>
			<path class="st0" d="M105.2,17.3h1.2l2.7,7.5H108l-0.8-2.3h-3l-0.8,2.3h-1L105.2,17.3z M106.9,21.8l-1.1-3.3l-1.2,3.3H106.9z"/>
			<path class="st0" d="M113.5,19.7c0.4,0.3,0.6,0.8,0.7,1.6h-0.9c-0.1-0.3-0.2-0.6-0.4-0.8c-0.2-0.2-0.5-0.3-0.9-0.3
				c-0.6,0-1,0.3-1.3,0.9c-0.2,0.4-0.2,0.8-0.2,1.4s0.1,1,0.3,1.4s0.6,0.6,1.1,0.6c0.4,0,0.7-0.1,0.9-0.4c0.2-0.2,0.4-0.6,0.5-1h0.9
				c-0.1,0.7-0.4,1.3-0.8,1.6c-0.4,0.3-0.9,0.5-1.6,0.5s-1.3-0.3-1.7-0.8c-0.4-0.5-0.6-1.2-0.6-2c0-1,0.2-1.7,0.7-2.3
				c0.5-0.5,1.1-0.8,1.8-0.8C112.6,19.2,113.1,19.4,113.5,19.7z"/>
			<path class="st0" d="M118.9,19.7c0.4,0.3,0.6,0.8,0.7,1.6h-0.9c-0.1-0.3-0.2-0.6-0.4-0.8c-0.2-0.2-0.5-0.3-0.9-0.3
				c-0.6,0-1,0.3-1.3,0.9c-0.2,0.4-0.2,0.8-0.2,1.4s0.1,1,0.3,1.4s0.6,0.6,1.1,0.6c0.4,0,0.7-0.1,0.9-0.4c0.2-0.2,0.4-0.6,0.5-1h0.9
				c-0.1,0.7-0.4,1.3-0.8,1.6c-0.4,0.3-0.9,0.5-1.6,0.5s-1.3-0.3-1.7-0.8c-0.4-0.5-0.6-1.2-0.6-2c0-1,0.2-1.7,0.7-2.3
				c0.5-0.5,1.1-0.8,1.8-0.8C118,19.2,118.5,19.4,118.9,19.7z"/>
			<path class="st0" d="M124,19.5c0.4,0.2,0.6,0.4,0.8,0.7c0.2,0.3,0.3,0.6,0.4,1c0.1,0.3,0.1,0.7,0.1,1.2h-4c0,0.6,0.1,1,0.4,1.3
				c0.2,0.3,0.6,0.5,1.1,0.5s0.9-0.2,1.1-0.5c0.2-0.2,0.3-0.4,0.3-0.6h0.9c0,0.2-0.1,0.4-0.2,0.7c-0.1,0.2-0.3,0.5-0.5,0.6
				c-0.3,0.3-0.6,0.5-1,0.6c-0.2,0.1-0.5,0.1-0.7,0.1c-0.7,0-1.3-0.2-1.7-0.7c-0.5-0.5-0.7-1.2-0.7-2.1s0.2-1.6,0.7-2.2
				s1.1-0.8,1.9-0.8C123.3,19.3,123.7,19.3,124,19.5z M124.4,21.7c0-0.4-0.1-0.7-0.3-1c-0.3-0.4-0.7-0.7-1.3-0.7
				c-0.4,0-0.8,0.2-1.1,0.5s-0.4,0.7-0.5,1.2H124.4z"/>
			<path class="st0" d="M127,23.1c0,0.3,0.1,0.5,0.2,0.7c0.2,0.3,0.6,0.4,1.2,0.4c0.3,0,0.7-0.1,0.9-0.2c0.3-0.1,0.4-0.4,0.4-0.7
				c0-0.2-0.1-0.4-0.3-0.5c-0.1-0.1-0.4-0.2-0.8-0.3l-0.7-0.2c-0.5-0.1-0.8-0.2-1.1-0.4c-0.4-0.2-0.6-0.6-0.6-1
				c0-0.5,0.2-0.9,0.6-1.3s0.9-0.5,1.5-0.5c0.8,0,1.4,0.2,1.8,0.7c0.2,0.3,0.3,0.6,0.3,1h-0.9c0-0.2-0.1-0.4-0.2-0.6
				c-0.2-0.2-0.6-0.4-1.1-0.4c-0.4,0-0.6,0.1-0.8,0.2c-0.2,0.1-0.3,0.3-0.3,0.5s0.1,0.4,0.4,0.6c0.1,0.1,0.3,0.2,0.6,0.2l0.6,0.1
				c0.7,0.2,1.1,0.3,1.4,0.5c0.4,0.2,0.5,0.6,0.5,1.1s-0.2,0.9-0.6,1.3c-0.4,0.4-0.9,0.5-1.7,0.5s-1.4-0.2-1.8-0.6
				c-0.3-0.4-0.5-0.8-0.6-1.4h1.1L127,23.1L127,23.1z"/>
			<path class="st0" d="M132.4,23.1c0,0.3,0.1,0.5,0.2,0.7c0.2,0.3,0.6,0.4,1.2,0.4c0.3,0,0.7-0.1,0.9-0.2c0.3-0.1,0.4-0.4,0.4-0.7
				c0-0.2-0.1-0.4-0.3-0.5c-0.1-0.1-0.4-0.2-0.8-0.3l-0.7-0.2c-0.5-0.1-0.8-0.2-1.1-0.4c-0.4-0.2-0.6-0.6-0.6-1
				c0-0.5,0.2-0.9,0.6-1.3s0.9-0.5,1.5-0.5c0.8,0,1.4,0.2,1.8,0.7c0.2,0.3,0.3,0.6,0.3,1H135c0-0.2-0.1-0.4-0.2-0.6
				c-0.2-0.2-0.6-0.4-1.1-0.4c-0.4,0-0.6,0.1-0.8,0.2s-0.3,0.3-0.3,0.5s0.1,0.4,0.4,0.6c0.1,0.1,0.3,0.2,0.6,0.2l0.6,0.1
				c0.7,0.2,1.1,0.3,1.4,0.5c0.4,0.2,0.5,0.6,0.5,1.1s-0.2,0.9-0.6,1.3c-0.4,0.4-0.9,0.5-1.7,0.5s-1.4-0.2-1.8-0.6
				c-0.3-0.4-0.5-0.8-0.6-1.4h1L132.4,23.1L132.4,23.1z"/>
			<path class="st0" d="M137.1,17.3h0.9v1h-0.9V17.3z M137.1,19.4h0.9v5.5h-0.9V19.4z"/>
			<path class="st0" d="M139.4,17.3h0.9V20c0.2-0.3,0.4-0.5,0.7-0.6s0.6-0.2,0.9-0.2c0.7,0,1.2,0.2,1.7,0.7c0.4,0.5,0.6,1.2,0.6,2.1
				s-0.2,1.6-0.6,2.2c-0.4,0.6-1,0.9-1.8,0.9c-0.4,0-0.8-0.1-1.1-0.3c-0.2-0.1-0.4-0.3-0.6-0.6v0.7h-0.9v-7.6
				C139.2,17.3,139.4,17.3,139.4,17.3z M143,23.6c0.2-0.4,0.4-0.9,0.4-1.6c0-0.6-0.1-1.1-0.4-1.4s-0.6-0.6-1.1-0.6
				c-0.4,0-0.8,0.2-1.1,0.5s-0.5,0.8-0.5,1.5c0,0.5,0.1,0.9,0.2,1.3c0.2,0.6,0.7,0.9,1.4,0.9C142.3,24.2,142.7,24,143,23.6z"/>
			<path class="st0" d="M145.4,17.3h0.9v7.5h-0.9V17.3z"/>
			<path class="st0" d="M151.2,19.5c0.4,0.2,0.6,0.4,0.8,0.7c0.2,0.3,0.3,0.6,0.4,1c0.1,0.3,0.1,0.7,0.1,1.2h-4c0,0.6,0.1,1,0.4,1.3
				c0.2,0.3,0.6,0.5,1.1,0.5s0.9-0.2,1.1-0.5c0.2-0.2,0.3-0.4,0.3-0.6h0.9c0,0.2-0.1,0.4-0.2,0.7c-0.1,0.2-0.3,0.5-0.5,0.6
				c-0.3,0.3-0.6,0.5-1,0.6c-0.2,0.1-0.5,0.1-0.7,0.1c-0.7,0-1.3-0.2-1.7-0.7c-0.5-0.5-0.7-1.2-0.7-2.1s0.2-1.6,0.7-2.2
				s1.1-0.8,1.9-0.8C150.4,19.3,150.8,19.3,151.2,19.5z M151.5,21.7c0-0.4-0.1-0.7-0.3-1c-0.3-0.4-0.7-0.7-1.3-0.7
				c-0.4,0-0.8,0.2-1.1,0.5s-0.4,0.7-0.5,1.2H151.5z"/>
			<path class="st0" d="M162.2,17.3v0.9h-2.5v6.6h-1v-6.6H156v-0.9H162.2z"/>
			<path class="st0" d="M166.1,19.9c0.5,0.5,0.7,1.2,0.7,2.1s-0.2,1.6-0.6,2.2c-0.4,0.6-1.1,0.9-2,0.9c-0.8,0-1.3-0.3-1.8-0.8
				c-0.4-0.5-0.7-1.2-0.7-2.1s0.2-1.7,0.7-2.2s1.1-0.8,1.9-0.8C165,19.2,165.6,19.5,166.1,19.9z M165.5,23.6c0.2-0.5,0.3-1,0.3-1.5
				s-0.1-0.9-0.2-1.3c-0.3-0.5-0.7-0.8-1.3-0.8s-1,0.2-1.2,0.6c-0.3,0.4-0.4,1-0.4,1.6s0.1,1.1,0.4,1.5s0.7,0.6,1.2,0.6
				C164.9,24.3,165.3,24,165.5,23.6z"/>
			<path class="st0" d="M168.9,19.4V23c0,0.3,0,0.5,0.1,0.7c0.2,0.3,0.5,0.5,0.9,0.5c0.6,0,1.1-0.3,1.3-0.9c0.1-0.3,0.2-0.7,0.2-1.3
				v-2.7h0.9v5.5h-0.9V24c-0.1,0.2-0.3,0.4-0.4,0.5c-0.3,0.3-0.8,0.4-1.3,0.4c-0.8,0-1.3-0.3-1.6-0.8c-0.2-0.3-0.2-0.7-0.2-1.1v-3.7
				L168.9,19.4L168.9,19.4z"/>
			<path class="st0" d="M173.8,19.4h0.9v1c0.1-0.2,0.2-0.4,0.5-0.7c0.3-0.3,0.6-0.4,1-0.4c0,0,0,0,0.1,0c0,0,0.1,0,0.2,0v1
				c-0.1,0-0.1,0-0.2,0c0,0-0.1,0-0.2,0c-0.5,0-0.8,0.1-1.1,0.4s-0.4,0.6-0.4,1v3.2h-0.9L173.8,19.4L173.8,19.4z"/>
			<path class="st0" d="M177.3,17.3h0.9v1h-0.9V17.3z M177.3,19.4h0.9v5.5h-0.9V19.4z"/>
			<path class="st0" d="M180.2,23.1c0,0.3,0.1,0.5,0.2,0.7c0.2,0.3,0.6,0.4,1.2,0.4c0.3,0,0.7-0.1,0.9-0.2c0.3-0.1,0.4-0.4,0.4-0.7
				c0-0.2-0.1-0.4-0.3-0.5c-0.1-0.1-0.4-0.2-0.8-0.3l-0.7-0.2c-0.5-0.1-0.8-0.2-1.1-0.4c-0.4-0.2-0.6-0.6-0.6-1
				c0-0.5,0.2-0.9,0.6-1.3s0.9-0.5,1.5-0.5c0.8,0,1.4,0.2,1.8,0.7c0.2,0.3,0.3,0.6,0.3,1h-0.9c0-0.2-0.1-0.4-0.2-0.6
				c-0.2-0.2-0.6-0.4-1.1-0.4c-0.4,0-0.6,0.1-0.8,0.2s-0.3,0.3-0.3,0.5s0.1,0.4,0.4,0.6c0.1,0.1,0.3,0.2,0.6,0.2l0.6,0.1
				c0.7,0.2,1.1,0.3,1.4,0.5c0.4,0.2,0.5,0.6,0.5,1.1s-0.2,0.9-0.6,1.3c-0.4,0.4-0.9,0.5-1.7,0.5s-1.4-0.2-1.8-0.6
				c-0.3-0.4-0.5-0.8-0.6-1.4h1.1L180.2,23.1L180.2,23.1z"/>
			<path class="st0" d="M185,19.4h0.9v0.8c0.2-0.3,0.4-0.5,0.6-0.6c0.3-0.2,0.7-0.3,1-0.3c0.4,0,0.8,0.1,1.1,0.3
				c0.2,0.1,0.3,0.3,0.4,0.5c0.2-0.3,0.4-0.5,0.7-0.7c0.3-0.1,0.6-0.2,0.9-0.2c0.7,0,1.2,0.3,1.5,0.8c0.1,0.3,0.2,0.7,0.2,1.2v3.7
				h-1v-3.8c0-0.4-0.1-0.6-0.3-0.8c-0.2-0.1-0.4-0.2-0.7-0.2c-0.4,0-0.7,0.1-0.9,0.4c-0.3,0.2-0.4,0.6-0.4,1.2v3.2h-0.9v-3.6
				c0-0.4,0-0.6-0.1-0.8c-0.1-0.3-0.4-0.4-0.8-0.4c-0.3,0-0.7,0.1-1,0.4s-0.4,0.8-0.4,1.5v2.9H185V19.4z"/>
		</g>
		<g>
			<path class="st0" d="M237.3,12.4h2.6V21h-1.7v-5.8c0-0.2,0-0.4,0-0.7s0-0.5,0-0.7l-1.6,7.2h-1.8l-1.6-7.2c0,0.2,0,0.4,0,0.7
				s0,0.5,0,0.7V21h-1.7v-8.6h2.6l1.6,6.8L237.3,12.4z"/>
			<path class="st0" d="M249.2,14h-4.6v1.8h4.2v1.5h-4.2v2.2h4.8v1.6h-6.5v-8.6h6.3V14z"/>
			<path class="st0" d="M257.7,12.4h2.6V21h-1.7v-5.8c0-0.2,0-0.4,0-0.7s0-0.5,0-0.7L257,21h-1.8l-1.6-7.2c0,0.2,0,0.4,0,0.7
				s0,0.5,0,0.7V21H252v-8.6h2.6l1.6,6.8L257.7,12.4z"/>
			<path class="st0" d="M269.7,13.3c0.3,0.4,0.4,0.8,0.4,1.3s-0.1,1-0.4,1.3c-0.1,0.2-0.4,0.3-0.7,0.5c0.4,0.2,0.8,0.4,1,0.8
				c0.2,0.3,0.3,0.8,0.3,1.3s-0.1,1-0.4,1.4c-0.2,0.3-0.4,0.5-0.6,0.7c-0.3,0.2-0.6,0.4-1,0.4c-0.4,0.1-0.8,0.1-1.2,0.1h-3.9v-8.6
				h4.2C268.5,12.4,269.3,12.8,269.7,13.3z M265,13.9v1.9h2.1c0.4,0,0.7-0.1,0.9-0.2c0.2-0.1,0.4-0.4,0.4-0.8c0-0.4-0.2-0.7-0.5-0.8
				s-0.6-0.1-1-0.1C266.9,13.9,265,13.9,265,13.9z M265,17.3v2.3h2.1c0.4,0,0.7-0.1,0.9-0.2c0.4-0.2,0.6-0.5,0.6-1.1
				c0-0.4-0.2-0.8-0.6-0.9c-0.2-0.1-0.5-0.1-0.9-0.1C267.1,17.3,265,17.3,265,17.3z"/>
			<path class="st0" d="M279.4,14h-4.6v1.8h4.2v1.5h-4.2v2.2h4.8v1.6h-6.5v-8.6h6.3L279.4,14L279.4,14z"/>
			<path class="st0" d="M287.7,12.7c0.3,0.1,0.6,0.3,0.8,0.6c0.2,0.2,0.3,0.5,0.4,0.7c0.1,0.3,0.2,0.6,0.2,0.9
				c0,0.4-0.1,0.8-0.3,1.2c-0.2,0.4-0.5,0.7-1,0.8c0.4,0.2,0.7,0.4,0.8,0.7s0.2,0.7,0.2,1.4v0.6c0,0.4,0,0.7,0,0.8
				c0,0.2,0.2,0.4,0.3,0.5v0.2h-2c-0.1-0.2-0.1-0.3-0.1-0.5s-0.1-0.5-0.1-0.7v-0.8c0-0.6-0.1-0.9-0.3-1.1s-0.5-0.3-1-0.3H284v3.4
				h-1.8v-8.6h4.1C287,12.4,287.4,12.5,287.7,12.7z M284,13.9v2.3h1.9c0.4,0,0.7,0,0.9-0.1c0.3-0.2,0.5-0.5,0.5-1s-0.2-0.9-0.5-1.1
				c-0.2-0.1-0.5-0.2-0.8-0.2h-2V13.9z"/>
		</g>
	</g>
	<rect x="217.5" y="0.3" class="st6" width="0.8" height="32.6"/>
</g>
</svg>
