<?xml version="1.0" encoding="utf-8"?>
<!-- Generator: Adobe Illustrator 24.0.1, SVG Export Plug-In . SVG Version: 6.00 Build 0)  -->
<svg version="1.1" id="Layer_1" xmlns="http://www.w3.org/2000/svg" xmlns:xlink="http://www.w3.org/1999/xlink" x="0px" y="0px"
	 viewBox="0 0 240 80" style="enable-background:new 0 0 240 80;" xml:space="preserve">
<style type="text/css">
	.st0{display:none;}
	.st1{fill:#3F4042;}
</style>
<g id="guides" class="st0">
</g>
<g id="guides_1_" class="st0">
</g>
<path class="st1" d="M108.2,45.1h11.4l-6-9.7L102.5,53l-5,0l13.5-21.1c0.6-0.8,1.6-1.4,2.6-1.4c1.1,0,2,0.5,2.6,1.3L129.7,53l-5,0
	l-2.4-3.9h-11.5L108.2,45.1z"/>
<path class="st1" d="M160.5,49.1V30.8h-4.3v20.1c0,0.5,0.2,1.1,0.6,1.5c0.4,0.4,1,0.7,1.6,0.7h19.5l2.5-3.9H160.5z"/>
<path class="st1" d="M89.8,45.8c4.2,0,7.5-3.4,7.5-7.5c0-4.1-3.3-7.5-7.5-7.5H71.1V53h4.3V34.7h14.1c2,0,3.6,1.6,3.6,3.6
	c0,2-1.6,3.6-3.6,3.6l-12,0L90.3,53h6.2l-8.6-7.2H89.8z"/>
<path class="st1" d="M57.5,49.1c4,0,7.2-3.2,7.2-7.2c0-4-3.2-7.2-7.2-7.2H45.1c-4,0-7.2,3.2-7.2,7.2c0,4,3.2,7.2,7.2,7.2H57.5z
	 M44.9,53c-6.1,0-11.1-5-11.1-11.1c0-6.1,5-11.1,11.1-11.1h12.9c6.1,0,11.1,5,11.1,11.1C68.9,48,63.9,53,57.8,53L44.9,53z"/>
<path class="st1" d="M138.6,53c-6.1,0-11.1-5-11.1-11.1c0-6.1,5-11.1,11.1-11.1h15.3l-2.5,3.9h-12.5c-4,0-7.2,3.2-7.2,7.2
	c0,4,3.2,7.2,7.2,7.2h15.4l-2.5,3.9H138.6z"/>
<path class="st1" d="M190.8,49.1c-3.3,0-6.1-2.2-6.9-5.2h18.3l2.5-3.9h-20.8c0.9-3,3.6-5.2,6.9-5.2h12.5l2.5-3.9h-15.3
	c-6.1,0-11.1,5-11.1,11.1c0,6.1,5,11.1,11.1,11.1h13.2l2.5-3.9H190.8z"/>
</svg>
