<?xml version="1.0" encoding="utf-8"?>
<!-- Generator: Adobe Illustrator 24.0.1, SVG Export Plug-In . SVG Version: 6.00 Build 0)  -->
<svg version="1.1" id="Layer_1" xmlns="http://www.w3.org/2000/svg" xmlns:xlink="http://www.w3.org/1999/xlink" x="0px" y="0px"
	 viewBox="0 0 240 80" style="enable-background:new 0 0 240 80;" xml:space="preserve">
<style type="text/css">
	.st0{display:none;}
	.st1{fill:#3F4042;}
</style>
<g id="guides" class="st0">
</g>
<g>
	<path class="st1" d="M111.3,18.4h8.4l-4.4-7.1l-8.1,12.9l-3.7,0l9.9-15.5c0.4-0.6,1.1-1,1.9-1c0.8,0,1.5,0.4,1.9,1l9.9,15.5l-3.7,0
		l-1.7-2.9h-8.5L111.3,18.4z"/>
	<path class="st1" d="M149.7,21.2V7.8h-3.1v14.8c0,0.4,0.2,0.8,0.5,1.1c0.3,0.3,0.7,0.5,1.1,0.5h14.3l1.9-2.9H149.7z"/>
	<path class="st1" d="M97.8,18.8c3.1,0,5.5-2.5,5.5-5.5c0-3-2.5-5.5-5.5-5.5H84v16.3h3.1V10.7h10.4c1.5,0,2.6,1.2,2.6,2.6
		c0,1.5-1.2,2.6-2.6,2.6l-8.8,0l9.4,8.2h4.6l-6.3-5.3H97.8z"/>
	<path class="st1" d="M74,21.2c2.9,0,5.3-2.4,5.3-5.3c0-2.9-2.4-5.3-5.3-5.3h-9.1c-2.9,0-5.3,2.4-5.3,5.3c0,2.9,2.4,5.3,5.3,5.3H74z
		 M64.7,24.1c-4.5,0-8.2-3.6-8.2-8.2c0-4.5,3.7-8.2,8.2-8.2h9.5c4.5,0,8.1,3.7,8.1,8.2c0,4.5-3.6,8.2-8.1,8.2L64.7,24.1z"/>
	<path class="st1" d="M133.6,24.1c-4.5,0-8.2-3.6-8.2-8.2c0-4.5,3.7-8.2,8.2-8.2h11.3l-1.9,2.9h-9.2c-2.9,0-5.3,2.4-5.3,5.3
		c0,2.9,2.4,5.3,5.3,5.3h11.3l-1.8,2.9H133.6z"/>
	<path class="st1" d="M172,21.2c-2.4,0-4.5-1.6-5.1-3.8h13.4l1.8-2.9h-15.3c0.6-2.2,2.7-3.8,5.1-3.8h9.2l1.8-2.9h-11.3
		c-4.5,0-8.2,3.7-8.2,8.2c0,4.5,3.7,8.2,8.2,8.2h9.7l1.8-2.9H172z"/>
	<rect x="56.5" y="32.4" class="st1" width="126.9" height="0.9"/>
	<polygon class="st1" points="73.6,41.6 77.3,41.6 79.5,49.3 82,41.6 85.6,41.6 85.6,52.2 83.3,52.2 83.3,43.1 80.4,52.2 78.5,52.2 
		75.7,43.1 75.7,52.2 73.6,52.2 	"/>
	<path class="st1" d="M94,48.2l-1.5-4.5l-1.6,4.5H94z M93.9,41.6l3.7,10.6h-2.3l-0.8-2.3h-4.2l-0.8,2.3h-2.2l3.8-10.6H93.9z"/>
	<path class="st1" d="M101.7,46.2h1.8c0.3,0,0.8,0,1.2-0.3c0.2-0.1,0.6-0.5,0.6-1.2c0-0.7-0.4-1.1-0.6-1.2c-0.4-0.2-0.8-0.2-1.5-0.2
		h-1.5V46.2z M99.4,41.6h4.1c1.2,0,2.4,0,3.2,0.7c0.7,0.6,0.9,1.4,0.9,2c0,2-1.7,2.5-2.2,2.6c1.6,0.1,1.7,1.1,1.9,2.4
		c0.2,1.3,0.3,1.8,0.3,2.1c0.1,0.5,0.2,0.6,0.3,0.8h-2.5c-0.1-0.6-0.4-3.3-0.6-3.7c-0.2-0.6-0.8-0.6-1.2-0.6h-2v4.3h-2.3V41.6z"/>
	<polygon class="st1" points="110.1,41.6 112.3,41.6 112.3,46.2 115.9,41.6 118.6,41.6 114.7,46.3 118.9,52.2 116.1,52.2 
		112.3,46.8 112.3,52.2 110.1,52.2 	"/>
	<polygon class="st1" points="120.7,41.6 127.8,41.6 127.8,43.3 122.9,43.3 122.9,45.8 127.5,45.8 127.5,47.6 122.9,47.6 
		122.9,50.5 127.9,50.5 127.9,52.2 120.7,52.2 	"/>
	<polygon class="st1" points="132.7,43.3 129.5,43.3 129.5,41.6 138.1,41.6 138.1,43.3 135,43.3 135,52.2 132.7,52.2 	"/>
	<rect x="139.9" y="41.5" class="st1" width="2.3" height="10.7"/>
	<polygon class="st1" points="144.8,41.6 148.1,41.6 152.1,50 152.1,41.6 154.2,41.6 154.2,52.2 151.1,52.2 147,43.4 147,52.2 
		144.8,52.2 	"/>
	<path class="st1" d="M164,44.8c0-0.3,0-0.7-0.3-1.1c-0.4-0.7-1.3-0.8-1.8-0.8c-2.6,0-3.1,2.4-3.1,4c0,0.7,0.1,2,0.9,2.9
		c0.5,0.6,1.2,0.9,2.5,0.9c1.1,0,1.5-0.1,1.7-0.2v-2.2h-2.1v-1.8h4.3v5.3c-0.7,0.2-1.8,0.6-3.9,0.6c-2.4,0-3.7-0.6-4.5-1.4
		c-1.2-1.2-1.4-2.9-1.4-4c0-3.8,2.4-5.8,5.6-5.8c1.4,0,2.8,0.4,3.6,1.3c0.7,0.8,0.8,1.6,0.8,2.2H164z"/>
	<path class="st1" d="M100.1,62.8c0-0.4-0.2-1.9-1.7-1.9c-1.7,0-2.4,1.8-2.4,4c0,0.6,0,3.7,2.2,3.7c1,0,1.9-0.6,1.9-2h2.4
		c0,0.6-0.1,1.6-1,2.5c-0.9,1-2.1,1.2-3.1,1.2c-3.7,0-4.9-2.7-4.9-5.3c0-3.4,1.9-5.6,4.9-5.6c2.3,0,4,1.4,4,3.5H100.1z"/>
	<polygon class="st1" points="104.6,59.3 107,59.3 107,68.1 111.5,68.1 111.5,69.9 104.6,69.9 	"/>
	<path class="st1" d="M116,67.7c0.3,0.4,0.9,0.9,1.9,0.9c0.9,0,1.6-0.3,2-1c0.4-0.5,0.7-1.4,0.7-3c0-0.5,0-1.3-0.3-1.9
		c-0.4-1.3-1.3-1.9-2.4-1.9c-0.9,0-1.5,0.4-2,0.9c-0.6,0.7-0.8,1.9-0.8,3.1C115.2,65.7,115.4,66.8,116,67.7 M118,59.1
		c1.1,0,2.7,0.3,3.7,1.4c1.1,1.3,1.4,3,1.4,4c0,1.5-0.5,3.2-1.3,4.2c-1.2,1.3-2.9,1.5-3.8,1.5c-1.4,0-2.8-0.4-3.8-1.5
		c-1.2-1.2-1.3-3-1.3-4C112.9,61.9,114.1,59.1,118,59.1"/>
	<path class="st1" d="M127.6,59.3v6.5c0,1.2,0.1,2.6,2.3,2.6c0.4,0,1.5,0,2.1-0.9c0.2-0.3,0.3-0.7,0.3-1.8v-6.4h2.2V66
		c0,3.2-2.5,4.2-4.7,4.2c-1.1,0-3-0.2-4-1.8c-0.5-0.8-0.5-1.6-0.5-2.6v-6.4H127.6z"/>
	<path class="st1" d="M139.6,68.2c0.2,0,0.6,0,0.9,0c1,0,1.8-0.1,2.5-0.7c0.9-0.9,1-2.5,1-3c0-1.5-0.5-2.9-1.9-3.3
		c-0.5-0.1-1.1-0.2-2.4-0.1V68.2z M137.2,59.3l3.5,0c0.6,0,2.4,0,3.7,1c1.3,1,1.8,2.7,1.8,4.2c0,3.3-1.8,5-3.8,5.3
		c-0.4,0.1-0.8,0.1-1.9,0.1h-3.3V59.3z"/>
</g>
</svg>
