<?xml version="1.0" encoding="utf-8"?>
<!-- Generator: Adobe Illustrator 25.3.1, SVG Export Plug-In . SVG Version: 6.00 Build 0)  -->
<svg version="1.1" id="Layer_1" xmlns="http://www.w3.org/2000/svg" xmlns:xlink="http://www.w3.org/1999/xlink" x="0px" y="0px"
	 viewBox="0 0 240 80" enable-background="new 0 0 240 80" xml:space="preserve">
<g id="guides" display="none">
</g>
<g>
	<polygon fill="#D6D6CE" points="92.1,19.6 81.1,12.8 70.1,19.6 59.1,12.8 48.1,19.6 48.1,25.1 59.1,18.3 70.1,25.1 81.1,18.3 
		92.1,25.1 	"/>
	<polygon fill="#D6D6CE" points="70.1,8.8 59.1,2 48.1,8.8 37.1,2 26.1,8.8 26.1,14.3 37.1,7.4 48.1,14.3 59.1,7.4 70.1,14.3 	"/>
	<g>
		<path fill="#D6D6CE" d="M7.8,63.2h2l4.9,11.7l4.9-11.7h2.1l-5.9,13.4h-2.2L7.8,63.2z"/>
		<path fill="#D6D6CE" d="M23.8,63.3h1.9v13.4h-1.9V63.3z"/>
		<path fill="#D6D6CE" d="M35.3,77c-4.6,0-7.3-2.8-7.3-7c0-4.3,2.8-7,7.3-7c3.7,0,6.3,2.1,6.6,5.2h-2c-0.4-2.1-2.1-3.4-4.7-3.4
			c-3.4,0-5.3,2-5.3,5.3s2,5.3,5.4,5.3c2.6,0,4.5-1.5,4.8-3.7h2C41.8,74.8,39.1,77,35.3,77z"/>
		<path fill="#D6D6CE" d="M49.1,76.6h-1.9V65h-5.1v-1.7h12V65h-5.1V76.6z"/>
		<path fill="#D6D6CE" d="M61.7,62.9c4.6,0,7.3,2.8,7.3,7c0,4.3-2.8,7-7.3,7c-4.6,0-7.3-2.8-7.3-7C54.4,65.7,57.1,62.9,61.7,62.9z
			 M61.7,75.2c3.4,0,5.3-2,5.3-5.3c0-3.3-2-5.3-5.4-5.3c-3.4,0-5.3,2-5.3,5.3S58.3,75.2,61.7,75.2z"/>
		<path fill="#D6D6CE" d="M71.2,63.3h7c3.1,0,4.7,1.3,4.7,3.6c0,1.7-0.8,2.8-2.3,3.3c1.4,0.2,1.9,1,2.1,2.5l0.2,2.2
			c0.1,0.7,0.1,1.2,0.5,1.7h-2.2c-0.1-0.4-0.2-0.8-0.2-1.4l-0.2-2c-0.1-1.8-0.7-2.4-2.7-2.4h-5v5.7h-1.9V63.3z M73,64.9v4.4h4.4
			c2.4,0,3.6-0.5,3.6-2.2c0-1.8-1.2-2.2-3.8-2.2H73z"/>
		<path fill="#D6D6CE" d="M86.3,63.3h1.9v13.4h-1.9V63.3z"/>
		<path fill="#D6D6CE" d="M96.7,63.3h2l5.9,13.4h-2l-1.7-3.8h-6.8l-1.8,3.8h-2L96.7,63.3z M100.2,71.1l-2.6-5.7l-2.7,5.7H100.2z"/>
	</g>
	<g>
		<path fill="#D6D6CE" d="M0,22.1h14.4c8.1,0,12.1,3.1,12.1,9.7c0,6.7-4,9.7-12.1,9.7H5.3v15.9H0V22.1z M12.6,37.6
			c6.3,0,9.3-1.1,9.3-5.7c0-4.6-2.9-5.7-9-5.7H5.3v11.4H12.6z"/>
		<path fill="#D6D6CE" d="M28.3,35.5c0.5-1.5,0.4-4.2,0.4-4.2c0.8-0.1,1.9-0.1,2.8-0.1c8.1,0,11.2,2.1,11.2,8.1v9.9
			c0,2.6,0.5,3.6,2.2,3.6c0.4,0,0.8,0,1.3-0.1v3.6c-1.4,0.2-2.6,0.2-3.4,0.2c-2.6,0-3.9-1.1-4.3-3.8c-2.2,2.8-5.7,4.4-10.3,4.4
			c-6.1,0-9.4-2.8-9.4-7.3c0-2.6,1.2-4.5,3.5-5.9c1.5-0.9,4.1-1.2,7.8-1.6c5.4-0.6,8.1-0.5,8.1-3.4c0-2.6-1.9-3.7-6.3-3.7
			C29.5,35.1,28.3,35.5,28.3,35.5z M30.9,45.6c-4.7,0.5-7.3,1-7.3,3.9c0,2.3,1.9,3.8,5.3,3.8c5.7,0,9.4-2.7,9.4-5.7v-3.6
			C37,44.7,34.6,45.2,30.9,45.6z"/>
		<path fill="#D6D6CE" d="M48.1,32.1h4.4v4.1c2.2-3.2,5.4-4.9,9-4.9c0.8,0,1.4,0.1,2,0.4v4.7c-1.2-0.4-2.2-0.5-3.1-0.5
			c-4.2,0-7.8,3.5-7.8,8.7v12h-4.4V32.1z"/>
		<path fill="#D6D6CE" d="M65.4,31.3h4.4v11.4l12.8-10.7h6.6l-11.6,9.3l12.5,15.1h-5.6L74.3,44.1l-4.5,3.6v8.8h-4.4V31.3z"/>
		<path fill="#D6D6CE" d="M93.1,48.5c0.4,3.1,2.9,4.9,7.2,4.9c5,0,7.6-1.5,7.6-3.7c0-1.9-1.4-2.5-4.4-3l-5.5-1
			c-5.7-1-8.6-2.2-8.6-6.7c0-5.1,3.7-7.8,11-7.8c7.3,0,11.1,2.9,11.1,8c0,0,0,0.1,0,0.2h-4.3c-0.3-3.1-2.6-4.4-7.1-4.4
			c-4.2,0-6.3,1.2-6.3,3.3c0,2.3,1.8,2.8,5.5,3.4l5.3,0.9c5.4,0.9,7.8,2.5,7.8,6.9c0,5-4.2,7.9-12.2,7.9c-7.6,0-11.4-2.8-12-8.8
			H93.1z"/>
	</g>
</g>
</svg>
