<?xml version="1.0" encoding="utf-8"?>
<!-- Generator: Adobe Illustrator 25.4.1, SVG Export Plug-In . SVG Version: 6.00 Build 0)  -->
<svg version="1.1" id="Layer_1" xmlns="http://www.w3.org/2000/svg" xmlns:xlink="http://www.w3.org/1999/xlink" x="0px" y="0px"
	 viewBox="0 0 240 80" style="enable-background:new 0 0 240 80;" xml:space="preserve">
<style type="text/css">
	.st0{display:none;}
	.st1{fill:#002D40;}
</style>
<g id="guides" class="st0">
</g>
<g>
	<polygon class="st1" points="157.5,19.2 146,12 134.4,19.2 122.9,12 111.4,19.2 111.4,24.9 122.9,17.7 134.4,24.9 146,17.7 
		157.5,24.9 	"/>
	<polygon class="st1" points="134.4,7.8 122.9,0.7 111.4,7.8 99.8,0.7 88.3,7.8 88.3,13.5 99.8,6.4 111.4,13.5 122.9,6.4 
		134.4,13.5 	"/>
	<g>
		<path class="st1" d="M69.1,64.9h2.1l5.2,12.2l5.2-12.2h2.2l-6.2,14h-2.3L69.1,64.9z"/>
		<path class="st1" d="M85.9,64.9h2v14h-2V64.9z"/>
		<path class="st1" d="M98,79.3c-4.8,0-7.7-2.9-7.7-7.4c0-4.5,2.9-7.4,7.7-7.4c3.9,0,6.6,2.2,6.9,5.5h-2.1c-0.4-2.2-2.2-3.6-4.9-3.6
			c-3.5,0-5.6,2.1-5.6,5.5c0,3.4,2.1,5.5,5.6,5.5c2.8,0,4.7-1.6,5-3.9h2.1C104.7,77,101.9,79.3,98,79.3z"/>
		<path class="st1" d="M112.4,78.9h-2V66.7h-5.3v-1.8h12.6v1.8h-5.3V78.9z"/>
		<path class="st1" d="M125.6,64.5c4.8,0,7.7,2.9,7.7,7.4c0,4.5-2.9,7.4-7.7,7.4c-4.8,0-7.7-2.9-7.7-7.4
			C117.9,67.4,120.8,64.5,125.6,64.5z M125.6,77.4c3.6,0,5.6-2.1,5.6-5.5c0-3.4-2.1-5.5-5.6-5.5c-3.5,0-5.6,2.1-5.6,5.5
			C120,75.3,122,77.4,125.6,77.4z"/>
		<path class="st1" d="M135.5,64.9h7.4c3.3,0,5,1.3,5,3.8c0,1.8-0.8,2.9-2.4,3.4c1.5,0.2,2,1,2.2,2.7l0.2,2.3
			c0.1,0.7,0.1,1.3,0.5,1.8H146c-0.2-0.4-0.2-0.9-0.3-1.5l-0.2-2.1c-0.2-1.9-0.7-2.5-2.8-2.5h-5.3v6h-2V64.9z M137.5,66.6v4.6h4.6
			c2.6,0,3.8-0.5,3.8-2.3c0-1.9-1.2-2.3-3.9-2.3H137.5z"/>
		<path class="st1" d="M151.4,64.9h2v14h-2V64.9z"/>
		<path class="st1" d="M162.3,64.9h2.1l6.2,14h-2.1l-1.8-4h-7.2l-1.9,4h-2.1L162.3,64.9z M165.9,73.1l-2.7-6l-2.8,6H165.9z"/>
	</g>
	<g>
		<path class="st1" d="M60.9,21.8h15.1c8.5,0,12.7,3.2,12.7,10.2c0,7-4.2,10.2-12.7,10.2h-9.6v16.7h-5.5V21.8z M74.1,38.1
			c6.6,0,9.8-1.2,9.8-6c0-4.8-3-6-9.4-6h-8v12H74.1z"/>
		<path class="st1" d="M90.6,35.8c0.6-1.5,0.4-4.4,0.4-4.4c0.9-0.1,1.9-0.1,3-0.1c8.5,0,11.7,2.2,11.7,8.5v10.3
			c0,2.7,0.5,3.8,2.3,3.8c0.4,0,0.8,0,1.3-0.1v3.7c-1.5,0.2-2.7,0.2-3.6,0.2c-2.7,0-4.1-1.2-4.5-4c-2.3,3-6,4.6-10.8,4.6
			c-6.4,0-9.9-2.9-9.9-7.7c0-2.7,1.2-4.7,3.7-6.2c1.5-0.9,4.3-1.3,8.2-1.7c5.7-0.6,8.5-0.5,8.5-3.5c0-2.8-2-3.9-6.6-3.9
			C91.8,35.4,90.6,35.8,90.6,35.8z M93.3,46.4c-5,0.6-7.7,1-7.7,4.1c0,2.4,2,4,5.6,4c5.9,0,9.9-2.8,9.9-6v-3.8
			C99.7,45.5,97.2,46,93.3,46.4z"/>
		<path class="st1" d="M111.4,32.2h4.6v4.3c2.3-3.4,5.6-5.2,9.4-5.2c0.8,0,1.4,0.1,2.1,0.4v4.9c-1.3-0.4-2.3-0.5-3.3-0.5
			c-4.4,0-8.1,3.7-8.1,9.1v12.5h-4.6V32.2z"/>
		<path class="st1" d="M129.5,31.5h4.6v11.9l13.4-11.2h6.9L142.3,42l13.1,15.8h-5.9l-10.6-13l-4.7,3.8v9.2h-4.6V31.5z"/>
		<path class="st1" d="M158.5,49.5c0.4,3.3,3.1,5.1,7.5,5.1c5.2,0,8-1.5,8-3.9c0-2-1.4-2.6-4.6-3.2l-5.7-1c-6-1-9-2.3-9-7
			c0-5.3,3.9-8.2,11.5-8.2c7.7,0,11.7,3,11.7,8.4c0,0,0,0.1,0,0.2h-4.5c-0.3-3.2-2.8-4.6-7.4-4.6c-4.4,0-6.6,1.2-6.6,3.4
			c0,2.4,1.9,2.9,5.7,3.6l5.5,0.9c5.7,1,8.2,2.6,8.2,7.2c0,5.2-4.4,8.3-12.8,8.3c-7.9,0-12-3-12.6-9.2H158.5z"/>
	</g>
</g>
</svg>
