<?xml version="1.0" encoding="utf-8"?>
<!-- Generator: Adobe Illustrator 24.0.3, SVG Export Plug-In . SVG Version: 6.00 Build 0)  -->
<svg version="1.1" id="Layer_1" xmlns="http://www.w3.org/2000/svg" xmlns:xlink="http://www.w3.org/1999/xlink" x="0px" y="0px"
	 viewBox="0 0 240 80" style="enable-background:new 0 0 240 80;" xml:space="preserve">
<style type="text/css">
	.st0{display:none;}
	.st1{fill:#6F7070;}
</style>
<g id="guides" class="st0">
</g>
<g>
	<path class="st1" d="M122.4,53.5c-4.2,4.6-10.4,6.6-16.2,5.8c0.8,1.5,1.9,2.9,3.1,4c6.4,6,16.6,5.8,22.7-0.8
		c6-6.4,5.8-16.6-0.8-22.7c-1.3-1.2-2.7-2.1-4.2-2.9C128.3,42.7,126.8,48.9,122.4,53.5"/>
	<path class="st1" d="M133.4,37.9c4.6,4.2,6.6,10.4,5.8,16.2c1.5-0.8,2.9-1.9,4-3.1c6-6.6,5.8-16.6-0.8-22.7
		c-6.4-6-16.6-5.8-22.7,0.8c-1.2,1.3-2.1,2.7-2.9,4.2C122.6,32,128.7,33.5,133.4,37.9"/>
	<path class="st1" d="M117.6,26.9c4.2-4.6,10.4-6.6,16.2-5.8c-0.8-1.5-1.9-2.9-3.1-4c-6.6-6-16.6-5.8-22.7,0.8
		c-6,6.4-5.8,16.6,0.8,22.7c1.3,1.2,2.7,2.1,4.2,2.9C111.8,37.7,113.3,31.6,117.6,26.9"/>
	<path class="st1" d="M106.8,42.6c-4.6-4.2-6.6-10.4-5.8-16.2c-1.5,0.8-2.9,1.9-4,3.1c-6,6.4-5.8,16.6,0.8,22.7
		c6.6,6,16.6,5.8,22.7-0.8c1.2-1.3,2.1-2.7,2.9-4.2C117.6,48.5,111.4,47,106.8,42.6"/>
</g>
</svg>
