<?xml version="1.0" encoding="utf-8"?>
<!-- Generator: Adobe Illustrator 24.0.3, SVG Export Plug-In . SVG Version: 6.00 Build 0)  -->
<svg version="1.1" id="Layer_1" xmlns="http://www.w3.org/2000/svg" xmlns:xlink="http://www.w3.org/1999/xlink" x="0px" y="0px"
	 viewBox="0 0 240 80" style="enable-background:new 0 0 240 80;" xml:space="preserve">
<style type="text/css">
	.st0{display:none;}
	.st1{fill:#7C7C7C;}
</style>
<g id="guides" class="st0">
</g>
<g id="guides_1_" class="st0">
</g>
<g>
	<path class="st1" d="M107.3,44.2c2.5-2.5,4.7-6,6.4-10c1.7-4.1,2.5-8.2,2.5-11.8l0,0c-2.4,2.5-4.7,5.9-6.3,10
		C108.1,36.5,107.3,40.6,107.3,44.2L107.3,44.2z"/>
	<path class="st1" d="M110.4,49.7c3.3-3.4,6.3-8.1,8.6-13.6c2.2-5.5,3.3-11.1,3.4-16l0,0c-3.3,3.4-6.3,8.1-8.5,13.6
		C111.6,39.2,110.5,44.7,110.4,49.7L110.4,49.7z"/>
	<path class="st1" d="M114.8,56.6c4.4-4.6,8.4-10.8,11.3-18.1c2.9-7.3,4.3-14.7,4.4-21.2l-0.1,0.1c-4.4,4.6-8.3,10.7-11.2,18
		C116.2,42.7,114.8,50,114.8,56.6L114.8,56.6z"/>
	<path class="st1" d="M120.3,66.3c6-6.2,11.4-14.6,15.4-24.5c4-9.9,6-19.9,6-28.8l-0.1,0.1c-6,6.2-11.4,14.6-15.3,24.5
		C122.4,47.4,120.4,57.5,120.3,66.3L120.3,66.3z"/>
</g>
</svg>
