<?xml version="1.0" encoding="utf-8"?>
<!-- Generator: Adobe Illustrator 24.0.1, SVG Export Plug-In . SVG Version: 6.00 Build 0)  -->
<svg version="1.1" id="Layer_1" xmlns="http://www.w3.org/2000/svg" xmlns:xlink="http://www.w3.org/1999/xlink" x="0px" y="0px"
	 viewBox="0 0 240 80" style="enable-background:new 0 0 240 80;" xml:space="preserve">
<style type="text/css">
	.st0{display:none;}
	.st1{fill-rule:evenodd;clip-rule:evenodd;fill:#A6A8AB;}
	.st2{fill-rule:evenodd;clip-rule:evenodd;fill:#3F4042;}
	.st3{fill-rule:evenodd;clip-rule:evenodd;fill:#FFFFFF;}
</style>
<g id="guides" class="st0">
</g>
<g>
	<polygon class="st1" points="52.7,24.2 188.6,24.2 188.6,55.8 52.7,55.8 52.7,24.2 	"/>
	<path class="st2" d="M51.9,23.4v33.2h137.5V23.4H51.9z M187.8,55h-86.4V25h86.4V55z"/>
	<path class="st3" d="M64.5,48.6c-4.6,0-5.4-2.6-5.2-5.6H63c0,1.6,0.1,3,2.1,3c1.2,0,1.8-0.7,1.8-1.9c0-3.1-7.4-3.3-7.4-8.4
		c0-2.6,1.4-4.8,5.8-4.8c3.6,0,5.4,1.6,5.2,5.1h-3.6c0-1.3-0.2-2.6-1.7-2.6c-1.2,0-1.9,0.7-1.9,1.8c0,3.3,7.4,3,7.4,8.4
		C70.6,48,67.3,48.6,64.5,48.6L64.5,48.6z"/>
	<polygon class="st3" points="83.8,31.2 83.8,34.1 79.6,34.1 79.6,48.3 75.9,48.3 75.9,34.1 71.7,34.1 71.7,31.2 83.8,31.2 	"/>
	<path class="st3" d="M91.6,41.9h-3.3l1.6-7.4h0.1L91.6,41.9L91.6,41.9z M86.8,48.3l1-3.8h4.6l1,3.8h3.9l-4.6-17.1h-4.8l-4.6,17.1
		H86.8L86.8,48.3z"/>
	<path class="st3" d="M140.3,41.9H137l1.6-7.4h0.1L140.3,41.9L140.3,41.9z M135.5,48.3l1-3.8h4.6l0.9,3.8h3.9l-4.6-17.1h-4.8
		l-4.6,17.1H135.5L135.5,48.3z"/>
	<polygon class="st3" points="117.4,31.2 117.4,34.1 113.4,34.1 113.4,48.3 109.7,48.3 109.7,34.1 105.7,34.1 105.7,31.2 
		117.4,31.2 	"/>
	<path class="st3" d="M123,33.8h1.6c1.1,0,1.8,0.7,1.8,2.3c0,1.1-0.4,2.5-1.8,2.5H123V33.8L123,33.8z M123,41.2h0.9
		c2.7,0,2.5,1.8,2.5,3.8c0,1.1-0.1,2.2,0.4,3.3h3.4c-0.3-0.7-0.4-3.9-0.4-5c0-3.1-2.2-3.3-3-3.4l0,0c2.3-0.4,3.1-2,3.1-4.2
		c0-2.9-1.5-4.5-3.9-4.5h-6.5v17.1h3.5V41.2L123,41.2z"/>
	<polygon class="st3" points="145.7,31.2 149.3,31.2 152,43.6 152.1,43.6 155,31.2 158.5,31.2 154,48.3 149.8,48.3 145.7,31.2 	"/>
	<polygon class="st3" points="160.7,48.3 160.7,31.2 169.8,31.2 169.8,33.8 164.2,33.8 164.2,38.1 169.4,38.1 169.4,40.6 
		164.2,40.6 164.2,45.7 170,45.7 170,48.3 160.7,48.3 	"/>
	<polygon class="st3" points="172.8,48.3 172.8,31.2 176.4,31.2 176.4,45.5 181.5,45.5 181.5,48.3 172.8,48.3 	"/>
</g>
</svg>
