<?xml version="1.0" encoding="utf-8"?>
<!-- Generator: Adobe Illustrator 24.0.3, SVG Export Plug-In . SVG Version: 6.00 Build 0)  -->
<svg version="1.1" id="Layer_1" xmlns="http://www.w3.org/2000/svg" xmlns:xlink="http://www.w3.org/1999/xlink" x="0px" y="0px"
	 viewBox="0 0 240 80" style="enable-background:new 0 0 240 80;" xml:space="preserve">
<style type="text/css">
	.st0{display:none;}
	.st1{fill:#727070;}
</style>
<g id="guides" class="st0">
</g>
<g id="guides_1_" class="st0">
</g>
<g>
	<path class="st1" d="M151.1,40.9c0.2,0,0.6,0,0.9,0.1c-0.2,1.2-1.1,2.1-2.5,2.1c-0.7,0-1.1-0.5-1.1-0.9
		C148.3,41.4,149.5,40.9,151.1,40.9z M89.9,40.9c0.2,0,0.6,0,0.9,0.1c-0.2,1.2-1.1,2.1-2.5,2.1c-0.7,0-1.1-0.5-1.1-0.9
		C87.2,41.4,88.3,40.9,89.9,40.9z M161.9,38.2c1.1,0,1.6,0.9,1.6,1.8c0,1.2-0.9,2.8-2.5,2.8c-1,0-1.6-0.7-1.6-1.8
		C159.4,39.6,160.4,38.2,161.9,38.2z M115.4,38c1.3,0,1.7,0.9,1.7,1.8c0,2-1,3.2-2.5,3.2c-1.1,0-1.8-0.8-1.8-2
		C112.9,39.6,113.8,38,115.4,38z M173.3,37.9c1.2,0,1.6,0.8,1.6,1.7h-4C171.2,38.8,171.9,37.9,173.3,37.9z M82.5,37.7
		c-0.2,0-0.4,0-0.5,0c-2.3,0.2-3.1,1.7-4.4,3.7c-1,1.5-4.1,7.1-5.5,9.5c1.6,0.8,3.1,0.8,4.7,0.3c1.1-0.4,1.7-0.6,2.3-1.1
		c0.2-0.2,0.4-0.3,0.5-0.5l0.1-0.1c0,0,0,0,0.1-0.1c2-3.2,3.5-8.1,4.2-10.7c0.1-0.3,0.2-0.6,0.2-1C83.6,37.7,83,37.7,82.5,37.7z
		 M70.7,37.6c-0.3,0-0.5,0-0.8,0.1c-3.9,0.5-7,1.5-8.6,2.1c0.1,0.3,0.2,0.6,0.2,0.6c0,0,0,0.1,0,0.1c0.7,2.2,2.9,4.8,6.5,7.7
		c0.1,0.1,0.3,0.2,0.4,0.3c2.2-3.2,3.3-5.6,4.2-8.2C73.3,38.3,72.5,37.6,70.7,37.6z M94.6,36.1l2.1,8.8c-0.4,0.9-1,1.5-1.9,1.5
		c-0.6,0-1.1-0.1-1.5-0.3l-0.7,2.2c0.6,0.2,1.4,0.4,2.6,0.4c2.1,0,3.2-1,4.2-2.6l6.2-10h-3.5l-3.2,5.6h0L98,36.1H94.6z M173.3,35.9
		c-4.2,0-5.7,3.2-5.7,5.2c0,2.2,1.7,4,4.9,4c1,0,2.2-0.2,3.3-0.5l0.4-2.1c-0.9,0.4-2.1,0.6-3,0.6c-2,0-2.5-0.7-2.6-1.7h6.7
		c0.1-0.5,0.2-1.3,0.2-1.7C177.7,37,175.8,35.9,173.3,35.9z M151.3,35.9c-1.5,0-2.5,0.2-3.5,0.5l-0.3,2.2c1.1-0.5,1.9-0.7,3.1-0.7
		c1.1,0,1.7,0.5,1.7,1.1c0,0.1,0,0.2,0,0.4c-0.5,0-1.1-0.1-1.8-0.1c-2.9,0-5.3,1.1-5.3,3.2c0,1.7,1.1,2.6,3.2,2.6
		c1.3,0,2.5-0.4,3.2-1.4v0l0,0l-0.1,1.2h2.7c0.4-2.7,1.2-4.6,1.2-6C155.4,36.7,153.5,35.9,151.3,35.9z M127.9,35.9
		c-1.4,0-2.4,1-2.9,2h0l0.4-1.8h-3c-0.1,0.8-0.2,1.5-0.4,2.3l-1.5,6.5h3.3l0.9-4.1c0.2-1.3,1.1-2.4,2.5-2.4c0.6,0,1.1,0.1,1.5,0.4
		l0.8-2.7C128.9,35.9,128.4,35.9,127.9,35.9z M115.6,35.9c-3.7,0-6.2,2.1-6.2,5.2c0,2.2,1.4,4,5,4c3.6,0,6.1-1.6,6.1-5.3
		C120.5,37.6,118.8,35.9,115.6,35.9z M90.1,35.9c-1.5,0-2.5,0.2-3.5,0.5l-0.3,2.2c1.1-0.5,1.9-0.7,3.1-0.7c1.1,0,1.8,0.5,1.8,1.1
		c0,0.1,0,0.2,0,0.4c-0.5,0-1.1-0.1-1.8-0.1c-2.9,0-5.2,1.1-5.2,3.2c0,1.7,1.1,2.6,3.2,2.6c1.3,0,2.5-0.4,3.2-1.4v0l0,0l-0.1,1.2H93
		c0.4-2.7,1.2-4.6,1.2-6C94.2,36.7,92.4,35.9,90.1,35.9z M178.7,34.7h0.3c0.2,0,0.2,0.1,0.2,0.2c0,0.1-0.1,0.2-0.3,0.2h-0.3
		L178.7,34.7z M178.4,34.5l-0.3,1.3h0.3l0.1-0.5h0.3c0.2,0,0.2,0.1,0.2,0.3c0,0.1,0,0.2,0,0.3h0.3l0,0c-0.1,0-0.1-0.1,0-0.3
		c0.1-0.2,0-0.3-0.1-0.3c0.1,0,0.2-0.2,0.3-0.3c0-0.1,0-0.4-0.3-0.4H178.4z M178.8,34.2c0.6,0,1,0.5,1,1c0,0.6-0.5,1-1,1
		c-0.6,0-1-0.5-1-1C177.8,34.7,178.2,34.2,178.8,34.2z M178.8,33.9c-0.7,0-1.3,0.6-1.3,1.3c0,0.7,0.6,1.3,1.3,1.3
		c0.7,0,1.3-0.6,1.3-1.3C180.1,34.5,179.5,33.9,178.8,33.9z M131.4,33.1l-2.8,11.8h3.1l2.2-9.7h0l0.5,9.7h3.2l5-9.7h0l-2.3,9.7h3.3
		l2.7-11.8h-5.4l-4,7.9h0l-0.2-7.9H131.4z M165.4,32.2l-1.2,5.3h0c-0.5-0.9-1.6-1.6-3.3-1.6c-3.3,0-4.8,2.7-4.8,5.6
		c0,2,1.5,3.6,3.5,3.6c1.8,0,2.6-0.6,3.5-1.6h0l-0.3,1.4h3c0-0.4,0.1-0.8,0.2-1.3l2.6-11.4H165.4z M107.1,32.2l-2.8,12.7h3.3
		l2.8-12.7H107.1z M74.5,28.7c-5.1,0-9.4,2.1-11.9,5.1c9.2-1.9,16.8-1.2,22.5-0.3c0-0.2,0.1-0.3,0.1-0.5c0,0,0-0.1,0-0.1v-0.1
		c0-0.7-0.3-1.4-1-1.7C80.9,29.3,77.6,28.6,74.5,28.7z"/>
</g>
</svg>
