<?xml version="1.0" encoding="utf-8"?>
<!-- Generator: Adobe Illustrator 25.3.1, SVG Export Plug-In . SVG Version: 6.00 Build 0)  -->
<svg version="1.1" id="Layer_1" xmlns="http://www.w3.org/2000/svg" xmlns:xlink="http://www.w3.org/1999/xlink" x="0px" y="0px"
	 viewBox="0 0 240 80" enable-background="new 0 0 240 80" xml:space="preserve">
<g id="guides" display="none">
</g>
<g id="SEARCH---FILTERS---new_1_">
	<g id="DESKTOP---SEARCH-AVAILABILITY-BUTTON_1_" transform="translate(-50.000000, 0.000000)">
		<g id="Group-11_1_">
			<g id="Page-1_1_" transform="translate(50.000000, 0.000000)">
				<g id="Group-15_1_" transform="translate(19.000000, 19.000000)">
					<path id="Fill-2_1_" fill="#253148" d="M55.8-18.1v52.7h41.6l0-29.6H79.1v11.4h-4.9V0h51.1v16.5h-4.7V4.8h-18.3l0,29.8h41.2
						v-52.7H55.8z M137,27.9H109V11.4h5.1V23h18.1V-6.6H67.6v29.5h18.2l0-11.5h5v16.5H62.5v-39.5H137V27.9z"/>
					<path id="Fill-3_1_" fill="#253148" d="M60.4,60.1h1.8V48.3h4.6v-1.5h-11v1.5h4.6V60.1z M68.2,60.1H70V54h6.3v-1.5H70v-4.2h7.2
						v-1.5h-9.1V60.1z M78.7,60.1h9.6v-1.5h-7.7V54h7.2v-1.5h-7.2v-4.2h7.7v-1.5h-9.5V60.1z M95.2,60.1h1.6v-5.4c0-1.7,1-3,3-3
						c1.3,0,2,0.8,2,1.9v6.5h1.6v-6.3c0-2.1-0.8-3.5-3.4-3.5c-1.2,0-2.6,0.5-3.1,1.6h0v-5.1h-1.6V60.1z M105,55.3c0,2.8,1.7,5,4.8,5
						c3.2,0,4.8-2.2,4.8-5c0-2.8-1.7-5-4.8-5C106.7,50.2,105,52.4,105,55.3L105,55.3z M106.7,55.3c0-2.3,1.4-3.6,3.1-3.6
						s3.1,1.3,3.1,3.6c0,2.3-1.4,3.6-3.1,3.6S106.7,57.6,106.7,55.3L106.7,55.3z M118.5,47.6h-1.6v2.9h-1.7v1.4h1.7V58
						c0,1.8,0.7,2.1,2.4,2.1h1.3v-1.4h-0.8c-1,0-1.2-0.1-1.2-0.9v-6h2v-1.4h-2V47.6z M128.8,57c-0.3,1.2-1.2,1.9-2.6,1.9
						c-2.2,0-3.2-1.5-3.1-3.2h7.5c0.1-2.3-1-5.5-4.5-5.5c-2.7,0-4.7,2.1-4.7,5c0.1,2.9,1.6,5.1,4.8,5.1c2.2,0,3.8-1.2,4.3-3.3H128.8
						z M123.1,54.3c0.1-1.5,1.1-2.7,2.9-2.7c1.6,0,2.8,1.2,2.9,2.7H123.1z M132.2,60.1h1.6V46.8h-1.6V60.1z M135.1,57
						c0.1,2.4,2,3.3,4.2,3.3c2,0,4.2-0.7,4.2-3c0-1.9-1.6-2.4-3.3-2.7c-1.5-0.4-3.3-0.5-3.3-1.7c0-1,1.1-1.2,2.1-1.2
						c1.1,0,2.2,0.4,2.3,1.6h1.6c-0.1-2.3-1.9-3-4.1-3c-1.7,0-3.7,0.8-3.7,2.7c0,1.8,1.6,2.4,3.3,2.7c1.6,0.4,3.3,0.6,3.3,1.8
						c0,1.2-1.4,1.4-2.4,1.4c-1.4,0-2.6-0.4-2.7-1.9H135.1z"/>
				</g>
			</g>
		</g>
	</g>
</g>
</svg>
