<?xml version="1.0" encoding="utf-8"?>
<!-- Generator: Adobe Illustrator 25.4.1, SVG Export Plug-In . SVG Version: 6.00 Build 0)  -->
<svg version="1.1" id="Layer_1" xmlns="http://www.w3.org/2000/svg" xmlns:xlink="http://www.w3.org/1999/xlink" x="0px" y="0px"
	 viewBox="0 0 240 80" style="enable-background:new 0 0 240 80;" xml:space="preserve">
<style type="text/css">
	.st0{display:none;}
	.st1{opacity:0.8;fill-rule:evenodd;clip-rule:evenodd;fill:#002D40;}
	.st2{fill-rule:evenodd;clip-rule:evenodd;fill:#002D40;}
	.st3{fill-rule:evenodd;clip-rule:evenodd;fill:#9FCBE9;}
	.st4{fill:#9FCBE9;}
</style>
<g id="guides" class="st0">
</g>
<path class="st1" d="M191.9,35.8c0-4.7-2.9-8.6-6.9-10.3l0,0l0,0l0,0L131.2,3l0,0c-2.9-1.3-6-1.9-9.2-1.9c-3.3,0-6.3,0.7-9,1.9l0,0
	L58.9,25.4c0,0-0.1,0-0.1,0.1l-0.1,0.1l0,0C54.7,27.4,52,31.4,52,36s2.9,8.6,6.7,10.3l0,0h0.1l0,0l53.9,30.3l0,0
	c2.7,1.1,5.9,1.9,9,1.9c3.3,0,6.3-0.7,9.2-1.9h0.1l53.9-30.1l0,0C189,44.4,191.9,40.6,191.9,35.8z"/>
<polygon class="st2" points="65.4,25.4 70.7,25.4 73.7,37.9 73.7,37.9 76,25.4 81.1,25.4 76.8,47.4 70.7,47.4 "/>
<polygon class="st2" points="109.3,40.2 109.3,40.5 109.1,40.8 109.1,41.2 109,41.5 109,41.9 108.8,42.2 108.8,42.5 108.5,43.2 
	108.4,43.5 108.3,43.8 108.3,44.1 108.1,44.2 108,44.5 107.8,44.8 107.7,45 107.5,45.1 107.4,45.2 107.2,45.4 107.1,45.5 107,45.7 
	106.8,45.8 106.7,46 106.5,46.1 106.4,46.2 106.2,46.4 106.1,46.4 105.8,46.5 105.5,46.7 105.4,46.8 105.1,46.8 104.8,47 
	104.4,47.1 104.1,47.2 103.7,47.2 103.2,47.4 102.9,47.4 102.5,47.4 102.2,47.4 101.9,47.4 101.5,47.4 101.2,47.4 100.8,47.2 
	100.5,47.1 100.1,47 99.8,46.8 99.5,46.7 99.2,46.4 98.8,46.2 98.5,46 98.2,45.7 97.9,45.4 97.8,45.1 97.5,44.8 97.2,44.4 96.9,44 
	96.8,43.7 96.5,43.2 96.3,42.8 96.2,42.4 96.1,41.8 95.8,41.4 95.6,40.8 95.6,40.4 95.5,39.8 95.3,39.2 95.3,38.6 95.2,38.1 
	95.2,37.5 95.2,36.9 95.2,36.2 95.2,35.6 95.2,34.9 95.2,34.3 95.3,33.8 95.3,33.2 95.5,32.6 95.6,32.2 95.6,31.6 95.9,31 
	96.1,30.6 96.2,30.2 96.3,29.6 96.6,29.2 96.8,28.9 97.1,28.5 97.2,28 97.5,27.7 97.8,27.3 98.1,27 98.4,26.7 98.6,26.5 98.9,26.2 
	99.2,26 99.6,25.7 99.9,25.6 100.4,25.4 100.6,25.3 101.1,25.2 101.4,25.2 101.8,25 102.2,25 102.5,25 102.9,25 103.2,25 103.5,25 
	103.8,25.2 104.1,25.2 104.4,25.3 104.7,25.4 105,25.4 105.2,25.6 105.5,25.7 105.8,25.9 106.1,26.2 106.4,26.3 106.7,26.5 
	106.8,26.7 107.1,26.9 107.2,27.2 107.5,27.5 107.7,27.7 108,28 108.1,28.3 108.3,28.6 108.4,28.9 108.5,29.2 108.7,29.6 
	108.8,29.9 108.8,30.3 109,30.6 109,31 109.1,31.5 109.1,31.9 109.1,32.3 103.8,32.3 103.8,32 103.8,31.6 103.7,31.3 103.7,31.2 
	103.7,30.9 103.5,30.8 103.4,30.6 103.4,30.3 103.2,30.3 103.2,30.2 103.1,30.2 103.1,30 102.9,30 102.9,30 102.8,29.9 102.8,29.9 
	102.7,29.9 102.5,29.9 102.5,29.8 102.4,29.8 102.2,29.8 102.2,29.9 102.1,29.9 102.1,29.9 101.9,29.9 101.8,29.9 101.8,30 
	101.7,30 101.5,30.2 101.4,30.2 101.4,30.3 101.2,30.5 101.1,30.6 100.9,30.8 100.8,30.9 100.8,31 100.6,31.3 100.5,31.5 
	100.5,31.6 100.4,31.9 100.2,32.2 100.2,32.5 100.1,32.8 99.9,33 99.9,33.3 99.9,33.8 99.8,34.1 99.8,34.5 99.8,34.9 99.6,35.3 
	99.6,35.8 99.6,36.2 99.6,36.6 99.6,37.1 99.8,37.5 99.8,37.9 99.8,38.4 99.8,38.6 99.9,39.1 99.9,39.4 99.9,39.6 100.1,39.9 
	100.1,40.2 100.2,40.5 100.2,40.7 100.4,40.9 100.5,41.1 100.5,41.4 100.6,41.5 100.8,41.7 100.8,41.8 100.9,41.9 101.1,42.1 
	101.2,42.1 101.2,42.2 101.4,42.4 101.5,42.4 101.7,42.5 101.8,42.5 101.9,42.5 101.9,42.5 102.1,42.7 102.2,42.7 102.5,42.7 
	102.5,42.7 102.7,42.5 102.7,42.5 102.8,42.5 102.9,42.5 102.9,42.5 103.1,42.4 103.1,42.4 103.2,42.4 103.2,42.2 103.4,42.1 
	103.4,42.1 103.5,41.9 103.5,41.8 103.7,41.7 103.7,41.5 103.7,41.4 103.8,41.2 103.8,40.9 103.9,40.7 103.9,40.2 103.9,39.9 
	103.9,39.4 103.9,38.9 100.6,38.9 100.6,34.9 109.3,34.9 109.3,35.1 109.3,35.5 109.3,36.1 109.4,36.8 109.4,37.6 109.4,38.5 
	109.4,38.9 109.3,39.4 109.3,39.8 "/>
<polygon class="st2" points="82.7,25.4 93.6,25.4 93.6,29.9 87.5,29.9 87.5,33.8 93.5,33.8 93.5,38.2 87.5,38.2 87.5,42.7 
	93.9,42.7 93.9,47.4 82.7,47.4 "/>
<polygon class="st2" points="64.4,24.6 69.8,24.6 72.8,36.9 72.8,36.9 75.1,24.6 80.3,24.6 75.8,46.5 69.8,46.5 "/>
<polygon class="st3" points="70.2,45.8 75.4,45.8 79.4,25.3 75.4,25.3 72.8,39.1 69.4,25.3 65.2,25.3 "/>
<polygon class="st2" points="108.4,39.2 108.3,39.6 108.3,39.9 108.3,40.2 108,40.9 107.8,41.7 107.7,41.9 107.7,42.2 107.5,42.5 
	107.4,42.8 107.2,43.1 107.1,43.4 107,43.7 106.8,43.8 106.7,44 106.7,44.2 106.5,44.4 106.4,44.5 106.1,44.8 106,45 105.8,45.1 
	105.7,45.2 105.4,45.2 105.2,45.4 105.1,45.5 105,45.7 104.8,45.7 104.5,45.8 104.4,45.8 104.2,46 103.8,46.1 103.5,46.2 
	103.1,46.2 102.8,46.4 102.4,46.4 101.9,46.5 101.7,46.5 101.4,46.5 100.9,46.5 100.6,46.5 100.2,46.4 99.9,46.4 99.5,46.2 
	99.2,46.1 98.9,46 98.5,45.7 98.2,45.5 97.9,45.2 97.6,45.1 97.4,44.8 97.1,44.5 96.8,44.2 96.5,43.8 96.3,43.5 96.1,43.1 
	95.8,42.7 95.6,42.4 95.5,41.8 95.2,41.4 95.1,40.9 94.9,40.5 94.8,39.9 94.6,39.4 94.5,38.9 94.5,38.4 94.3,37.8 94.3,37.2 
	94.2,36.6 94.2,35.9 94.2,35.3 94.2,34.6 94.2,34.1 94.3,33.5 94.3,32.9 94.5,32.3 94.5,31.8 94.6,31.2 94.8,30.6 94.9,30.2 
	95.1,29.8 95.2,29.2 95.5,28.7 95.6,28.3 95.9,27.9 96.1,27.5 96.3,27.2 96.6,26.7 96.9,26.5 97.1,26.2 97.4,25.9 97.8,25.6 
	98.1,25.3 98.4,25.2 98.6,24.9 99.1,24.7 99.4,24.6 99.8,24.4 100.1,24.3 100.5,24.2 100.8,24.2 101.2,24.2 101.7,24.2 101.9,24.2 
	102.2,24.2 102.5,24.2 102.9,24.2 103.2,24.3 103.5,24.4 103.8,24.4 104.1,24.6 104.4,24.7 104.7,24.9 105,25 105.2,25.2 
	105.4,25.3 105.7,25.6 106,25.7 106.2,26 106.4,26.3 106.7,26.5 106.8,26.7 107,27 107.2,27.3 107.4,27.6 107.5,28 107.7,28.3 
	107.8,28.6 107.8,29 108,29.3 108.1,29.8 108.1,30.2 108.1,30.6 108.3,31 108.3,31.5 102.9,31.5 102.9,31 102.8,30.6 102.8,30.5 
	102.7,30 102.7,29.9 102.5,29.6 102.4,29.5 102.4,29.3 102.2,29.3 102.2,29.2 102.2,29.2 102.1,29.2 101.9,29 101.9,29 101.8,29 
	101.8,28.9 101.7,28.9 101.5,28.9 101.4,28.9 101.4,28.9 101.2,28.9 101.2,28.9 101.1,29 101.1,29 100.9,29 100.8,29 100.6,29.2 
	100.6,29.2 100.5,29.3 100.4,29.5 100.2,29.6 100.2,29.8 100.1,29.9 99.9,30 99.8,30.2 99.8,30.3 99.6,30.6 99.5,30.8 99.4,31 
	99.4,31.3 99.2,31.5 99.2,31.8 99.1,32.2 99.1,32.5 98.9,32.8 98.9,33.2 98.8,33.5 98.8,33.9 98.8,34.3 98.8,34.8 98.8,35.8 
	98.8,36.2 98.8,36.6 98.8,37.1 98.9,37.5 98.9,37.8 98.9,38.1 99.1,38.5 99.1,38.8 99.1,39.1 99.2,39.4 99.2,39.6 99.4,39.8 
	99.5,40.1 99.5,40.2 99.6,40.4 99.6,40.7 99.8,40.8 99.9,40.9 100.1,41.1 100.1,41.1 100.2,41.2 100.4,41.4 100.5,41.4 100.6,41.5 
	100.6,41.5 100.8,41.7 100.9,41.7 101.1,41.7 101.2,41.7 101.4,41.7 101.5,41.7 101.7,41.7 101.8,41.7 101.9,41.7 101.9,41.7 
	102.1,41.5 102.1,41.5 102.2,41.5 102.2,41.4 102.4,41.4 102.4,41.2 102.5,41.2 102.5,41.1 102.7,40.9 102.7,40.9 102.7,40.8 
	102.8,40.7 102.8,40.5 102.8,40.4 102.9,40.1 102.9,39.8 103.1,39.4 103.1,38.9 103.1,38.5 103.1,38.1 99.6,38.1 99.6,34.1 
	108.4,34.1 108.4,34.2 108.4,34.5 108.4,35.1 108.4,35.9 108.4,36.6 108.4,37.5 108.4,38.1 108.4,38.5 108.4,38.8 "/>
<polygon class="st3" points="107.7,34.6 100.2,34.6 100.2,37.4 103.8,37.4 103.8,37.9 103.8,38.5 103.8,39.1 103.8,39.6 103.7,39.8 
	103.7,40.1 103.7,40.2 103.7,40.4 103.5,40.7 103.5,40.8 103.4,41.1 103.4,41.2 103.2,41.4 103.2,41.5 103.1,41.7 102.9,41.8 
	102.9,41.9 102.8,41.9 102.7,42.1 102.5,42.1 102.4,42.2 102.2,42.2 102.1,42.2 101.9,42.4 101.8,42.4 101.4,42.4 101.2,42.4 
	101.1,42.4 100.8,42.2 100.6,42.2 100.5,42.2 100.1,41.9 99.9,41.8 99.8,41.8 99.6,41.7 99.5,41.4 99.4,41.1 99.2,40.9 99.1,40.7 
	98.9,40.5 98.9,40.2 98.8,39.9 98.6,39.6 98.6,39.4 98.5,39.1 98.5,38.8 98.4,38.5 98.4,38.2 98.2,37.5 98.2,37.2 98.2,36.8 
	98.2,36.5 98.2,35.8 98.2,35.3 98.2,34.9 98.2,34.3 98.2,33.9 98.2,33.5 98.2,33.2 98.4,32.8 98.4,32.3 98.5,32 98.5,31.8 
	98.6,31.3 98.6,31 98.8,30.8 98.9,30.5 98.9,30.3 99.1,30 99.2,29.8 99.4,29.6 99.5,29.5 99.6,29.2 99.6,29 99.8,28.9 99.9,28.7 
	100.1,28.6 100.4,28.6 100.5,28.5 100.6,28.3 100.8,28.3 100.9,28.3 101.1,28.2 101.2,28.2 101.4,28.2 101.7,28.2 101.8,28.2 
	101.8,28.2 101.9,28.2 101.9,28.3 102.1,28.3 102.2,28.3 102.2,28.3 102.4,28.5 102.4,28.5 102.5,28.6 102.5,28.6 102.7,28.7 
	102.8,29 102.9,29.2 103.1,29.3 103.1,29.6 103.2,29.8 103.2,30 103.4,30.5 103.5,30.8 107.7,30.8 107.7,30.5 107.5,30.3 107.5,30 
	107.5,29.9 107.5,29.6 107.4,29.5 107.4,29.2 107.2,28.9 107.1,28.5 107,28.2 106.8,27.9 106.7,27.7 106.5,27.5 106.4,27.2 
	106.1,26.9 106,26.7 105.8,26.5 105.5,26.3 105.4,26 105.1,25.9 104.8,25.7 104.5,25.6 104.2,25.4 103.9,25.3 103.7,25.2 103.4,25 
	103.1,24.9 102.7,24.9 102.4,24.9 102.1,24.7 101.7,24.7 101.2,24.7 100.9,24.9 100.6,24.9 100.2,24.9 99.9,25 99.6,25.2 99.2,25.3 
	98.9,25.4 98.6,25.6 98.4,25.9 98.1,26 97.8,26.3 97.5,26.6 97.2,26.9 96.9,27.2 96.8,27.5 96.5,27.9 96.3,28.2 96.1,28.6 95.9,29 
	95.8,29.5 95.5,29.9 95.3,30.3 95.2,30.9 95.2,31.3 95.1,31.9 94.9,32.3 94.9,32.9 94.8,33.5 94.8,34.1 94.8,34.6 94.8,35.3 
	94.8,35.9 94.8,36.5 94.8,37.1 94.9,37.6 94.9,38.2 95.1,38.8 95.1,39.4 95.2,39.8 95.3,40.2 95.5,40.8 95.6,41.2 95.9,41.7 
	96.1,41.9 96.2,42.4 96.5,42.8 96.6,43.1 96.9,43.4 97.2,43.8 97.5,44.1 97.6,44.2 97.9,44.5 98.2,44.8 98.5,45 98.8,45.1 
	99.1,45.4 99.4,45.5 99.8,45.5 100.1,45.7 100.4,45.8 100.6,45.8 100.9,45.8 101.4,45.8 101.7,45.8 102.1,45.8 102.4,45.8 
	102.8,45.7 102.9,45.7 103.2,45.7 103.4,45.7 103.5,45.5 103.7,45.5 103.8,45.4 104.2,45.2 104.5,45.1 104.7,45.1 104.8,45 
	105,44.8 105.1,44.7 105.2,44.5 105.4,44.5 105.7,44.4 105.8,44.2 106,43.8 106.1,43.7 106.2,43.5 106.4,43.4 106.5,43.1 
	106.7,42.8 107,42.4 107,42.1 107.1,41.8 107.2,41.7 107.2,41.4 107.4,41.1 107.4,40.8 107.5,40.4 107.5,40.1 107.5,39.6 
	107.7,39.4 107.7,38.9 107.7,38.5 107.8,38.2 107.8,37.8 107.8,37.5 107.8,37.2 107.8,36.5 107.7,35.9 107.7,35.5 107.7,35.1 
	107.7,34.8 "/>
<polygon class="st2" points="81.9,24.4 92.8,24.4 92.8,29 86.6,29 86.6,32.9 92.6,32.9 92.6,37.2 86.6,37.2 86.6,41.7 93,41.7 
	93,46.4 81.9,46.4 "/>
<polygon class="st3" points="82.4,45.7 92.3,45.7 92.3,42.4 85.9,42.4 85.9,36.6 92,36.6 92,33.6 85.9,33.6 85.9,28.3 92,28.3 
	92,25.2 82.4,25.2 "/>
<polygon class="st2" points="124.5,25.3 130.6,25.3 134.2,32.9 134.4,32.9 137.2,25.3 143.5,25.3 143.5,47.2 138.7,47.2 138.7,35.6 
	134.4,47.2 129.5,35.6 129.5,47.2 124.5,47.2 "/>
<polygon class="st2" points="146.4,25.4 152.1,25.4 152.1,47.4 146.4,47.4 "/>
<polygon class="st2" points="157.5,30.2 153.7,30.2 153.7,25.4 166.3,25.4 166.3,30.2 162.5,30.2 162.5,47.4 157.5,47.4 "/>
<polygon class="st2" points="167.8,25.4 178.7,25.4 178.7,30 172.5,30 172.5,33.9 178.5,33.9 178.5,38.2 172.5,38.2 172.5,42.7 
	179,42.7 179,47.4 167.8,47.4 "/>
<polygon class="st2" points="123.6,24.6 129.8,24.6 133.4,32.2 133.4,32.2 136.4,24.6 142.5,24.6 142.5,46.5 137.8,46.5 137.8,34.7 
	133.4,46.5 128.5,34.7 128.5,46.5 123.6,46.5 "/>
<polygon class="st3" points="124.2,45.7 127.9,45.7 127.9,30.8 133.4,44.2 138.4,30.9 138.4,45.7 142,45.7 142,25.2 136.8,25.2 
	133.4,34.2 129.3,25.2 124.2,25.2 "/>
<polygon class="st2" points="145.5,24.6 151.3,24.6 151.3,46.5 145.5,46.5 "/>
<polygon class="st3" points="146.1,45.8 150.6,45.8 150.6,25.3 146.1,25.3 "/>
<polygon class="st2" points="156.4,29.3 152.9,29.3 152.9,24.6 165.5,24.6 165.5,29.3 161.6,29.3 161.6,46.5 156.4,46.5 "/>
<polygon class="st3" points="157.2,45.8 160.9,45.8 160.9,28.6 164.8,28.6 164.8,25.3 153.4,25.3 153.4,28.6 157.2,28.6 "/>
<polygon class="st2" points="166.9,24.6 177.8,24.6 177.8,29.2 171.7,29.2 171.7,33 177.7,33 177.7,37.4 171.7,37.4 171.7,41.8 
	178.1,41.8 178.1,46.5 166.9,46.5 "/>
<polygon class="st3" points="167.5,45.8 177.4,45.8 177.4,42.5 170.9,42.5 170.9,36.6 177.1,36.6 177.1,33.6 170.9,33.6 170.9,28.5 
	177.1,28.5 177.1,25.3 167.5,25.3 "/>
<polygon class="st2" points="111.1,25.4 122,25.4 122,29.9 115.9,29.9 115.9,33.8 122,33.8 122,38.2 115.9,38.2 115.9,42.7 
	122.3,42.7 122.3,47.4 111.1,47.4 "/>
<polygon class="st2" points="110.3,24.4 121.2,24.4 121.2,29 115,29 115,32.9 121,32.9 121,37.2 115,37.2 115,41.7 121.4,41.7 
	121.4,46.4 110.3,46.4 "/>
<polygon class="st3" points="110.8,45.7 120.7,45.7 120.7,42.4 114.3,42.4 114.3,36.6 120.4,36.6 120.4,33.6 114.3,33.6 114.3,28.3 
	120.4,28.3 120.4,25.2 110.8,25.2 "/>
<g>
	<path class="st4" d="M82.8,53.9c0,0.1,0,0.2,0,0.3c0,0.8-0.3,1.5-1.3,1.5c-1.4,0-1.5-0.9-1.5-2.1v-0.7c0-1.2,0.1-2.1,1.5-2.1
		c0.8,0,1.2,0.4,1.3,1.2c0,0.1,0,0.2,0,0.4h-0.9c0-0.3,0-0.9-0.4-0.9c-0.7,0-0.6,0.8-0.6,1.2v1.3c0,0.4,0,1,0.6,1
		c0.5,0,0.4-0.8,0.4-1.1H82.8z"/>
	<path class="st4" d="M83.4,52.8c0-1.2,0.1-2.1,1.5-2.1s1.5,0.9,1.5,2.1v0.7c0,1.2-0.1,2.1-1.5,2.1c-1.4,0-1.5-0.9-1.5-2.1V52.8z
		 M84.2,53.9c0,0.4,0,1,0.6,1c0.6,0,0.6-0.6,0.6-1.1v-1.2c0-0.4,0-1.2-0.6-1.2c-0.7,0-0.6,0.8-0.6,1.2V53.9z"/>
	<path class="st4" d="M89.1,50.9H90v4.6h-0.9l-0.7-1.7c-0.2-0.6-0.4-1.1-0.6-1.8h0c0,0.4,0.1,0.9,0.1,1.3c0,0.5,0,0.9,0,1.3v0.9
		h-0.9v-4.6H88l0.7,1.7c0.2,0.5,0.4,1.1,0.6,1.8h0c0-0.4-0.1-0.9-0.1-1.3s0-0.9,0-1.3V50.9z"/>
	<path class="st4" d="M93.5,53.9c0,0.1,0,0.2,0,0.3c0,0.8-0.3,1.5-1.3,1.5c-1.4,0-1.5-0.9-1.5-2.1v-0.7c0-1.2,0.1-2.1,1.5-2.1
		c0.8,0,1.2,0.4,1.3,1.2c0,0.1,0,0.2,0,0.4h-0.9c0-0.3,0-0.9-0.4-0.9c-0.7,0-0.6,0.8-0.6,1.2v1.3c0,0.4,0,1,0.6,1
		c0.5,0,0.4-0.8,0.4-1.1H93.5z"/>
	<path class="st4" d="M94.1,55.5v-4.6h2.4v0.7h-1.6v1.2h1.4v0.7h-1.4v1.4h1.6v0.7H94.1z"/>
	<path class="st4" d="M99.2,50.9h0.9v4.6h-0.9l-0.7-1.7c-0.2-0.6-0.4-1.1-0.6-1.8h0c0,0.4,0.1,0.9,0.1,1.3c0,0.5,0,0.9,0,1.3v0.9
		h-0.9v-4.6H98l0.7,1.7c0.2,0.5,0.4,1.1,0.6,1.8h0c0-0.4-0.1-0.9-0.1-1.3s0-0.9,0-1.3V50.9z"/>
	<path class="st4" d="M100.5,50.9h2.9v0.7h-1v4h-0.9v-4h-1V50.9z"/>
	<path class="st4" d="M104.8,53.5v2h-0.9v-4.6h1.6c0.7,0,1.3,0.3,1.3,1.1c0,0.5-0.1,1-0.7,1.1v0c0.5,0.1,0.7,0.4,0.7,0.8
		c0,0.2,0,1.3,0.2,1.5v0.1h-1c-0.1-0.3-0.1-0.9-0.1-1.2c0-0.3,0-0.7-0.3-0.8c-0.2-0.1-0.5-0.1-0.7-0.1H104.8z M104.8,52.8h0.7
		c0.3,0,0.5-0.2,0.5-0.7c0-0.5-0.2-0.6-0.5-0.6h-0.6V52.8z"/>
	<path class="st4" d="M107.4,55.5l1.1-4.6h1.2l1.1,4.6h-0.9l-0.2-1.2h-1l-0.2,1.2H107.4z M108.7,53.7h0.7l-0.2-1.3
		c0-0.2-0.1-0.4-0.1-0.6c0-0.1,0-0.2,0-0.3h0c0,0.1,0,0.2,0,0.3c0,0.2,0,0.4-0.1,0.6L108.7,53.7z"/>
	<path class="st4" d="M110.6,50.9h2.9v0.7h-1v4h-0.9v-4h-1V50.9z"/>
	<path class="st4" d="M114,55.5v-4.6h2.4v0.7h-1.6v1.2h1.4v0.7h-1.4v1.4h1.6v0.7H114z"/>
	<path class="st4" d="M117.1,55.5v-4.6h1.8c0.2,0,0.6,0.1,0.9,0.5c0.2,0.3,0.3,0.8,0.3,1.6c0,0.9,0,2-0.7,2.4
		c-0.2,0.1-0.4,0.1-0.6,0.1H117.1z M118.3,54.8c0.8,0,0.8-0.4,0.8-1.8c0-1.1-0.1-1.5-0.6-1.5h-0.6v3.3H118.3z"/>
	<path class="st4" d="M122.8,52.1c0.1,0.2,0.2,0.5,0.2,0.7h0c0.1-0.4,0.2-0.6,0.3-0.9l0.4-1.1h0.9l-1.2,2.7v2h-0.9v-2l-1.2-2.7h0.9
		L122.8,52.1z"/>
	<path class="st4" d="M125.2,55.5v-4.6h2.4v0.7H126v1.2h1.5v0.7H126v1.4h1.6v0.7H125.2z"/>
	<path class="st4" d="M128,55.5l1.1-4.6h1.2l1.1,4.6h-0.9l-0.2-1.2h-1l-0.2,1.2H128z M129.3,53.7h0.7l-0.2-1.3
		c0-0.2-0.1-0.4-0.1-0.6c0-0.1,0-0.2,0-0.3h0c0,0.1,0,0.2,0,0.3c0,0.2,0,0.4-0.1,0.6L129.3,53.7z"/>
	<path class="st4" d="M133.5,52.3c0-0.4,0-0.8-0.5-0.8c-0.3,0-0.5,0.1-0.5,0.4c0,0.4,0.2,0.5,0.5,0.7c0.3,0.2,0.8,0.5,1.1,0.8
		c0.3,0.3,0.4,0.6,0.4,1c0,0.9-0.6,1.3-1.4,1.3c-1,0-1.4-0.6-1.4-1.4v-0.3h0.9v0.3c0,0.5,0.1,0.8,0.5,0.8c0.4,0,0.5-0.2,0.5-0.5
		c0-0.3-0.1-0.5-0.3-0.6c-0.5-0.4-1-0.6-1.4-1.1c-0.1-0.2-0.2-0.5-0.2-0.7c0-0.8,0.4-1.2,1.4-1.2c1.4,0,1.3,1.1,1.4,1.5H133.5z"/>
	<path class="st4" d="M134.8,50.9h2.9v0.7h-1v4h-0.9v-4h-1V50.9z"/>
	<path class="st4" d="M139.2,55.5v-4.6h2.4v0.7H140v1.2h1.5v0.7H140v1.4h1.6v0.7H139.2z"/>
	<path class="st4" d="M145.3,55.5h-1l-0.5-1.1c-0.1-0.2-0.1-0.4-0.2-0.6h0c0,0.3-0.2,0.6-0.3,0.9l-0.4,0.9H142l1.1-2.4l-1.1-2.3h1
		l0.5,1.1c0.1,0.2,0.2,0.4,0.2,0.6h0c0-0.3,0.2-0.6,0.3-0.8l0.3-0.8h1l-1.1,2.3L145.3,55.5z"/>
	<path class="st4" d="M145.6,50.9h2.9v0.7h-1v4h-0.9v-4h-1V50.9z"/>
	<path class="st4" d="M149.8,53.5v2H149v-4.6h1.6c0.7,0,1.3,0.3,1.3,1.1c0,0.5-0.1,1-0.7,1.1v0c0.5,0.1,0.7,0.4,0.7,0.8
		c0,0.2,0,1.3,0.2,1.5v0.1h-1c-0.1-0.3-0.1-0.9-0.1-1.2c0-0.3,0-0.7-0.3-0.8c-0.2-0.1-0.5-0.1-0.7-0.1H149.8z M149.8,52.8h0.7
		c0.3,0,0.5-0.2,0.5-0.7c0-0.5-0.2-0.6-0.5-0.6h-0.6V52.8z"/>
	<path class="st4" d="M152.5,55.5l1.1-4.6h1.2l1.1,4.6h-0.9l-0.2-1.2h-1l-0.2,1.2H152.5z M153.8,53.7h0.7l-0.2-1.3
		c0-0.2-0.1-0.4-0.1-0.6c0-0.1,0-0.2,0-0.3h0c0,0.1,0,0.2,0,0.3c0,0.2,0,0.4-0.1,0.6L153.8,53.7z"/>
	<path class="st4" d="M158.9,53.9c0,0.1,0,0.2,0,0.3c0,0.8-0.3,1.5-1.3,1.5c-1.4,0-1.5-0.9-1.5-2.1v-0.7c0-1.2,0.1-2.1,1.5-2.1
		c0.8,0,1.2,0.4,1.3,1.2c0,0.1,0,0.2,0,0.4h-0.9c0-0.3,0-0.9-0.4-0.9c-0.7,0-0.6,0.8-0.6,1.2v1.3c0,0.4,0,1,0.6,1
		c0.5,0,0.4-0.8,0.4-1.1H158.9z"/>
	<path class="st4" d="M159.3,50.9h2.9v0.7h-1v4h-0.9v-4h-1V50.9z"/>
</g>
</svg>
