<?xml version="1.0" encoding="utf-8"?>
<!-- Generator: Adobe Illustrator 25.4.1, SVG Export Plug-In . SVG Version: 6.00 Build 0)  -->
<svg version="1.1" id="Layer_1" xmlns="http://www.w3.org/2000/svg" xmlns:xlink="http://www.w3.org/1999/xlink" x="0px" y="0px"
	 viewBox="0 0 240 80" style="enable-background:new 0 0 240 80;" xml:space="preserve">
<style type="text/css">
	.st0{display:none;}
	.st1{opacity:0.3;fill:#002D40;}
	.st2{fill:#002D40;}
</style>
<g id="guides" class="st0">
</g>
<path class="st1" d="M72.5,5.1c-11.1-1.7-24,9.8-31.9,17.2c-0.5-2.9-2.9-8.3-4.3-10.5C32,4.6,25.4,0.9,21.6,3.3
	c-2.3,1.5-2.9,5.1-2.2,9.1c-3.6,2.7-6.1,7-6.1,12.1c0,8.2,6,14.9,13.6,14.9c0.5,0,1,0,1.6-0.1c2.2-0.1,4.2-0.7,6.2-1.6
	c1.2,7.3,6.6,29,15.6,29.6c5.6,0.3,21.9-14.5,29.3-29.2C86.9,23.5,87,7.4,72.5,5.1z M23.8,28.7c-1.6-1.7-1.9-4.6-0.5-6.5
	c2.7,3.8,6.1,6.5,9.2,7.3C31.3,30.3,26.7,31.9,23.8,28.7z M69.3,23.4C68.7,33.1,55,53.9,51.1,53.9c-3.6-0.1-7.3-12.1-9-21.7v-0.1
	c5.9,0.1,11.1-3.5,15.5-6.6c1.5-0.9,5.2-3.5,6.3-4.3C68.6,18.2,69.4,20.8,69.3,23.4z"/>
<path class="st2" d="M52.5,22.5c1.8-1.1,9.2-7.8,15.3-8.5c3.8-0.4,6.8,1.6,5.9,9.8c-1.3,11.1-16.8,34.2-22.9,34.8
	c-3.6,0.3-6.2-9.5-7.9-21.4c-0.3-3.5-1.4-12.3-3.1-17.4c-0.3-1-0.8-2-1.2-2.8c-1.6-3-4.1-5.4-7.5-6.3c-4.1-1.2-8.5-0.7-11.8,2
	c0.4,2.5,1.5,5.7,3.1,8.3c0.3,0.5,0.6,0.9,0.9,1.5c1.6-1.6,4.1-2,5.8-0.5c0.8,0.7,1.5,1.9,2,3.1c0.9,2.2,2.5,8.6,3.4,12.8
	c3.2,14.9,11.3,25,16,24.9c5.9-0.3,18.6-12.3,25.2-24.6c5.2-9.7,7.5-20.5,0.9-26.6c-3.8-4-17-5.3-25.6,9.5c-0.1,0.2-0.2,0.3-0.2,0.5
	c0,0.5,0.3,1,0.9,1.1C52.1,22.7,52.3,22.6,52.5,22.5z"/>
<g>
	<g>
		<path class="st2" d="M102.9,33.5c-0.8,0-1.5,0.5-1.7,1.3l-4.1,14.9l-1.2,5.1l-1.1-5.1l-4.1-14.9c-0.2-0.8-0.9-1.4-1.7-1.4
			c-1,0-1.9,0.8-1.9,1.7c0,0.1,0,0.2,0,0.3l6.1,21.9c0.2,0.7,1,1.3,1.7,1.3h1.7c0.7,0,1.6-0.6,1.7-1.3l6.1-21.7
			c0.1-0.3,0.1-0.4,0.1-0.6C104.8,34.3,104,33.5,102.9,33.5z"/>
		<g>
			<path class="st2" d="M108.7,39.3c-1,0-1.8,0.8-1.8,1.8v16c0,1,0.8,1.8,1.8,1.8c0.9,0,1.8-0.6,1.8-1.8v-16
				C110.5,40,109.6,39.3,108.7,39.3z"/>
			<path class="st2" d="M107.1,35.5L107.1,35.5L107.1,35.5z"/>
			<path class="st2" d="M108.8,33.6c-0.9,0-1.8,0.7-1.8,1.8c0,1.1,0.9,1.8,1.8,1.8c1,0,1.8-0.8,1.8-1.8
				C110.7,34.4,109.8,33.6,108.8,33.6z"/>
			<path class="st2" d="M110.7,35.5L110.7,35.5L110.7,35.5z"/>
		</g>
		<path class="st2" d="M123.3,55.4h-3.1c-1.6,0-2.8-1.2-2.8-2.8v-7c0-1.6,1.3-2.8,2.8-2.8h3.1c0.9,0,1.6-0.8,1.6-1.7
			c0-0.9-0.8-1.6-1.6-1.6h-3.1c-3.5,0-6.5,2.8-6.5,6.5v6.4c0,3.5,2.8,6.5,6.5,6.5h3.1c0.9,0,1.6-0.8,1.6-1.6
			C125,56.2,124.2,55.4,123.3,55.4z"/>
		<path class="st2" d="M139.5,35.3v7.8h-8.1v-7.8c0-2.4-3.6-2.4-3.6,0v21.8c0,2.3,3.6,2.3,3.6,0V46.4h8.1v10.7
			c0,1.1,0.9,1.8,1.8,1.8c0.9,0,1.8-0.6,1.8-1.8V35.3C143.3,33,139.5,33,139.5,35.3z"/>
		<path class="st2" d="M153.8,39.3h-0.6c-3.5,0-6.5,2.8-6.5,6.4v6.6c0,3.5,2.8,6.5,6.5,6.5h4.7c0.9,0,1.7-0.8,1.7-1.6
			c0-0.9-0.8-1.7-1.7-1.7h-4.7c-1.6,0-2.8-1.2-2.8-2.8v-2.4h8c1,0,1.8-0.8,1.8-1.8v-2.7C160.2,42.3,157.3,39.3,153.8,39.3z
			 M153.2,42.7h0.6c1.6,0,2.8,1.3,2.8,2.8v1.4h-6.2v-1.4C150.3,43.9,151.6,42.7,153.2,42.7z"/>
		<path class="st2" d="M169.6,39.5h-3.8c-0.9,0-1.7,0.8-1.7,1.6c0,0.9,0.8,1.7,1.7,1.7h3.8c1.2,0,2.2,1,2.2,2.2v1.6h-2
			c-3.6,0-7.9,1.6-7.9,6.4c0,3.6,2.1,5.8,5.6,5.8c1.3,0,2.9-0.1,4.3-1.2c0.3,0.7,0.9,1.2,1.7,1.2c1,0,1.8-0.8,1.8-1.8V45.4
			C175.5,42.1,172.8,39.5,169.6,39.5z M165.6,53.1c0-1.9,1.6-3.1,4.2-3.1h2v3.6c-0.9,1.5-2,1.9-4.2,1.9
			C166.6,55.6,165.6,55.3,165.6,53.1z"/>
		<path class="st2" d="M182.5,55.8V35.3c0-1.2-0.9-1.8-1.8-1.8c-1,0-1.8,0.8-1.8,1.8v20.2c0,1.7,1.3,3.5,3.4,3.5
			c0.9,0,1.7-0.8,1.7-1.7C184,56.5,183.4,55.8,182.5,55.8z"/>
		<path class="st2" d="M193.5,39.5h-1.6v-4.1c0-1.1-0.9-1.8-1.8-1.8c-1,0-1.8,0.8-1.8,1.8v4.1h-1.6c-0.9,0-1.7,0.8-1.7,1.6
			c0,0.9,0.8,1.7,1.7,1.7h1.6v14.2c0,1,0.8,1.8,1.8,1.8c0.9,0,1.8-0.6,1.8-1.8V42.9h1.6c0.9,0,1.7-0.8,1.7-1.7
			C195.2,40.2,194.5,39.5,193.5,39.5z"/>
	</g>
	<path class="st2" d="M204.6,39.3c-1.2,0-2.6,0.6-3.9,1.6v-5.6c0-1.1-0.9-1.9-1.8-1.9c-1,0-1.8,0.8-1.8,1.9V57c0,1,0.8,1.8,1.8,1.8
		c0.9,0,1.8-0.6,1.8-1.8V45.9c0.3-1.8,2.1-3.3,3.9-3.3c1.1,0,2.3,0.6,2.3,2.2V57c0,1,0.8,1.8,1.8,1.8c1,0,1.8-0.8,1.8-1.8V45.3
		C210.5,41.4,207.5,39.3,204.6,39.3z"/>
</g>
</svg>
