<?xml version="1.0" encoding="utf-8"?>
<!-- Generator: Adobe Illustrator 26.0.0, SVG Export Plug-In . SVG Version: 6.00 Build 0)  -->
<svg version="1.1" id="Layer_1" xmlns="http://www.w3.org/2000/svg" xmlns:xlink="http://www.w3.org/1999/xlink" x="0px" y="0px"
	 viewBox="0 0 240 80" style="enable-background:new 0 0 240 80;" xml:space="preserve">
<style type="text/css">
	.st0{display:none;}
	.st1{fill:#002D40;}
</style>
<g id="guides" class="st0">
</g>
<g>
	<path class="st1" d="M26.2,26.5c1.6,0,3.2-0.1,4.9-0.1c0.2,0,0.5,0.4,0.6,0.6c1.2,2.6,2.5,5.3,3.7,7.9c0.1,0.1,0.1,0.3,0.3,0.5
		c0.3-0.5,0.5-1,0.7-1.5c1.1-2.3,2.2-4.6,3.2-7c0.2-0.5,0.5-0.6,1-0.6c1.4,0,2.9,0,4.4,0c-0.1,0.2-0.1,0.4-0.2,0.6
		c-2.4,5.1-4.8,10.3-7.2,15.5c-0.2,0.5-0.5,0.7-1,0.7c-0.8-0.1-1.9,0.2-2.5-0.1c-0.6-0.4-0.8-1.4-1.2-2.2c-2.1-4.5-4.2-9-6.3-13.5
		c-0.1-0.2-0.3-0.4-0.4-0.6V26.5z"/>
	<path class="st1" d="M55.4,38.3c1.3,1,2.7,1.3,4.2,1.3c0.6,0,1.2-0.3,1.6-0.6c0.7-0.5,0.6-1.3-0.2-1.6c-0.6-0.3-1.4-0.4-2-0.6
		c-1.2-0.4-2.4-0.8-3.5-1.4c-2.5-1.5-3-4.7-1.1-6.9c1.3-1.5,3.1-2.3,5.1-2.3c2.3-0.1,4.4,0.4,6.4,1.7c-0.8,1.1-1.5,2.2-2.1,3.1
		c-1.2-0.3-2.3-0.6-3.4-0.8c-0.3-0.1-0.6-0.1-0.9,0c-0.7,0.1-1.2,0.4-1.3,1.1c-0.1,0.7,0.5,1,1.1,1.2c1.3,0.4,2.6,0.7,3.8,1.2
		c2,0.8,3.2,2.2,3.2,4.5c0,2.2-1.1,3.9-3.2,4.7c-3.5,1.4-6.8,0.7-10.2-1C53.8,40.5,54.6,39.4,55.4,38.3"/>
	<polygon class="st1" points="79.3,43.1 79.3,30.6 74.8,30.6 74.8,26.5 88.4,26.5 88.4,30.6 83.9,30.6 83.9,43.1 	"/>
	<rect x="46.5" y="26.5" class="st1" width="4.7" height="16.6"/>
	<rect x="190.4" y="26.2" class="st1" width="4.6" height="17.2"/>
	<rect x="68.2" y="26.5" class="st1" width="4.5" height="16.6"/>
	<path class="st1" d="M204.4,37.3c0.5-1.1,1-2.2,1.5-3.4c0.5,1.2,1,2.3,1.5,3.4H204.4z M214.4,42.5c-2.4-5.2-4.8-10.4-7.2-15.6
		c-0.3-0.7-0.7-0.7-1.3-0.8c-0.6,0-0.9,0.2-1.2,0.8c-2.4,5.3-4.9,10.5-7.3,15.8c-0.1,0.2-0.2,0.5-0.3,0.8c1.3,0,2.5-0.1,3.6,0
		c1.1,0.1,1.8-0.3,2-1.4c0.1-0.5,0.5-0.6,1-0.6c1.5,0,3,0,4.5,0c0.6,0,0.9,0.2,1.1,0.7c0,0.2,0.2,0.3,0.2,0.5
		c0.1,0.6,0.5,0.8,1.1,0.7c1.4,0,2.9,0,4.3,0v-0.3C214.6,43,214.5,42.7,214.4,42.5"/>
	<path class="st1" d="M116,43.2h-4.8V26.4h4.8V43.2z M139.3,26.1c3.7-8.1,7.4-16,11.2-24.1h-71c0.1,0.2,0.1,0.3,0.2,0.5
		c3.6,7.8,7.2,15.5,10.8,23.3c0.2,0.4,0.4,0.5,0.8,0.5c1.3,0,2.6,0,3.9,0c0.5,0,0.8,0.1,1,0.6c0.7,1.5,1.4,3,2.1,4.6
		c0.6,1.3,1.2,2.7,1.9,4.1c1.3-2.8,2.5-5.3,3.7-8c0.4-1,0.9-1.4,2.1-1.3c1.2,0.1,2.5,0,3.7,0c-0.1,0.2-0.1,0.3-0.1,0.3
		c-2.5,5.4-5,10.8-7.5,16.2c-0.1,0.2-0.5,0.4-0.8,0.5c-0.9,0.1-1.8,0-2.8,0c5.5,11.9,10.9,23.6,16.4,35.4
		c5.6-12.1,11.2-24.1,16.8-36.2c-4.8,2.5-10.6,0.6-12.7-4c-2-4.4-0.1-9.6,4.3-11.7c4.3-2,9.8-0.4,11.6,3.5c-1.3,0.8-2.6,1.5-3.8,2.3
		c-2-2.3-4.6-2.7-6.5-1c-1.8,1.6-1.9,4.3-0.4,6c0.8,0.9,1.8,1.4,3,1.4c1.7,0.1,3-0.7,3.9-2c0.9,0.5,1.7,1,2.6,1.5
		c0.1-0.3,0.3-0.5,0.4-0.7c1-2.3,2.1-4.5,3.1-6.8c0.1-0.2,0.4-0.6,0.6-0.6c1.2-0.1,2.3,0,3.6,0v13h4.8v-13h4.7v-4.2H139.3z"/>
	<path class="st1" d="M161.2,39.1c-2.4,0-4.4-1.9-4.4-4.3c0-2.4,2-4.4,4.4-4.4c2.4,0,4.4,2,4.4,4.3
		C165.6,37.2,163.6,39.1,161.2,39.1 M161.3,25.8c-5.3,0-9.4,3.9-9.4,9c0,5.1,4.1,9.1,9.4,9.1c5.2,0,9.4-4,9.4-9
		C170.6,29.7,166.5,25.8,161.3,25.8"/>
	<path class="st1" d="M182.6,32.6c-0.1,1-0.9,1.8-1.8,1.8c-0.9,0-1.8,0-2.7,0c-0.1,0-0.2,0-0.4-0.1v-3.9c1.2,0,2.3-0.1,3.5,0
		C182.1,30.5,182.8,31.7,182.6,32.6 M184.5,37.7c0.2-0.2,0.4-0.3,0.6-0.5c2.1-1.8,2.9-4.2,2.1-6.7c-0.8-2.5-3-4.2-5.7-4.3
		c-2.8-0.1-5.6,0-8.5,0v17.2h4.7v-4.6c0.5,0,1,0,1.4,0c0.6-0.1,0.9,0.2,1.1,0.7c0.5,1.2,1,2.3,1.6,3.5c0.1,0.2,0.3,0.5,0.5,0.5
		c1.6,0,3.3,0,5,0c-0.5-1.1-1-2-1.5-2.9C185.5,39.6,185,38.6,184.5,37.7"/>
</g>
</svg>
