<?xml version="1.0" encoding="utf-8"?>
<!-- Generator: Adobe Illustrator 25.3.1, SVG Export Plug-In . SVG Version: 6.00 Build 0)  -->
<svg version="1.1" id="Layer_1" xmlns="http://www.w3.org/2000/svg" xmlns:xlink="http://www.w3.org/1999/xlink" x="0px" y="0px"
	 viewBox="0 0 240 80" enable-background="new 0 0 240 80" xml:space="preserve">
<g id="guides" display="none">
</g>
<g id="_x32_021-UPDATES">
	<g id="_x30_10-made-of-ballarat-2020-home" transform="translate(-129.000000, -7458.000000)">
		<g id="FOOTER" transform="translate(128.000000, 7037.000000)">
			<g id="LINKS" transform="translate(0.000000, 371.000000)">
				<g id="Group-22" transform="translate(1.000000, 50.000000)">
					<g id="Clip-2">
					</g>
					<g id="Clip-5">
					</g>
					<path fill-rule="evenodd" clip-rule="evenodd" fill="#253148" d="M55.3,3.4c-20,0-36.2,16.2-36.2,36.2s16.2,36.2,36.2,36.2
						s36.2-16.2,36.2-36.2C91.3,19.6,75.2,3.4,55.3,3.4z M50.4,62.5h-9.3V14.9h9.3V62.5z M58.9,62.5L58.9,62.5h-5.6v-9.6h5.6
						c2.6,0,4.7-2.1,4.7-4.7c0-0.8-0.3-1.5-0.5-2.1c2.1-0.5,5.6-1.8,8.4-4.8c1.1,2.1,1.8,4.4,1.8,7C73.3,56,66.8,62.5,58.9,62.5z
						 M58.9,43.6h-5.6V34h5.6c2.6,0,4.7-2.1,4.7-4.7s-2.1-4.7-4.7-4.7h-5.6v-9.6h5.6c7.9,0,14.2,6.4,14.2,14.2
						C73.3,37.1,66.8,43.6,58.9,43.6z"/>
					<defs>
						<filter id="Adobe_OpacityMaskFilter" filterUnits="userSpaceOnUse" x="102" y="36.2" width="22.6" height="28.5">
							<feColorMatrix  type="matrix" values="1 0 0 0 0  0 1 0 0 0  0 0 1 0 0  0 0 0 1 0"/>
						</filter>
					</defs>
					<mask maskUnits="userSpaceOnUse" x="102" y="36.2" width="22.6" height="28.5" id="mask-4_1_">
						<g filter="url(#Adobe_OpacityMaskFilter)">
							<polygon id="path-3_1_" fill-rule="evenodd" clip-rule="evenodd" fill="#FFFFFF" points="19.1,75.8 222.6,75.8 222.6,3.4 
								19.1,3.4 							"/>
						</g>
					</mask>
					<path id="Fill-8" mask="url(#mask-4_1_)" fill-rule="evenodd" clip-rule="evenodd" fill="#253148" d="M114.4,62.6
						c4.9,0,7.9-2.2,7.9-5.8v-0.1c0-3.4-3-5.5-8.6-5.5h-9.6v11.4H114.4z M113.4,49.3c4.2,0,7.3-2.1,7.3-5.9v-0.1
						c0-3.2-2.6-5.2-7.1-5.2h-9.6v11.1h9.5V49.3z M102,36.2h11.8c3.2,0,5.8,1,7.4,2.5c1.2,1.2,1.8,2.7,1.8,4.5v0.1
						c0,3.8-2.5,5.8-4.8,6.7c3.4,1,6.4,2.9,6.4,6.7v0.1c0,4.8-4.1,7.8-10.1,7.8h-12.3V36.2H102z"/>
					<defs>
						<filter id="Adobe_OpacityMaskFilter_1_" filterUnits="userSpaceOnUse" x="149.4" y="36.2" width="2.1" height="28.4">
							<feColorMatrix  type="matrix" values="1 0 0 0 0  0 1 0 0 0  0 0 1 0 0  0 0 0 1 0"/>
						</filter>
					</defs>
					<mask maskUnits="userSpaceOnUse" x="149.4" y="36.2" width="2.1" height="28.4" id="mask-4_2_">
						<g filter="url(#Adobe_OpacityMaskFilter_1_)">
							<polygon id="path-3_2_" fill-rule="evenodd" clip-rule="evenodd" fill="#FFFFFF" points="19.1,75.8 222.6,75.8 222.6,3.4 
								19.1,3.4 							"/>
						</g>
					</mask>
					<polygon id="Fill-9" mask="url(#mask-4_2_)" fill-rule="evenodd" clip-rule="evenodd" fill="#253148" points="149.4,64.5 
						151.5,64.5 151.5,36.2 149.4,36.2 					"/>
					<defs>
						<filter id="Adobe_OpacityMaskFilter_2_" filterUnits="userSpaceOnUse" x="156.4" y="36.2" width="1.9" height="28.4">
							<feColorMatrix  type="matrix" values="1 0 0 0 0  0 1 0 0 0  0 0 1 0 0  0 0 0 1 0"/>
						</filter>
					</defs>
					<mask maskUnits="userSpaceOnUse" x="156.4" y="36.2" width="1.9" height="28.4" id="mask-4_3_">
						<g filter="url(#Adobe_OpacityMaskFilter_2_)">
							<polygon id="path-3_3_" fill-rule="evenodd" clip-rule="evenodd" fill="#FFFFFF" points="19.1,75.8 222.6,75.8 222.6,3.4 
								19.1,3.4 							"/>
						</g>
					</mask>
					<polygon id="Fill-10" mask="url(#mask-4_3_)" fill-rule="evenodd" clip-rule="evenodd" fill="#253148" points="156.4,64.5 
						158.3,64.5 158.3,36.2 156.4,36.2 					"/>
					<defs>
						<filter id="Adobe_OpacityMaskFilter_3_" filterUnits="userSpaceOnUse" x="182.9" y="43.6" width="27.1" height="21.4">
							<feColorMatrix  type="matrix" values="1 0 0 0 0  0 1 0 0 0  0 0 1 0 0  0 0 0 1 0"/>
						</filter>
					</defs>
					<mask maskUnits="userSpaceOnUse" x="182.9" y="43.6" width="27.1" height="21.4" id="mask-4_4_">
						<g filter="url(#Adobe_OpacityMaskFilter_3_)">
							<polygon id="path-3_4_" fill-rule="evenodd" clip-rule="evenodd" fill="#FFFFFF" points="19.1,75.8 222.6,75.8 222.6,3.4 
								19.1,3.4 							"/>
						</g>
					</mask>
					<path id="Fill-11" mask="url(#mask-4_4_)" fill-rule="evenodd" clip-rule="evenodd" fill="#253148" d="M208.2,56.8
						c0,3.8-3.6,6.3-7.8,6.3c-3.2,0-6-1.8-6-4.8v-0.1c0-2.9,2.5-4.8,6.9-4.8c3,0,5.2,0.5,7,1L208.2,56.8L208.2,56.8z M207.9,45.9
						c-1.5-1.5-3.7-2.3-6.6-2.3h-7.8l0,0c-3.8,0.1-7.1,2.7-8.6,6.2v-5.9h-2.1v20.7h2.1V56c0-6.7,4.4-10.7,9.2-10.7h7.1
						c4.2,0,6.9,2.2,6.9,6.3v0.8c-1.9-0.5-4-0.8-6.9-0.8c-5.3,0-9,2.5-9,6.7v0.1c0,4.2,4.1,6.4,7.9,6.4c4,0,6.4-1.9,7.9-4v3.6h1.9
						V51.6C210.1,49.2,209.3,47.3,207.9,45.9L207.9,45.9z"/>
					<defs>
						<filter id="Adobe_OpacityMaskFilter_4_" filterUnits="userSpaceOnUse" x="161.4" y="43.6" width="17.8" height="21.5">
							<feColorMatrix  type="matrix" values="1 0 0 0 0  0 1 0 0 0  0 0 1 0 0  0 0 0 1 0"/>
						</filter>
					</defs>
					<mask maskUnits="userSpaceOnUse" x="161.4" y="43.6" width="17.8" height="21.5" id="mask-4_5_">
						<g filter="url(#Adobe_OpacityMaskFilter_4_)">
							<polygon id="path-3_5_" fill-rule="evenodd" clip-rule="evenodd" fill="#FFFFFF" points="19.1,75.8 222.6,75.8 222.6,3.4 
								19.1,3.4 							"/>
						</g>
					</mask>
					<path id="Fill-12" mask="url(#mask-4_5_)" fill-rule="evenodd" clip-rule="evenodd" fill="#253148" d="M177.2,56.8v-2.3
						c-1.8-0.4-4.1-1-7-1c-4.4,0-6.9,1.9-6.9,4.8v0.1c0,3,2.9,4.8,6,4.8C173.7,63.1,177.2,60.5,177.2,56.8L177.2,56.8z M170.5,43.6
						c2.7,0,5.1,0.8,6.6,2.3c1.4,1.4,2.1,3.3,2.1,5.9v12.7h-1.9v-3.4c-1.4,1.9-4,4-7.9,4c-3.8,0-7.9-2.2-7.9-6.4v-0.1
						c0-4.2,3.7-6.7,9-6.7c2.9,0,4.9,0.4,6.9,0.8v-0.8c0-4.1-2.6-6.3-6.9-6.3h-7.7v-1.9H170.5z"/>
					<defs>
						<filter id="Adobe_OpacityMaskFilter_5_" filterUnits="userSpaceOnUse" x="127.1" y="43.6" width="17.8" height="21.5">
							<feColorMatrix  type="matrix" values="1 0 0 0 0  0 1 0 0 0  0 0 1 0 0  0 0 0 1 0"/>
						</filter>
					</defs>
					<mask maskUnits="userSpaceOnUse" x="127.1" y="43.6" width="17.8" height="21.5" id="mask-4_6_">
						<g filter="url(#Adobe_OpacityMaskFilter_5_)">
							<polygon id="path-3_6_" fill-rule="evenodd" clip-rule="evenodd" fill="#FFFFFF" points="19.1,75.8 222.6,75.8 222.6,3.4 
								19.1,3.4 							"/>
						</g>
					</mask>
					<path id="Fill-13" mask="url(#mask-4_6_)" fill-rule="evenodd" clip-rule="evenodd" fill="#253148" d="M143.1,56.8v-2.3
						c-1.8-0.4-4.1-1-7-1c-4.4,0-6.9,1.9-6.9,4.8v0.1c0,3,2.9,4.8,6,4.8C139.4,63.1,143.1,60.5,143.1,56.8L143.1,56.8z M136.3,43.6
						c2.7,0,5.1,0.8,6.6,2.3c1.4,1.4,2.1,3.3,2.1,5.9v12.7H143v-3.4c-1.4,1.9-4,4-7.9,4c-3.8,0-7.9-2.2-7.9-6.4v-0.1
						c0-4.2,3.7-6.7,9-6.7c2.9,0,4.9,0.4,6.9,0.8v-0.8c0-4.1-2.6-6.3-6.9-6.3h-7.7v-1.9H136.3z"/>
					<defs>
						<filter id="Adobe_OpacityMaskFilter_6_" filterUnits="userSpaceOnUse" x="211.5" y="36.2" width="11" height="28.4">
							<feColorMatrix  type="matrix" values="1 0 0 0 0  0 1 0 0 0  0 0 1 0 0  0 0 0 1 0"/>
						</filter>
					</defs>
					<mask maskUnits="userSpaceOnUse" x="211.5" y="36.2" width="11" height="28.4" id="mask-4_7_">
						<g filter="url(#Adobe_OpacityMaskFilter_6_)">
							<polygon id="path-3_7_" fill-rule="evenodd" clip-rule="evenodd" fill="#FFFFFF" points="19.1,75.8 222.6,75.8 222.6,3.4 
								19.1,3.4 							"/>
						</g>
					</mask>
					<path id="Fill-14" mask="url(#mask-4_7_)" fill-rule="evenodd" clip-rule="evenodd" fill="#253148" d="M220.3,64.5
						c-3.2,0-5.8-1.8-5.8-5.6V45.7h-3V44h3v-7.8h1.9V44h6v1.8h-6v12.9c0,3,1.8,4,4.1,4h1.9v1.9H220.3z"/>
					<defs>
						<filter id="Adobe_OpacityMaskFilter_7_" filterUnits="userSpaceOnUse" x="136" y="14.6" width="7" height="17.9">
							<feColorMatrix  type="matrix" values="1 0 0 0 0  0 1 0 0 0  0 0 1 0 0  0 0 0 1 0"/>
						</filter>
					</defs>
					<mask maskUnits="userSpaceOnUse" x="136" y="14.6" width="7" height="17.9" id="mask-4_16_">
						<g filter="url(#Adobe_OpacityMaskFilter_7_)">
							<polygon id="path-3_16_" fill-rule="evenodd" clip-rule="evenodd" fill="#FFFFFF" points="19.1,75.8 222.6,75.8 222.6,3.4 
								19.1,3.4 							"/>
						</g>
					</mask>
					<path id="Fill-15" mask="url(#mask-4_16_)" fill-rule="evenodd" clip-rule="evenodd" fill="#253148" d="M141.5,32.5
						c-2.1,0-3.6-1.1-3.6-3.6v-8.2H136v-1.1h1.9v-4.9h1.2v4.9h3.8v1.1h-3.8v8.2c0,1.8,1.1,2.5,2.6,2.5h1.2v1.2L141.5,32.5z"/>
					<defs>
						<filter id="Adobe_OpacityMaskFilter_8_" filterUnits="userSpaceOnUse" x="99.6" y="14.8" width="16.9" height="17.9">
							<feColorMatrix  type="matrix" values="1 0 0 0 0  0 1 0 0 0  0 0 1 0 0  0 0 0 1 0"/>
						</filter>
					</defs>
					<mask maskUnits="userSpaceOnUse" x="99.6" y="14.8" width="16.9" height="17.9" id="mask-4_18_">
						<g filter="url(#Adobe_OpacityMaskFilter_8_)">
							<polygon id="path-3_18_" fill-rule="evenodd" clip-rule="evenodd" fill="#FFFFFF" points="19.1,75.8 222.6,75.8 222.6,3.4 
								19.1,3.4 							"/>
						</g>
					</mask>
					<polygon id="Fill-16" mask="url(#mask-4_18_)" fill-rule="evenodd" clip-rule="evenodd" fill="#253148" points="99.6,14.8 
						101.1,14.8 108.1,31.1 115,14.8 116.4,14.8 108.6,32.7 107.4,32.7 					"/>
					<defs>
						<filter id="Adobe_OpacityMaskFilter_9_" filterUnits="userSpaceOnUse" x="117.2" y="19.6" width="1.2" height="13">
							<feColorMatrix  type="matrix" values="1 0 0 0 0  0 1 0 0 0  0 0 1 0 0  0 0 0 1 0"/>
						</filter>
					</defs>
					<mask maskUnits="userSpaceOnUse" x="117.2" y="19.6" width="1.2" height="13" id="mask-4_20_">
						<g filter="url(#Adobe_OpacityMaskFilter_9_)">
							<polygon id="path-3_20_" fill-rule="evenodd" clip-rule="evenodd" fill="#FFFFFF" points="19.1,75.8 222.6,75.8 222.6,3.4 
								19.1,3.4 							"/>
						</g>
					</mask>
					<polygon id="Fill-17" mask="url(#mask-4_20_)" fill-rule="evenodd" clip-rule="evenodd" fill="#253148" points="117.2,32.6 
						118.5,32.6 118.5,19.6 117.2,19.6 					"/>
					<defs>
						<filter id="Adobe_OpacityMaskFilter_10_" filterUnits="userSpaceOnUse" x="120.8" y="19.4" width="9.7" height="13.6">
							<feColorMatrix  type="matrix" values="1 0 0 0 0  0 1 0 0 0  0 0 1 0 0  0 0 0 1 0"/>
						</filter>
					</defs>
					<mask maskUnits="userSpaceOnUse" x="120.8" y="19.4" width="9.7" height="13.6" id="mask-4_22_">
						<g filter="url(#Adobe_OpacityMaskFilter_10_)">
							<polygon id="path-3_22_" fill-rule="evenodd" clip-rule="evenodd" fill="#FFFFFF" points="19.1,75.8 222.6,75.8 222.6,3.4 
								19.1,3.4 							"/>
						</g>
					</mask>
					<path id="Fill-18" mask="url(#mask-4_22_)" fill-rule="evenodd" clip-rule="evenodd" fill="#253148" d="M120.8,30.9l0.7-1
						c1.4,1.1,3,1.6,4.7,1.6c1.8,0,3.2-1,3.2-2.5l0,0c0-1.5-1.6-2.1-3.4-2.6c-2.1-0.5-4.4-1.2-4.4-3.6l0,0c0-2.1,1.8-3.6,4.2-3.6
						c1.5,0,3.3,0.5,4.7,1.4l-0.7,1.1c-1.2-0.8-2.6-1.2-4-1.2c-1.8,0-3,1-3,2.3l0,0c0,1.5,1.8,1.9,3.6,2.5c2.1,0.5,4.2,1.4,4.2,3.7
						l0,0c0,2.3-1.9,3.8-4.5,3.8C124.2,32.9,122.2,32,120.8,30.9"/>
					<defs>
						<filter id="Adobe_OpacityMaskFilter_11_" filterUnits="userSpaceOnUse" x="133" y="19.6" width="1.2" height="13">
							<feColorMatrix  type="matrix" values="1 0 0 0 0  0 1 0 0 0  0 0 1 0 0  0 0 0 1 0"/>
						</filter>
					</defs>
					<mask maskUnits="userSpaceOnUse" x="133" y="19.6" width="1.2" height="13" id="mask-4_24_">
						<g filter="url(#Adobe_OpacityMaskFilter_11_)">
							<polygon id="path-3_24_" fill-rule="evenodd" clip-rule="evenodd" fill="#FFFFFF" points="19.1,75.8 222.6,75.8 222.6,3.4 
								19.1,3.4 							"/>
						</g>
					</mask>
					<polygon id="Fill-19" mask="url(#mask-4_24_)" fill-rule="evenodd" clip-rule="evenodd" fill="#253148" points="133,32.6 
						134.2,32.6 134.2,19.6 133,19.6 					"/>
					<defs>
						<filter id="Adobe_OpacityMaskFilter_12_" filterUnits="userSpaceOnUse" x="117.2" y="14.8" width="1.2" height="1.2">
							<feColorMatrix  type="matrix" values="1 0 0 0 0  0 1 0 0 0  0 0 1 0 0  0 0 0 1 0"/>
						</filter>
					</defs>
					<mask maskUnits="userSpaceOnUse" x="117.2" y="14.8" width="1.2" height="1.2" id="mask-4_26_">
						<g filter="url(#Adobe_OpacityMaskFilter_12_)">
							<polygon id="path-3_26_" fill-rule="evenodd" clip-rule="evenodd" fill="#FFFFFF" points="19.1,75.8 222.6,75.8 222.6,3.4 
								19.1,3.4 							"/>
						</g>
					</mask>
					<polygon id="Fill-20" mask="url(#mask-4_26_)" fill-rule="evenodd" clip-rule="evenodd" fill="#253148" points="117.2,16 
						118.5,16 118.5,14.8 117.2,14.8 					"/>
					<defs>
						<filter id="Adobe_OpacityMaskFilter_13_" filterUnits="userSpaceOnUse" x="133" y="14.8" width="1.2" height="1.2">
							<feColorMatrix  type="matrix" values="1 0 0 0 0  0 1 0 0 0  0 0 1 0 0  0 0 0 1 0"/>
						</filter>
					</defs>
					<mask maskUnits="userSpaceOnUse" x="133" y="14.8" width="1.2" height="1.2" id="mask-4_28_">
						<g filter="url(#Adobe_OpacityMaskFilter_13_)">
							<polygon id="path-3_28_" fill-rule="evenodd" clip-rule="evenodd" fill="#FFFFFF" points="19.1,75.8 222.6,75.8 222.6,3.4 
								19.1,3.4 							"/>
						</g>
					</mask>
					<polygon id="Fill-21" mask="url(#mask-4_28_)" fill-rule="evenodd" clip-rule="evenodd" fill="#253148" points="133,16 
						134.2,16 134.2,14.8 133,14.8 					"/>
				</g>
			</g>
		</g>
	</g>
</g>
</svg>
