<?xml version="1.0" encoding="utf-8"?>
<!-- Generator: Adobe Illustrator 24.1.0, SVG Export Plug-In . SVG Version: 6.00 Build 0)  -->
<svg version="1.1" id="Layer_1" xmlns="http://www.w3.org/2000/svg" xmlns:xlink="http://www.w3.org/1999/xlink" x="0px" y="0px"
	 viewBox="0 0 240 80" style="enable-background:new 0 0 240 80;" xml:space="preserve">
<style type="text/css">
	.st0{display:none;}
	.st1{fill:#878787;}
</style>
<g id="guides" class="st0">
</g>
<path class="st1" d="M130.7,17c-4.9,1-8.6,5.2-8.6,10.2c0,0.1,0,0.2,0,0.4c7.7,1.6,11.6,6.6,11.6,13.2c0,7.5-6.3,13.5-14,13.5
	c-7.7,0-14.9-6.2-14.9-15.4c0-11.3,10-21.8,24.2-22.1c0.3,0,0.6,0,1.1,0c-3.1-1.2-6.5-1.8-10.1-1.8c-15.3,0-27.6,11.6-27.6,25.9
	c0,14.3,12.4,25.8,27.6,25.8c15.3,0,27.7-11.6,27.7-25.8C147.6,30.1,140.6,20.9,130.7,17L130.7,17z"/>
</svg>
