<?xml version="1.0" encoding="utf-8"?>
<!-- Generator: Adobe Illustrator 24.0.3, SVG Export Plug-In . SVG Version: 6.00 Build 0)  -->
<svg version="1.1" id="Layer_1" xmlns="http://www.w3.org/2000/svg" xmlns:xlink="http://www.w3.org/1999/xlink" x="0px" y="0px"
	 viewBox="0 0 240 80" style="enable-background:new 0 0 240 80;" xml:space="preserve">
<style type="text/css">
	.st0{display:none;}
	.st1{clip-path:url(#SVGID_2_);fill:url(#SVGID_3_);}
	.st2{clip-path:url(#SVGID_5_);fill:url(#SVGID_6_);}
	.st3{clip-path:url(#SVGID_8_);fill:url(#SVGID_9_);}
	.st4{clip-path:url(#SVGID_11_);fill:url(#SVGID_12_);}
	.st5{clip-path:url(#SVGID_14_);fill:url(#SVGID_15_);}
	.st6{clip-path:url(#SVGID_17_);fill:url(#SVGID_18_);}
</style>
<g id="guides" class="st0">
</g>
<g id="guides_1_" class="st0">
</g>
<g>
	<g>
		<defs>
			<path id="SVGID_1_" d="M132.1,57.6c-1.4,0-2.8-0.1-4.1-0.6c-2.1,2.8-4.8,5.4-7.9,7.1c2.8,1.6,6,2.4,9.2,2.4
				c12.8,0,21.6-13.3,22.5-24.7C151.5,43.4,148.8,57.6,132.1,57.6"/>
		</defs>
		<clipPath id="SVGID_2_">
			<use xlink:href="#SVGID_1_"  style="overflow:visible;"/>
		</clipPath>
		
			<linearGradient id="SVGID_3_" gradientUnits="userSpaceOnUse" x1="-609.0737" y1="-10.9124" x2="-608.3268" y2="-10.9124" gradientTransform="matrix(-26.9369 -6.2853 6.2853 -26.9369 -16191.54 -4065.4658)">
			<stop  offset="0" style="stop-color:#626262"/>
			<stop  offset="0.1209" style="stop-color:#626262"/>
			<stop  offset="0.5063" style="stop-color:#909090"/>
			<stop  offset="0.8227" style="stop-color:#AEAEAE"/>
			<stop  offset="1" style="stop-color:#BABABA"/>
		</linearGradient>
		<polygon class="st1" points="150.2,73.6 114.6,65.2 121.7,34.9 157.3,43.3 		"/>
	</g>
</g>
<g>
	<g>
		<defs>
			<path id="SVGID_4_" d="M126.1,25.7c6.4,0.7,14.2,5.1,14.2,14.5c0,9.1-6,13.2-10.8,14.5c-0.4,0.9-1,1.7-1.6,2.4
				c1.1,0.3,2.7,0.6,4.1,0.6c16.7,0,19.3-14.2,19.7-15.6c0.1-0.7,0.1-1.6,0.1-2.3c0-12.8-9.6-17.6-16.6-17.6
				C129.1,22.1,126.1,25.7,126.1,25.7"/>
		</defs>
		<clipPath id="SVGID_5_">
			<use xlink:href="#SVGID_4_"  style="overflow:visible;"/>
		</clipPath>
		
			<linearGradient id="SVGID_6_" gradientUnits="userSpaceOnUse" x1="-593.5606" y1="-1.8303" x2="-592.8137" y2="-1.8303" gradientTransform="matrix(0 60.8593 -60.8593 0 27.6112 36136.1016)">
			<stop  offset="0" style="stop-color:#6E6E6E"/>
			<stop  offset="9.519343e-02" style="stop-color:#838383"/>
			<stop  offset="0.2379" style="stop-color:#9B9B9B"/>
			<stop  offset="0.3886" style="stop-color:#ACACAC"/>
			<stop  offset="0.5513" style="stop-color:#B7B7B7"/>
			<stop  offset="0.7473" style="stop-color:#BABABA"/>
			<stop  offset="1" style="stop-color:#BABABA"/>
		</linearGradient>
		<rect x="126.1" y="22.1" class="st2" width="25.8" height="35.5"/>
	</g>
</g>
<g>
	<g>
		<defs>
			<path id="SVGID_7_" d="M88.1,39.7c0,0.7,0,1.4,0.1,2.3c0.4,1.6,3,15.6,19.7,15.6c3.5,0,6.7-1.1,9.1-2.8c-0.9,0.3-1.8,0.4-3,0.4
				c-4.7,0-14.5-3.5-14.5-15c0-9.4,7.8-13.8,14.2-14.5c0,0-3-3.5-9.1-3.5C97.7,22.1,88.1,26.9,88.1,39.7"/>
		</defs>
		<clipPath id="SVGID_8_">
			<use xlink:href="#SVGID_7_"  style="overflow:visible;"/>
		</clipPath>
		
			<linearGradient id="SVGID_9_" gradientUnits="userSpaceOnUse" x1="-593.554" y1="-2.0369" x2="-592.8071" y2="-2.0369" gradientTransform="matrix(0 60.7959 -60.7959 0 -21.2789 36098.0703)">
			<stop  offset="0" style="stop-color:#6E6E6E"/>
			<stop  offset="9.519343e-02" style="stop-color:#838383"/>
			<stop  offset="0.2379" style="stop-color:#9B9B9B"/>
			<stop  offset="0.3886" style="stop-color:#ACACAC"/>
			<stop  offset="0.5513" style="stop-color:#B7B7B7"/>
			<stop  offset="0.7473" style="stop-color:#BABABA"/>
			<stop  offset="1" style="stop-color:#BABABA"/>
		</linearGradient>
		<rect x="88.1" y="22.1" class="st3" width="28.9" height="35.5"/>
	</g>
</g>
<g>
	<g>
		<defs>
			<path id="SVGID_10_" d="M107.7,40.4L107.7,40.4c0,0.3-0.1,0.4-0.1,0.7c-0.1,0.9-0.1,1.8-0.1,3c0,4.4,2,8.5,3.4,10.9
				c1.3,0.3,2.4,0.4,3.4,0.4c1,0,2-0.1,2.8-0.7l0,0c1.1-0.9,2.1-1.7,3-2.8l0,0c-0.6-0.7-3.3-4.4-3.3-9.4c0-4.7,2.4-6.7,3.3-7.1l0,0
				l0,0c-1.7-1.3-3.7-1.7-4.7-1.7C113.6,33.8,108.8,35,107.7,40.4"/>
		</defs>
		<clipPath id="SVGID_11_">
			<use xlink:href="#SVGID_10_"  style="overflow:visible;"/>
		</clipPath>
		
			<linearGradient id="SVGID_12_" gradientUnits="userSpaceOnUse" x1="-587.1538" y1="-5.0375" x2="-586.4068" y2="-5.0375" gradientTransform="matrix(0 29.9475 -29.9475 0 -37.1718 17617.4043)">
			<stop  offset="0" style="stop-color:#626262"/>
			<stop  offset="0.1868" style="stop-color:#626262"/>
			<stop  offset="0.7802" style="stop-color:#BABABA"/>
			<stop  offset="1" style="stop-color:#BABABA"/>
		</linearGradient>
		<rect x="107.4" y="33.8" class="st4" width="12.6" height="21.6"/>
	</g>
</g>
<g>
	<g>
		<defs>
			<path id="SVGID_13_" d="M107.7,40.4c1.1-5.4,5.8-6.5,7.2-6.5c1.7-0.1,3.3,0.3,5.1,1.6l0,0c1.8,1.4,3.4,3.7,3.4,7.4
				c0,3.1-1.3,6.4-3.4,9.1l0,0c-2.7,3.3-6.9,5.5-12.2,5.5c-16.7,0-19.3-14-19.7-15.6c1,11.3,9.8,24.7,22.5,24.7
				c12.5,0,22.1-12.6,22.1-23.3c0-7.4-4.1-13.9-12.8-13.9C112.3,29.5,108.7,35.2,107.7,40.4"/>
		</defs>
		<clipPath id="SVGID_14_">
			<use xlink:href="#SVGID_13_"  style="overflow:visible;"/>
		</clipPath>
		
			<linearGradient id="SVGID_15_" gradientUnits="userSpaceOnUse" x1="-603.6059" y1="4.146" x2="-602.8589" y2="4.146" gradientTransform="matrix(22.3676 -84.3771 84.3771 22.3676 13257.5127 -50958.7578)">
			<stop  offset="0" style="stop-color:#626262"/>
			<stop  offset="5.494510e-02" style="stop-color:#626262"/>
			<stop  offset="5.612379e-02" style="stop-color:#636363"/>
			<stop  offset="0.1946" style="stop-color:#888888"/>
			<stop  offset="0.3228" style="stop-color:#A4A4A4"/>
			<stop  offset="0.4359" style="stop-color:#B4B4B4"/>
			<stop  offset="0.522" style="stop-color:#BABABA"/>
			<stop  offset="1" style="stop-color:#BABABA"/>
		</linearGradient>
		<polygon class="st5" points="79,64.1 91.1,18.4 142,31.9 129.9,77.6 		"/>
	</g>
</g>
<g>
	<g>
		<defs>
			<path id="SVGID_16_" d="M128.8,8.8c-2,0-4.1,0.6-6.4,1.7c-4,2.1-5.1,6.1-5,8.7c0.1,3.5,2.8,6.1,2.8,6.1s0.6-4.1,5.2-6.9
				c6.5-3.8,13.5-0.6,13.5-0.6C139.9,13.9,135.2,8.8,128.8,8.8L128.8,8.8z"/>
		</defs>
		<clipPath id="SVGID_17_">
			<use xlink:href="#SVGID_16_"  style="overflow:visible;"/>
		</clipPath>
		
			<linearGradient id="SVGID_18_" gradientUnits="userSpaceOnUse" x1="-603.964" y1="12.0778" x2="-603.2169" y2="12.0778" gradientTransform="matrix(25.8476 -25.5148 25.5148 25.8476 15420.6504 -15694.5889)">
			<stop  offset="0" style="stop-color:#8C8C8C"/>
			<stop  offset="1" style="stop-color:#BABABA"/>
		</linearGradient>
		<polygon class="st6" points="109.2,16.9 128.7,-2.4 147.9,17.2 128.4,36.4 		"/>
	</g>
</g>
</svg>
