<?xml version="1.0" encoding="utf-8"?>
<!-- Generator: Adobe Illustrator 25.3.1, SVG Export Plug-In . SVG Version: 6.00 Build 0)  -->
<svg version="1.1" id="Layer_1" xmlns="http://www.w3.org/2000/svg" xmlns:xlink="http://www.w3.org/1999/xlink" x="0px" y="0px"
	 viewBox="0 0 347 67.1" enable-background="new 0 0 347 67.1" xml:space="preserve">
<g>
	<path fill="#253148" d="M51.7,67.1H15.5C6.9,67.1,0,60.2,0,51.7V15.5C0,6.9,6.9,0,15.5,0h36.2c8.5,0,15.5,6.9,15.5,15.5v36.2
		C67.1,60.2,60.2,67.1,51.7,67.1z M15.5,9.2c-3.4,0-6.2,2.8-6.2,6.2v36.2c0,3.4,2.8,6.2,6.2,6.2h36.2c3.4,0,6.2-2.8,6.2-6.2V15.5
		c0-3.4-2.8-6.2-6.2-6.2H15.5V9.2z"/>
	<polygon fill="#DE4B37" points="29.3,53 23,46.3 35.8,34.2 23,22.1 29.3,15.4 49.2,34.2 	"/>
</g>
<g>
	<path fill="#253148" d="M76.7,2.9h20.8v6.9h-6.6V28h-7.5V9.8h-6.6V2.9H76.7z"/>
	<path fill="#253148" d="M106.4,28h-7.1V1.2h7.1v12.3h0.3c1.3-4,3.4-6,6.4-6c3.4,0,5.2,2.5,5.2,6.9V28h-7.1V16.3
		c0-1.6-0.8-2.5-2.2-2.5c-1.7,0-2.7,1.3-2.7,3.3L106.4,28L106.4,28z"/>
	<path fill="#253148" d="M120.8,18.6c0-7.1,3.7-11.2,10.5-11.2c6.3,0,9.2,3.6,9.2,9.1c0,1,0,1.7-0.1,2.8h-12.5
		c0.3,2.8,1.3,3.7,3.4,3.7c2.1,0,2.7-1,3.1-2.1l5.9,1.6c-0.9,3.3-3.1,6.1-9,6.1C125.1,28.7,120.8,25.5,120.8,18.6z M127.7,16.6h6.2
		c0.1-2.7-0.9-3.9-2.9-3.9C129,12.6,128,13.7,127.7,16.6z"/>
	<path fill="#253148" d="M93,54.8h-8.4l-1.3,4.6h-7.7l8.1-25.1h10.5l8.1,25.1h-8.1L93,54.8z M86.1,49.4h5.4l-0.8-3.1
		c-0.5-1.9-1-3.8-1.4-5.6h-0.8c-0.5,1.8-1,3.7-1.5,5.6L86.1,49.4z"/>
	<path fill="#253148" d="M112.6,44.9c-1.8,0-3.1,1.2-3.1,4.3c0,2.9,1,4.6,3.1,4.6c1.8,0,2.6-1.4,2.9-3.1l6.5,1.5
		c-0.5,4.7-3.4,7.7-9.3,7.7c-6.4,0-10.5-3.3-10.5-10.2s3.8-11,10.5-11c6.2,0,8.7,3,9.3,8l-6.5,1.2C115.1,46.3,114.5,44.9,112.6,44.9
		z"/>
	<path fill="#253148" d="M134.1,44.9c-1.8,0-3.1,1.2-3.1,4.3c0,2.9,1,4.6,3.1,4.6c1.8,0,2.6-1.4,2.9-3.1l6.5,1.5
		c-0.5,4.7-3.4,7.7-9.3,7.7c-6.4,0-10.5-3.3-10.5-10.2s3.8-11,10.5-11c6.2,0,8.7,3,9.3,8l-6.5,1.2C136.6,46.3,135.9,44.9,134.1,44.9
		z"/>
	<path fill="#253148" d="M145.1,49.9c0-7.1,3.7-11.2,10.5-11.2c6.3,0,9.2,3.6,9.2,9.1c0,1,0,1.7-0.1,2.8h-12.5
		c0.3,2.8,1.3,3.7,3.4,3.7c2.1,0,2.7-1,3.1-2l5.9,1.6c-0.9,3.3-3.1,6.1-9,6.1C149.5,60,145.1,56.8,145.1,49.9z M152.1,47.9h6.2
		c0.1-2.7-0.9-3.9-2.9-3.9C153.3,44,152.3,45,152.1,47.9z"/>
	<path fill="#253148" d="M166.3,53.8l6.3-1.3c0.5,1.9,1.7,2.6,3.3,2.6c1.3,0,2-0.4,2-1.3c0-0.8-0.5-1.3-3.8-2.1
		c-5.6-1.3-7.5-3.1-7.5-6.7c0-4.1,2.9-6.4,8.9-6.4c6.2,0,8.1,2.3,8.7,5.7l-6.3,1.3c-0.3-1.6-0.9-2.3-2.6-2.3c-1.4,0-2.1,0.4-2.1,1.2
		s0.3,1.4,3.6,2.1c6.6,1.5,7.8,3.7,7.8,6.7c0,4.1-2.7,6.4-9,6.4C168.7,60,166.7,57.2,166.3,53.8z"/>
	<path fill="#253148" d="M186.3,53.8l6.3-1.3c0.5,1.9,1.7,2.6,3.3,2.6c1.3,0,2-0.4,2-1.3c0-0.8-0.5-1.3-3.8-2.1
		c-5.6-1.3-7.5-3.1-7.5-6.7c0-4.1,2.9-6.4,8.9-6.4c6.2,0,8.1,2.3,8.7,5.7l-6.3,1.3c-0.3-1.6-0.9-2.3-2.6-2.3c-1.4,0-2.1,0.4-2.1,1.2
		s0.3,1.4,3.6,2.1c6.6,1.5,7.8,3.7,7.8,6.7c0,4.1-2.7,6.4-9,6.4C188.7,60,186.7,57.2,186.3,53.8z"/>
	<path fill="#253148" d="M228.9,54.8h-8.4l-1.3,4.6h-7.7l8.1-25.1h10.5l8.1,25.1h-8.1L228.9,54.8z M222,49.4h5.4l-0.8-3.1
		c-0.5-1.9-1-3.8-1.4-5.6h-0.8c-0.5,1.8-1,3.7-1.5,5.6L222,49.4z"/>
	<path fill="#253148" d="M237.8,63c0-1.8,2.2-3.1,4.9-3.6v-0.3c-2.7-0.3-3.5-1.5-3.5-2.8c0-1.2,0.9-2.4,2.8-3.1l1.4-0.6
		c-3.1-1-4.8-3.1-4.8-6.3c0-4.4,3.5-6.9,9.4-6.9h10.4v5.2h-2.1c-1,0-2.2,0-3.7-0.1v0.4C255,45.3,257,46,257,48c0,3.1-3.3,5.1-9,5.1
		c-1.2,0-2.3-0.1-3.3-0.3l-0.1,0.3c-0.1,0.3-0.3,0.7-0.3,1c0,0.6,0.3,0.8,1.6,0.8c2.1,0,4.3-0.1,6.3-0.1c4.7,0,6.7,2.1,6.7,5.4
		c0,4.4-2.9,6.7-11.3,6.6C239.9,66.9,237.8,65.4,237.8,63z M253.5,60.5c0-0.8-0.5-1.3-1.7-1.3h-6.6c-1.3,0-2.3,0.5-2.3,1.3
		c0,1,0.8,1.5,5.2,1.5C252.5,62.1,253.5,61.6,253.5,60.5z M244.9,46.6c0,1,0.7,2.1,3.1,2.1c2.4,0,3.1-1,3.1-2.1s-0.8-2.1-3.1-2.1
		C245.6,44.6,244.9,45.6,244.9,46.6z"/>
	<path fill="#253148" d="M259.6,49.9c0-7.1,3.7-11.2,10.5-11.2c6.3,0,9.2,3.6,9.2,9.1c0,1,0,1.7-0.1,2.8h-12.5
		c0.3,2.8,1.3,3.7,3.4,3.7s2.7-1,3.1-2l5.9,1.6c-0.9,3.3-3.1,6.1-9,6.1C263.9,60,259.6,56.8,259.6,49.9z M266.6,47.9h6.2
		c0.1-2.7-0.9-3.9-2.9-3.9C267.8,44,266.8,45,266.6,47.9z"/>
	<path fill="#253148" d="M288.9,59.4h-7.1v-20h6.9v5.4h0.5c1.2-4.1,3.5-6,6.4-6c3.4,0,5.3,2.5,5.3,6.9v13.8h-7.1V47.6
		c0-1.6-0.8-2.5-2.2-2.5c-1.7,0-2.7,1.3-2.7,3.3L288.9,59.4L288.9,59.4z"/>
	<path fill="#253148" d="M313.6,44.9c-1.8,0-3.1,1.2-3.1,4.3c0,2.9,1,4.6,3.1,4.6c1.8,0,2.6-1.4,2.9-3.1l6.5,1.5
		c-0.5,4.7-3.4,7.7-9.3,7.7c-6.4,0-10.5-3.3-10.5-10.2s3.8-11,10.5-11c6.2,0,8.7,3,9.3,8l-6.5,1.2C316.1,46.3,315.5,44.9,313.6,44.9
		z"/>
	<path fill="#253148" d="M323.6,65.8l0.9-5.7c0.8,0.2,1.8,0.3,2.6,0.3c1.7,0,2.5-0.3,3.1-1.3l-6.8-19.7h7.7l1.6,7.5
		c0.4,1.8,0.8,3.7,1.1,5.6h0.5c0.4-1.9,0.7-3.7,1-5.4l1.4-7.6h7.7L337,59.2c-1.8,4.8-4.5,6.8-10,6.8
		C325.6,66.1,324.8,65.9,323.6,65.8z"/>
</g>
</svg>
