<?xml version="1.0" encoding="utf-8"?>
<!-- Generator: Adobe Illustrator 25.3.1, SVG Export Plug-In . SVG Version: 6.00 Build 0)  -->
<svg version="1.1" id="Layer_1" xmlns="http://www.w3.org/2000/svg" xmlns:xlink="http://www.w3.org/1999/xlink" x="0px" y="0px"
	 viewBox="0 0 67.1 67.1" style="enable-background:new 0 0 67.1 67.1;" xml:space="preserve">
<style type="text/css">
	.st0{fill:#8EC7B4;}
	.st1{fill:#253148;}
</style>
<g>
	<path class="st0" d="M51.7,67.1H15.5C6.9,67.1,0,60.2,0,51.7V15.5C0,6.9,6.9,0,15.5,0h36.2c8.5,0,15.5,6.9,15.5,15.5v36.2
		C67.1,60.2,60.2,67.1,51.7,67.1z M15.5,9.2c-3.4,0-6.2,2.8-6.2,6.2v36.2c0,3.4,2.8,6.2,6.2,6.2h36.2c3.4,0,6.2-2.8,6.2-6.2V15.5
		c0-3.4-2.8-6.2-6.2-6.2H15.5z"/>
	<polygon class="st1" points="29.3,53 23,46.3 35.8,34.2 23,22.1 29.3,15.4 49.2,34.2 	"/>
</g>
</svg>
