<?xml version="1.0" encoding="utf-8"?>
<!-- Generator: Adobe Illustrator 25.4.1, SVG Export Plug-In . SVG Version: 6.00 Build 0)  -->
<svg version="1.1" id="Layer_1" xmlns="http://www.w3.org/2000/svg" xmlns:xlink="http://www.w3.org/1999/xlink" x="0px" y="0px"
	 viewBox="0 0 261.2 67.1" style="enable-background:new 0 0 261.2 67.1;" xml:space="preserve">
<style type="text/css">
	.st0{fill:#FFFFFF;}
	.st1{fill:#DD4B37;}
	.st2{fill:#253148;}
</style>
<g>
	<path class="st0" d="M59.6,2.4h20.6v5.6H73v19.7h-6.1V7.9h-7.3V2.4z"/>
	<path class="st0" d="M88.2,27.7h-5.7v-27h5.7V13h0.3c1.2-3.8,3.5-5.9,6.7-5.9c3.8,0,5.7,2.7,5.7,7v13.5h-5.7V15.7c0-2-1-3.4-3-3.4
		c-2.4,0-4,1.7-4,4.2V27.7z"/>
	<path class="st0" d="M103.8,18.1c0-6.9,3.7-11,10.2-11c6.1,0,9.1,3.6,9.1,9.1c0,0.8,0,1.6-0.1,2.7h-13.5c0.3,3.2,1.8,4.6,4.5,4.6
		c2.7,0,3.5-1.3,4-2.8l4.8,1.3c-0.9,3.5-3.2,6.1-8.9,6.1C107.9,28.2,103.8,24.9,103.8,18.1z M109.5,16.1h8.3c-0.1-3.1-1.4-4.6-4-4.6
		C111.2,11.4,109.8,12.8,109.5,16.1z"/>
	<path class="st0" d="M149.1,22.1h-9.8l-1.7,5.6h-6.3l8.8-25.3h8.3l8.8,25.3h-6.5L149.1,22.1z M140.7,17.6h7l-1-3.1
		c-0.7-2.3-1.4-4.6-2-6.9h-1c-0.6,2.3-1.3,4.6-2.1,6.9L140.7,17.6z"/>
	<path class="st0" d="M167.7,12.2c-2.7,0-4.3,1.7-4.3,5.5c0,3.5,1.4,5.6,4.4,5.6c2.6,0,3.5-1.7,4-3.8l5.3,1.3
		c-0.7,4.6-3.5,7.5-9.2,7.5c-6.3,0-10.3-3.5-10.3-10.3c0-6.8,3.9-10.8,10.2-10.8c5.9,0,8.5,2.8,9.2,7.7l-5.3,1
		C171.1,13.7,170.2,12.2,167.7,12.2z"/>
	<path class="st0" d="M189.1,12.2c-2.7,0-4.3,1.7-4.3,5.5c0,3.5,1.4,5.6,4.4,5.6c2.6,0,3.5-1.7,4-3.8l5.3,1.3
		c-0.7,4.6-3.5,7.5-9.2,7.5c-6.3,0-10.3-3.5-10.3-10.3c0-6.8,3.9-10.8,10.2-10.8c5.9,0,8.5,2.8,9.2,7.7l-5.3,1
		C192.6,13.7,191.6,12.2,189.1,12.2z"/>
	<path class="st0" d="M200.4,18.1c0-6.9,3.7-11,10.2-11c6.1,0,9.1,3.6,9.1,9.1c0,0.8,0,1.6-0.1,2.7H206c0.3,3.2,1.8,4.6,4.5,4.6
		c2.7,0,3.5-1.3,4-2.8l4.8,1.3c-0.9,3.5-3.2,6.1-8.9,6.1C204.5,28.2,200.4,24.9,200.4,18.1z M206.1,16.1h8.3c-0.1-3.1-1.4-4.6-4-4.6
		C207.8,11.4,206.4,12.8,206.1,16.1z"/>
	<path class="st0" d="M221.5,21.9l5.1-1.1c0.5,2.2,1.9,3.3,4.3,3.3c1.9,0,2.9-0.6,2.9-1.9c0-1.2-0.8-1.9-4.5-2.6
		c-5.5-1.2-7.3-3-7.3-6.4c0-3.8,2.7-6.1,8.4-6.1c5.8,0,7.7,2.3,8.4,5.8l-5.1,1.1c-0.5-2.1-1.4-2.9-3.5-2.9c-1.9,0-2.8,0.6-2.8,1.8
		c0,1.1,0.5,1.9,4.1,2.6c6.2,1.3,7.8,3.4,7.8,6.5c0,3.9-2.6,6.2-8.6,6.2C224.1,28.2,222,25.5,221.5,21.9z"/>
	<path class="st0" d="M241.2,21.9l5.1-1.1c0.5,2.2,1.9,3.3,4.3,3.3c1.9,0,2.9-0.6,2.9-1.9c0-1.2-0.8-1.9-4.5-2.6
		c-5.5-1.2-7.3-3-7.3-6.4c0-3.8,2.7-6.1,8.4-6.1c5.8,0,7.7,2.3,8.4,5.8l-5.1,1.1c-0.5-2.1-1.4-2.9-3.5-2.9c-1.9,0-2.8,0.6-2.8,1.8
		c0,1.1,0.5,1.9,4.1,2.6c6.2,1.3,7.8,3.4,7.8,6.5c0,3.9-2.6,6.2-8.6,6.2C243.8,28.2,241.8,25.5,241.2,21.9z"/>
	<path class="st0" d="M76.5,53.6h-9.8L65,59.2h-6.3l8.8-25.3h8.3l8.8,25.3h-6.5L76.5,53.6z M68.1,49.1h7l-1-3.1
		c-0.7-2.3-1.4-4.6-2-6.9h-1c-0.6,2.3-1.3,4.6-2.1,6.9L68.1,49.1z"/>
	<path class="st0" d="M94.3,66.6c-7.6,0-9.8-1.6-9.8-4c0-1.8,2-3,4.7-3.6v-0.3c-2.1-0.3-3.1-1.3-3.1-2.7c0-1.1,0.9-2.1,2.5-2.9
		l1.5-0.8c-3-1-4.6-3.1-4.6-6.2c0-4.5,3.4-7,9.1-7h10.1v4.3h-2.2c-1,0-2.2,0-3.8-0.2l0,0.5c2.5,0.5,4.6,1.4,4.6,3.7
		c0,3.3-3.2,5.5-8.8,5.5c-1.2,0-2.4-0.1-3.3-0.3l-0.3,0.5c-0.2,0.4-0.4,0.8-0.4,1.1c0,0.7,0.5,1,1.8,1c2.2,0,4.5-0.1,6.5-0.1
		c4.4,0,6.4,1.9,6.4,5.2C105.1,64.5,102.4,66.6,94.3,66.6z M100.7,60.5c0-1-0.7-1.6-2.3-1.6h-6.8c-1.8,0-2.8,0.8-2.8,1.8
		c0,1.3,1.1,1.9,5.9,1.9C99.6,62.6,100.7,61.9,100.7,60.5z M90.6,46.4c0,1.6,1,2.8,3.8,2.8c2.9,0,3.9-1.2,3.9-2.8
		c0-1.6-1.2-2.8-3.9-2.8C91.6,43.5,90.6,44.8,90.6,46.4z"/>
	<path class="st0" d="M106,49.6c0-6.9,3.7-11,10.2-11c6.1,0,9.1,3.6,9.1,9.1c0,0.8,0,1.6-0.1,2.7h-13.5c0.3,3.2,1.8,4.6,4.5,4.6
		c2.7,0,3.5-1.3,4-2.8l4.8,1.3c-0.9,3.5-3.2,6.1-8.9,6.1C110.1,59.7,106,56.4,106,49.6z M111.7,47.6h8.3c-0.1-3.1-1.4-4.6-4-4.6
		C113.5,42.9,112,44.3,111.7,47.6z"/>
	<path class="st0" d="M134.1,59.2h-5.7v-20h5.6v5.4h0.4c1.2-3.9,3.6-5.9,6.7-5.9c3.8,0,5.8,2.7,5.8,7v13.5h-5.7V47.2
		c0-2-0.9-3.4-3-3.4c-2.4,0-4,1.7-4,4.2V59.2z"/>
	<path class="st0" d="M159.8,43.7c-2.7,0-4.3,1.7-4.3,5.5c0,3.5,1.4,5.6,4.4,5.6c2.6,0,3.5-1.7,4-3.8l5.3,1.3
		c-0.7,4.6-3.5,7.5-9.2,7.5c-6.3,0-10.3-3.5-10.3-10.3c0-6.8,3.9-10.8,10.2-10.8c5.9,0,8.5,2.8,9.2,7.7l-5.3,1
		C163.3,45.2,162.4,43.7,159.8,43.7z"/>
	<path class="st0" d="M169.7,65.9l0.8-4.8c0.8,0.2,1.7,0.3,2.6,0.3c2,0,3.1-0.4,4-2.5l-7.5-19.7h6.3l2,7.3c0.6,2.2,1.3,4.8,1.9,7.2
		h0.7c0.6-2.5,1.3-5,1.8-7.1l1.9-7.5h6.2l-7.9,20.1c-1.9,4.9-4.5,7-9.5,7C171.6,66.2,170.8,66.1,169.7,65.9z"/>
</g>
<g>
	<g>
		<path class="st1" d="M35.2,45.6H11.1C5.4,45.6,0.8,41,0.8,35.3V11.2c0-5.7,4.6-10.3,10.3-10.3h24.1c5.7,0,10.3,4.6,10.3,10.3v24.1
			C45.5,41,40.9,45.6,35.2,45.6z M11.1,7c-2.3,0-4.2,1.9-4.2,4.2v24.1c0,2.3,1.9,4.2,4.2,4.2h24.1c2.3,0,4.2-1.9,4.2-4.2V11.2
			c0-2.3-1.9-4.2-4.2-4.2H11.1z"/>
		<polygon class="st2" points="20.3,36.2 16.1,31.7 24.6,23.7 16.1,15.6 20.3,11.2 33.5,23.7 		"/>
	</g>
</g>
</svg>
